SNPro.glyphspackage
{
color = 3;
glyphname = dollar;
layers = (
{
background = {
shapes = (
{
closed = 1;
nodes = (
(324,-115,l),
(324,10,l),
(311,-4,l),
(440,1,o),
(532,70,o),
(532,182,cs),
(532,275,o),
(471,326,o),
(340,353,cs),
(245,373,ls),
(149,393,o),
(107,435,o),
(107,511,cs),
(107,605,o),
(182,668,o),
(295,668,cs),
(377,668,o),
(440,643,o),
(496,582,c),
(516,618,l),
(463,678,o),
(385,706,o),
(317,708,c),
(324,696,l),
(324,820,l),
(284,820,l),
(284,696,l),
(289,709,l),
(156,707,o),
(66,625,o),
(66,511,cs),
(66,413,o),
(123,356,o),
(243,331,cs),
(338,311,ls),
(445,288,o),
(489,251,o),
(489,181,cs),
(489,95,o),
(424,37,o),
(297,37,cs),
(197,37,o),
(137,62,o),
(72,119,c),
(50,83,l),
(115,22,o),
(202,-4,o),
(297,-4,c),
(284,9,l),
(284,-115,l)
);
}
);
};
layerId = "F1F93986-3ED8-4AAE-84C4-CA3EEECDDFA0";
shapes = (
{
closed = 1;
nodes = (
(324,658,l),
(324,771,l),
(324,782,o),
(315,791,o),
(304,791,cs),
(293,791,o),
(284,782,o),
(284,771,c),
(284,656,l)
);
},
{
pos = (7,0);
ref = S;
},
{
closed = 1;
nodes = (
(284,13,l),
(284,-101,l),
(284,-112,o),
(293,-121,o),
(304,-121,cs),
(316,-121,o),
(324,-112,o),
(324,-101,c),
(324,13,l)
);
}
);
width = 612;
},
{
background = {
shapes = (
{
closed = 1;
nodes = (
(397,-115,l),
(397,23,l),
(372,-3,l),
(509,16,o),
(603,102,o),
(603,224,cs),
(603,328,o),
(542,395,o),
(417,423,cs),
(301,449,ls),
(249,461,o),
(235,473,o),
(235,489,cs),
(235,517,o),
(267,538,o),
(330,538,cs),
(403,538,o),
(471,517,o),
(517,484,c),
(573,640,l),
(527,679,o),
(447,706,o),
(363,712,c),
(397,691,l),
(397,820,l),
(237,820,l),
(237,691,l),
(272,709,l),
(126,690,o),
(31,602,o),
(31,480,cs),
(31,373,o),
(91,305,o),
(216,277,cs),
(333,251,ls),
(383,240,o),
(398,227,o),
(398,208,cs),
(398,187,o),
(376,167,o),
(302,167,cs),
(224,167,o),
(134,194,o),
(76,231,c),
(19,65,l),
(78,25,o),
(172,-2,o),
(271,-7,c),
(237,23,l),
(237,-115,l)
);
}
);
};
layerId = "4121B50C-FD42-45C5-8FBE-41E76D98F91E";
shapes = (
{
closed = 1;
nodes = (
(388,647,l),
(388,714,l),
(388,760,o),
(363,795,o),
(317,795,cs),
(271,795,o),
(247,760,o),
(247,714,c),
(247,645,l)
);
},
{
pos = (-29,0);
ref = S;
},
{
closed = 1;
nodes = (
(247,92,l),
(247,-44,l),
(247,-90,o),
(271,-125,o),
(317,-125,c),
(363,-125,o),
(388,-90,o),
(388,-44,c),
(388,93,l)
);
}
);
width = 614;
},
{
background = {
shapes = (
{
closed = 1;
nodes = (
(268,-115,l),
(288,10,l),
(273,-4,l),
(407,-6,o),
(522,63,o),
(522,184,cs),
(522,273,o),
(469,324,o),
(335,361,cs),
(254,383,ls),
(179,403,o),
(140,434,o),
(140,517,cs),
(140,615,o),
(221,668,o),
(346,668,cs),
(424,668,o),
(492,644,o),
(551,578,c),
(574,612,l),
(528,666,o),
(462,697,o),
(392,706,c),
(396,698,l),
(416,820,l),
(376,820,l),
(357,700,l),
(364,709,l),
(215,715,o),
(96,646,o),
(96,517,cs),
(96,412,o),
(155,367,o),
(245,343,cs),
(326,321,ls),
(443,289,o),
(478,252,o),
(478,180,cs),
(478,86,o),
(389,37,o),
(283,37,cs),
(183,37,o),
(121,56,o),
(51,118,c),
(28,83,l),
(89,24,o),
(166,0,o),
(258,-4,c),
(248,8,l),
(228,-115,l)
);
}
);
};
layerId = "D8D4984A-F5A5-43C0-BF2B-5708C10C5E92";
shapes = (
{
closed = 1;
nodes = (
(391,656,l),
(407,759,l),
(410,778,o),
(401,785,o),
(390,785,cs),
(379,785,o),
(370,778,o),
(368,766,c),
(351,660,l)
);
},
{
pos = (-5,0);
ref = S;
},
{
closed = 1;
nodes = (
(249,16,l),
(232,-94,l),
(229,-112,o),
(237,-121,o),
(249,-121,cs),
(260,-121,o),
(268,-114,o),
(270,-102,c),
(289,16,l)
);
}
);
width = 612;
},
{
background = {
shapes = (
{
closed = 1;
nodes = (
(321,-115,l),
(341,19,l),
(316,-6,l),
(459,9,o),
(579,84,o),
(579,234,cs),
(579,326,o),
(517,398,o),
(417,422,cs),
(302,450,ls),
(260,460,o),
(244,476,o),
(244,496,cs),
(244,519,o),
(277,538,o),
(340,538,cs),
(392,538,o),
(468,523,o),
(527,484,c),
(596,635,l),
(546,668,o),
(490,691,o),
(435,703,c),
(448,694,l),
(469,820,l),
(309,820,l),
(288,693,l),
(311,712,l),
(164,702,o),
(39,617,o),
(39,472,cs),
(39,380,o),
(101,308,o),
(203,283,cs),
(318,255,ls),
(355,246,o),
(374,234,o),
(374,211,cs),
(374,185,o),
(345,166,o),
(281,166,cs),
(215,166,o),
(123,188,o),
(42,236,c),
(-24,73,l),
(38,29,o),
(119,3,o),
(202,-6,c),
(182,21,l),
(161,-115,l)
);
}
);
};
layerId = "C92D7C27-2246-4784-91DF-7F4E0C5E615D";
shapes = (
{
closed = 1;
nodes = (
(432,591,l),
(452,717,l),
(460,769,o),
(425,795,o),
(380,795,cs),
(333,795,o),
(301,769,o),
(295,732,c),
(275,606,l)
);
},
{
pos = (-33,1);
ref = S;
},
{
closed = 1;
nodes = (
(193,90,l),
(173,-40,l),
(165,-96,o),
(190,-125,o),
(248,-125,cs),
(292,-125,o),
(322,-101,o),
(328,-61,c),
(351,83,l)
);
}
);
width = 592;
},
{
background = {
shapes = (
{
closed = 1;
nodes = (
(364,-115,l),
(364,17,l),
(345,-4,l),
(478,9,o),
(571,86,o),
(571,203,cs),
(571,303,o),
(510,362,o),
(382,390,cs),
(276,413,ls),
(208,428,o),
(179,454,o),
(179,500,cs),
(179,561,o),
(233,603,o),
(316,603,cs),
(393,603,o),
(459,580,o),
(510,533,c),
(548,629,l),
(498,679,o),
(419,706,o),
(343,710,c),
(364,694,l),
(364,820,l),
(264,820,l),
(264,694,l),
(284,709,l),
(144,699,o),
(52,614,o),
(52,496,cs),
(52,393,o),
(113,332,o),
(233,306,cs),
(339,283,ls),
(417,266,o),
(444,240,o),
(444,193,cs),
(444,141,o),
(400,102,o),
(303,102,cs),
(214,102,o),
(139,128,o),
(77,175,c),
(38,74,l),
(100,24,o),
(190,-3,o),
(287,-6,c),
(264,16,l),
(264,-115,l)
);
}
);
};
layerId = "18203F29-5161-4D9B-8394-C173CC5E27D4";
shapes = (
{
closed = 1;
nodes = (
(364,637,l),
(364,743,l),
(364,771,o),
(342,793,o),
(314,793,cs),
(285,793,o),
(264,771,o),
(264,743,c),
(264,635,l)
);
},
{
pos = (-12,0);
ref = S;
},
{
closed = 1;
nodes = (
(264,37,l),
(264,-73,l),
(264,-101,o),
(285,-123,o),
(314,-123,cs),
(343,-123,o),
(364,-101,o),
(364,-73,c),
(364,36,l)
);
}
);
width = 616;
},
{
background = {
shapes = (
{
closed = 1;
nodes = (
(304,-115,l),
(324,15,l),
(304,-5,l),
(442,2,o),
(560,74,o),
(560,209,cs),
(560,300,o),
(502,361,o),
(385,392,cs),
(287,417,ls),
(232,431,o),
(204,455,o),
(204,507,cs),
(204,567,o),
(261,603,o),
(352,603,cs),
(417,603,o),
(489,584,o),
(548,531,c),
(594,624,l),
(546,667,o),
(485,694,o),
(423,705,c),
(431,696,l),
(452,820,l),
(352,820,l),
(332,697,l),
(347,711,l),
(199,709,o),
(77,632,o),
(77,495,cs),
(77,396,o),
(137,338,o),
(233,313,cs),
(331,288,ls),
(406,269,o),
(433,243,o),
(433,196,cs),
(433,136,o),
(374,102,o),
(291,102,cs),
(208,102,o),
(131,122,o),
(56,177,c),
(11,78,l),
(73,27,o),
(152,2,o),
(239,-5,c),
(224,15,l),
(204,-115,l)
);
}
);
};
layerId = "8FF16B21-C988-4EC9-A448-39B9B4A4BD78";
shapes = (
{
closed = 1;
nodes = (
(421,630,l),
(438,738,l),
(444,774,o),
(421,790,o),
(393,790,cs),
(364,790,o),
(344,774,o),
(340,749,c),
(322,634,l)
);
},
{
pos = (-18,0);
ref = S;
},
{
closed = 1;
nodes = (
(230,50,l),
(211,-67,l),
(205,-104,o),
(223,-123,o),
(258,-123,cs),
(285,-123,o),
(305,-108,o),
(309,-82,c),
(330,50,l)
);
}
);
width = 613;
}
);
unicode = 36;
userData = {
com.typemytype.robofont.layerData = {
b = {
anchors = (
);
components = (
);
contours = (
);
lib = {
};
name = dollar;
unicodes = (
);
width = 1274;
};
};
};
}
{
color = 6;
glyphname = percent;
kernLeft = percent;
kernRight = percent;
layers = (
{
background = {
shapes = (
{
closed = 1;
nodes = (
(684,707,l),
(649,727,l),
(232,-2,l),
(267,-22,l)
);
},
{
closed = 1;
nodes = (
(330,281,o),
(392,359,o),
(392,497,cs),
(392,634,o),
(329,712,o),
(229,712,cs),
(129,712,o),
(66,634,o),
(66,497,cs),
(66,358,o),
(128,281,o),
(229,281,cs)
);
},
{
closed = 1;
nodes = (
(154,318,o),
(108,380,o),
(108,497,cs),
(108,613,o),
(154,675,o),
(229,675,cs),
(304,675,o),
(350,613,o),
(350,497,cs),
(350,380,o),
(304,318,o),
(229,318,cs)
);
},
{
closed = 1;
nodes = (
(788,-8,o),
(850,70,o),
(850,208,cs),
(850,345,o),
(787,423,o),
(687,423,cs),
(587,423,o),
(524,345,o),
(524,208,cs),
(524,69,o),
(586,-8,o),
(687,-8,cs)
);
},
{
closed = 1;
nodes = (
(612,29,o),
(566,91,o),
(566,208,cs),
(566,324,o),
(612,386,o),
(687,386,cs),
(762,386,o),
(808,324,o),
(808,208,cs),
(808,91,o),
(762,29,o),
(687,29,cs)
);
}
);
};
layerId = "F1F93986-3ED8-4AAE-84C4-CA3EEECDDFA0";
shapes = (
{
closed = 1;
nodes = (
(655,656,ls),
(670,682,o),
(636,704,o),
(620,676,cs),
(240,11,ls),
(225,-15,o),
(258,-38,o),
(275,-9,cs)
);
},
{
closed = 1;
nodes = (
(330,334,o),
(392,412,o),
(392,505,cs),
(392,597,o),
(329,675,o),
(229,675,cs),
(129,675,o),
(66,597,o),
(66,505,cs),
(66,411,o),
(128,334,o),
(229,334,cs)
);
},
{
closed = 1;
nodes = (
(154,371,o),
(108,433,o),
(108,505,cs),
(108,576,o),
(154,638,o),
(229,638,cs),
(304,638,o),
(350,576,o),
(350,505,cs),
(350,433,o),
(304,371,o),
(229,371,cs)
);
},
{
closed = 1;
nodes = (
(770,-8,o),
(832,70,o),
(832,163,cs),
(832,255,o),
(769,333,o),
(669,333,cs),
(569,333,o),
(506,255,o),
(506,163,cs),
(506,69,o),
(568,-8,o),
(669,-8,cs)
);
},
{
closed = 1;
nodes = (
(594,29,o),
(548,91,o),
(548,163,cs),
(548,234,o),
(594,296,o),
(669,296,cs),
(744,296,o),
(790,234,o),
(790,163,cs),
(790,91,o),
(744,29,o),
(669,29,cs)
);
}
);
width = 916;
},
{
background = {
shapes = (
{
closed = 1;
nodes = (
(754,664,l),
(626,739,l),
(220,41,l),
(348,-34,l)
);
},
{
closed = 1;
nodes = (
(338,286,o),
(409,374,o),
(409,503,cs),
(409,630,o),
(337,717,o),
(215,717,cs),
(94,717,o),
(21,634,o),
(21,503,cs),
(21,374,o),
(92,286,o),
(215,286,cs)
);
},
{
closed = 1;
nodes = (
(194,410,o),
(184,428,o),
(184,503,cs),
(184,578,o),
(194,593,o),
(215,593,cs),
(235,593,o),
(246,575,o),
(246,503,cs),
(246,431,o),
(236,410,o),
(215,410,cs)
);
},
{
closed = 1;
nodes = (
(882,-12,o),
(953,76,o),
(953,205,cs),
(953,332,o),
(881,419,o),
(759,419,cs),
(638,419,o),
(565,336,o),
(565,205,cs),
(565,76,o),
(636,-12,o),
(759,-12,cs)
);
},
{
closed = 1;
nodes = (
(738,112,o),
(728,130,o),
(728,205,cs),
(728,280,o),
(738,295,o),
(759,295,cs),
(779,295,o),
(790,277,o),
(790,205,cs),
(790,133,o),
(780,112,o),
(759,112,cs)
);
}
);
};
layerId = "4121B50C-FD42-45C5-8FBE-41E76D98F91E";
shapes = (
{
closed = 1;
nodes = (
(720,606,ls),
(772,695,o),
(644,771,o),
(592,681,cs),
(254,99,ls),
(202,9,o),
(331,-64,o),
(382,24,cs)
);
},
{
closed = 1;
nodes = (
(338,286,o),
(409,374,o),
(409,503,cs),
(409,630,o),
(337,717,o),
(215,717,cs),
(94,717,o),
(21,634,o),
(21,503,cs),
(21,374,o),
(92,286,o),
(215,286,cs)
);
},
{
closed = 1;
nodes = (
(194,410,o),
(184,428,o),
(184,503,cs),
(184,578,o),
(194,593,o),
(215,593,cs),
(235,593,o),
(246,575,o),
(246,503,cs),
(246,431,o),
(236,410,o),
(215,410,cs)
);
},
{
closed = 1;
nodes = (
(882,-12,o),
(953,76,o),
(953,205,cs),
(953,332,o),
(881,419,o),
(759,419,cs),
(638,419,o),
(565,336,o),
(565,205,cs),
(565,76,o),
(636,-12,o),
(759,-12,cs)
);
},
{
closed = 1;
nodes = (
(738,112,o),
(728,130,o),
(728,205,cs),
(728,280,o),
(738,295,o),
(759,295,cs),
(779,295,o),
(790,277,o),
(790,205,cs),
(790,133,o),
(780,112,o),
(759,112,cs)
);
}
);
width = 974;
},
{
background = {
shapes = (
{
closed = 1;
nodes = (
(758,703,l),
(726,727,l),
(193,2,l),
(225,-22,l)
);
},
{
closed = 1;
nodes = (
(372,282,o),
(442,406,o),
(442,554,cs),
(442,654,o),
(389,713,o),
(305,713,cs),
(172,713,o),
(102,589,o),
(102,441,cs),
(102,341,o),
(155,282,o),
(239,282,cs)
);
},
{
closed = 1;
nodes = (
(182,319,o),
(141,358,o),
(144,447,cs),
(148,576,o),
(199,676,o),
(305,676,cs),
(362,676,o),
(403,637,o),
(400,548,cs),
(396,419,o),
(345,319,o),
(239,319,cs)
);
},
{
closed = 1;
nodes = (
(779,-8,o),
(849,116,o),
(849,264,cs),
(849,364,o),
(796,423,o),
(712,423,cs),
(579,423,o),
(509,299,o),
(509,151,cs),
(509,51,o),
(562,-8,o),
(646,-8,cs)
);
},
{
closed = 1;
nodes = (
(589,29,o),
(548,68,o),
(551,157,cs),
(555,286,o),
(606,386,o),
(712,386,cs),
(769,386,o),
(810,347,o),
(807,258,cs),
(803,129,o),
(752,29,o),
(646,29,cs)
);
}
);
};
layerId = "D8D4984A-F5A5-43C0-BF2B-5708C10C5E92";
shapes = (
{
closed = 1;
nodes = (
(720,650,ls),
(741,678,o),
(708,700,o),
(687,672,cs),
(202,18,ls),
(181,-10,o),
(213,-34,o),
(234,-6,cs)
);
},
{
closed = 1;
nodes = (
(363,282,o),
(433,371,o),
(433,519,cs),
(433,619,o),
(380,678,o),
(296,678,cs),
(163,678,o),
(93,589,o),
(93,441,cs),
(93,341,o),
(146,282,o),
(230,282,cs)
);
},
{
closed = 1;
nodes = (
(173,319,o),
(132,358,o),
(135,447,cs),
(139,576,o),
(190,641,o),
(296,641,cs),
(353,641,o),
(394,602,o),
(391,513,cs),
(387,384,o),
(336,319,o),
(230,319,cs)
);
},
{
closed = 1;
nodes = (
(772,-8,o),
(842,81,o),
(842,229,cs),
(842,329,o),
(789,388,o),
(705,388,cs),
(572,388,o),
(502,302,o),
(502,154,cs),
(502,54,o),
(555,-8,o),
(639,-8,cs)
);
},
{
closed = 1;
nodes = (
(582,29,o),
(541,71,o),
(544,160,cs),
(548,289,o),
(599,351,o),
(705,351,cs),
(762,351,o),
(803,312,o),
(800,223,cs),
(796,94,o),
(745,29,o),
(639,29,cs)
);
}
);
width = 916;
},
{
background = {
shapes = (
{
closed = 1;
nodes = (
(810,657,l),
(693,738,l),
(196,41,l),
(313,-40,l)
);
},
{
closed = 1;
nodes = (
(368,279,o),
(441,385,o),
(441,537,cs),
(441,639,o),
(378,710,o),
(258,710,cs),
(132,710,o),
(58,598,o),
(58,450,cs),
(58,349,o),
(120,279,o),
(241,279,cs)
);
},
{
closed = 1;
nodes = (
(223,403,o),
(217,412,o),
(217,447,cs),
(217,507,o),
(232,586,o),
(259,586,cs),
(276,586,o),
(282,577,o),
(282,542,cs),
(282,482,o),
(267,403,o),
(240,403,cs)
);
},
{
closed = 1;
nodes = (
(874,-12,o),
(947,94,o),
(947,246,cs),
(947,348,o),
(884,419,o),
(764,419,cs),
(638,419,o),
(564,307,o),
(564,159,cs),
(564,58,o),
(626,-12,o),
(747,-12,cs)
);
},
{
closed = 1;
nodes = (
(729,112,o),
(723,121,o),
(723,156,cs),
(723,216,o),
(738,295,o),
(765,295,cs),
(782,295,o),
(788,286,o),
(788,251,cs),
(788,191,o),
(773,112,o),
(746,112,cs)
);
}
);
};
layerId = "C92D7C27-2246-4784-91DF-7F4E0C5E615D";
shapes = (
{
closed = 1;
nodes = (
(778,613,ls),
(837,696,o),
(715,769,o),
(659,690,cs),
(229,87,ls),
(170,4,o),
(293,-69,o),
(349,10,cs)
);
},
{
closed = 1;
nodes = (
(368,279,o),
(441,385,o),
(441,537,cs),
(441,639,o),
(378,710,o),
(258,710,cs),
(132,710,o),
(58,598,o),
(58,450,cs),
(58,349,o),
(120,279,o),
(241,279,cs)
);
},
{
closed = 1;
nodes = (
(223,403,o),
(217,412,o),
(217,447,cs),
(217,507,o),
(232,586,o),
(259,586,cs),
(276,586,o),
(282,577,o),
(282,542,cs),
(282,482,o),
(267,403,o),
(240,403,cs)
);
},
{
closed = 1;
nodes = (
(874,-12,o),
(947,94,o),
(947,246,cs),
(947,348,o),
(884,419,o),
(764,419,cs),
(638,419,o),
(564,307,o),
(564,159,cs),
(564,58,o),
(626,-12,o),
(747,-12,cs)
);
},
{
closed = 1;
nodes = (
(729,112,o),
(723,121,o),
(723,156,cs),
(723,216,o),
(738,295,o),
(765,295,cs),
(782,295,o),
(788,286,o),
(788,251,cs),
(788,191,o),
(773,112,o),
(746,112,cs)
);
}
);
width = 974;
},
{
background = {
shapes = (
{
closed = 1;
nodes = (
(719,685,l),
(638,733,l),
(226,20,l),
(308,-28,l)
);
},
{
closed = 1;
nodes = (
(334,284,o),
(400,366,o),
(400,500,cs),
(400,633,o),
(334,715,o),
(222,715,cs),
(110,715,o),
(44,633,o),
(44,500,cs),
(44,366,o),
(110,284,o),
(222,284,cs)
);
},
{
closed = 1;
nodes = (
(174,368,o),
(146,409,o),
(146,500,cs),
(146,590,o),
(174,631,o),
(222,631,cs),
(270,631,o),
(298,589,o),
(298,500,cs),
(298,410,o),
(270,368,o),
(222,368,cs)
);
},
{
closed = 1;
nodes = (
(836,-10,o),
(902,72,o),
(902,206,cs),
(902,339,o),
(836,421,o),
(724,421,cs),
(612,421,o),
(546,339,o),
(546,206,cs),
(546,72,o),
(612,-10,o),
(724,-10,cs)
);
},
{
closed = 1;
nodes = (
(676,74,o),
(648,115,o),
(648,206,cs),
(648,296,o),
(676,337,o),
(724,337,cs),
(772,337,o),
(800,295,o),
(800,206,cs),
(800,116,o),
(772,74,o),
(724,74,cs)
);
}
);
};
layerId = "18203F29-5161-4D9B-8394-C173CC5E27D4";
shapes = (
{
closed = 1;
nodes = (
(655,630,ls),
(677,669,o),
(623,703,o),
(599,662,cs),
(240,40,ls),
(217,-1,o),
(273,-33,o),
(296,7,cs)
);
},
{
closed = 1;
nodes = (
(333,333,o),
(392,406,o),
(392,500,cs),
(392,593,o),
(333,666,o),
(232,666,cs),
(131,666,o),
(72,593,o),
(72,500,cs),
(72,406,o),
(131,333,o),
(232,333,cs)
);
},
{
closed = 1;
nodes = (
(185,400,o),
(142,428,o),
(142,500,cs),
(142,571,o),
(185,599,o),
(232,599,cs),
(279,599,o),
(322,570,o),
(322,500,cs),
(322,429,o),
(279,400,o),
(232,400,cs)
);
},
{
closed = 1;
nodes = (
(768,11,o),
(827,84,o),
(827,178,cs),
(827,271,o),
(768,344,o),
(667,344,cs),
(566,344,o),
(507,271,o),
(507,178,cs),
(507,84,o),
(566,11,o),
(667,11,cs)
);
},
{
closed = 1;
nodes = (
(620,78,o),
(577,106,o),
(577,178,cs),
(577,249,o),
(620,277,o),
(667,277,cs),
(714,277,o),
(757,248,o),
(757,178,cs),
(757,107,o),
(714,78,o),
(667,78,cs)
);
}
);
width = 945;
},
{
background = {
shapes = (
{
closed = 1;
nodes = (
(784,680,l),
(710,733,l),
(195,22,l),
(269,-31,l)
);
},
{
closed = 1;
nodes = (
(370,281,o),
(442,396,o),
(442,546,cs),
(442,647,o),
(384,712,o),
(282,712,cs),
(152,712,o),
(80,594,o),
(80,446,cs),
(80,345,o),
(138,281,o),
(240,281,cs)
);
},
{
closed = 1;
nodes = (
(203,361,o),
(179,385,o),
(181,447,cs),
(183,542,o),
(216,631,o),
(282,631,cs),
(319,631,o),
(343,607,o),
(341,545,cs),
(339,451,o),
(306,361,o),
(240,361,cs)
);
},
{
closed = 1;
nodes = (
(827,-10,o),
(898,105,o),
(898,255,cs),
(898,356,o),
(840,421,o),
(738,421,cs),
(609,421,o),
(537,303,o),
(537,155,cs),
(537,55,o),
(594,-10,o),
(697,-10,cs)
);
},
{
closed = 1;
nodes = (
(659,71,o),
(636,95,o),
(637,157,cs),
(639,251,o),
(672,341,o),
(739,341,cs),
(776,341,o),
(799,317,o),
(798,255,cs),
(796,160,o),
(763,71,o),
(696,71,cs)
);
}
);
};
layerId = "8FF16B21-C988-4EC9-A448-39B9B4A4BD78";
shapes = (
{
closed = 1;
nodes = (
(736,614,ls),
(776,669,o),
(698,716,o),
(660,664,cs),
(218,53,ls),
(178,-2,o),
(254,-51,o),
(293,2,cs)
);
},
{
closed = 1;
nodes = (
(370,281,o),
(442,389,o),
(442,539,cs),
(442,616,o),
(384,677,o),
(282,677,cs),
(152,677,o),
(80,594,o),
(80,446,cs),
(80,345,o),
(138,281,o),
(240,281,cs)
);
},
{
closed = 1;
nodes = (
(203,361,o),
(179,385,o),
(181,447,cs),
(183,542,o),
(216,596,o),
(282,596,cs),
(319,596,o),
(343,572,o),
(341,510,cs),
(339,416,o),
(306,361,o),
(240,361,cs)
);
},
{
closed = 1;
nodes = (
(813,-8,o),
(885,100,o),
(885,250,cs),
(885,327,o),
(827,388,o),
(725,388,cs),
(595,388,o),
(523,305,o),
(523,157,cs),
(523,56,o),
(581,-8,o),
(683,-8,cs)
);
},
{
closed = 1;
nodes = (
(646,72,o),
(622,96,o),
(624,158,cs),
(626,253,o),
(659,307,o),
(725,307,cs),
(762,307,o),
(786,283,o),
(784,221,cs),
(782,127,o),
(749,72,o),
(683,72,cs)
);
}
);
width = 945;
}
);
unicode = 37;
}
{
color = 6;
glyphname = ampersand;
kernLeft = ampersand;
kernRight = ampersand;
layers = (
{
background = {
shapes = (
{
closed = 1;
nodes = (
(369,-8,o),
(451,35,o),
(503,110,c),
(489,110,l),
(584,0,l),
(635,0,l),
(511,144,l),
(513,126,l),
(554,196,o),
(580,292,o),
(583,404,c),
(542,404,l),
(540,308,o),
(519,216,o),
(487,161,c),
(497,161,l),
(295,396,l),
(293,383,l),
(416,465,o),
(447,512,o),
(447,580,cs),
(447,662,o),
(385,713,o),
(308,713,cs),
(213,713,o),
(153,654,o),
(153,568,cs),
(153,515,o),
(175,471,o),
(244,393,c),
(249,401,l),
(218,379,ls),
(113,304,o),
(66,249,o),
(66,160,cs),
(66,58,o),
(142,-8,o),
(275,-8,cs)
);
},
{
closed = 1;
nodes = (
(165,31,o),
(108,79,o),
(108,161,cs),
(108,235,o),
(142,278,o),
(242,349,cs),
(274,372,l),
(261,372,l),
(478,123,l),
(478,143,l),
(431,70,o),
(363,31,o),
(275,31,cs)
);
},
{
closed = 1;
nodes = (
(367,674,o),
(407,635,o),
(407,576,cs),
(407,524,o),
(371,480,o),
(265,409,c),
(281,413,l),
(212,493,o),
(195,521,o),
(195,568,cs),
(195,631,o),
(241,674,o),
(308,674,cs)
);
}
);
};
layerId = "F1F93986-3ED8-4AAE-84C4-CA3EEECDDFA0";
shapes = (
{
closed = 1;
nodes = (
(369,-8,o),
(451,35,o),
(503,110,c),
(489,110,l),
(579,6,ls),
(587,-4,o),
(592,-6,o),
(601,-6,cs),
(617,-6,o),
(628,8,o),
(615,23,cs),
(511,144,l),
(513,126,l),
(551,191,o),
(577,279,o),
(582,387,cs),
(583,402,o),
(576,410,o),
(563,410,cs),
(550,410,o),
(542,402,o),
(541,388,cs),
(537,294,o),
(517,212,o),
(487,161,c),
(497,161,l),
(295,396,l),
(293,383,l),
(416,465,o),
(447,512,o),
(447,580,cs),
(447,662,o),
(385,713,o),
(308,713,cs),
(213,713,o),
(153,654,o),
(153,568,cs),
(153,515,o),
(175,471,o),
(244,393,c),
(249,401,l),
(218,379,ls),
(113,304,o),
(66,249,o),
(66,160,cs),
(66,58,o),
(142,-8,o),
(275,-8,cs)
);
},
{
closed = 1;
nodes = (
(165,31,o),
(108,79,o),
(108,161,cs),
(108,235,o),
(142,278,o),
(242,349,cs),
(274,372,l),
(261,372,l),
(478,123,l),
(478,143,l),
(431,70,o),
(363,31,o),
(275,31,cs)
);
},
{
closed = 1;
nodes = (
(367,674,o),
(407,635,o),
(407,576,cs),
(407,524,o),
(371,480,o),
(265,409,c),
(281,413,l),
(212,493,o),
(195,521,o),
(195,568,cs),
(195,631,o),
(241,674,o),
(308,674,cs)
);
}
);
width = 664;
},
{
background = {
shapes = (
{
closed = 1;
nodes = (
(409,-12,o),
(490,20,o),
(557,71,c),
(513,71,l),
(590,0,l),
(842,0,l),
(629,195,l),
(629,151,l),
(691,230,o),
(728,335,o),
(733,442,c),
(565,442,l),
(559,377,o),
(543,317,o),
(510,263,c),
(554,263,l),
(416,389,l),
(416,352,l),
(503,390,o),
(552,458,o),
(552,541,cs),
(552,648,o),
(473,717,o),
(348,717,cs),
(206,717,o),
(112,639,o),
(112,525,cs),
(112,467,o),
(139,408,o),
(187,370,c),
(219,408,l),
(182,390,ls),
(104,352,o),
(47,290,o),
(47,199,cs),
(47,73,o),
(157,-12,o),
(326,-12,cs)
);
},
{
closed = 1;
nodes = (
(286,143,o),
(253,170,o),
(253,214,cs),
(253,256,o),
(276,289,o),
(310,304,cs),
(335,315,l),
(245,315,l),
(439,138,l),
(445,183,l),
(411,157,o),
(381,143,o),
(341,143,cs)
);
},
{
closed = 1;
nodes = (
(378,585,o),
(396,570,o),
(396,535,cs),
(396,496,o),
(373,471,o),
(310,448,c),
(351,448,l),
(315,480,o),
(299,503,o),
(299,531,cs),
(299,564,o),
(317,585,o),
(348,585,cs)
);
}
);
};
layerId = "4121B50C-FD42-45C5-8FBE-41E76D98F91E";
shapes = (
{
closed = 1;
nodes = (
(409,-12,o),
(490,20,o),
(557,71,c),
(513,71,l),
(541,45,ls),
(578,11,o),
(602,-10,o),
(652,-10,cs),
(735,-10,o),
(774,65,o),
(708,124,cs),
(629,195,l),
(629,151,l),
(675,209,o),
(708,281,o),
(723,362,cs),
(734,419,o),
(701,452,o),
(645,452,cs),
(593,452,o),
(567,425,o),
(554,373,cs),
(544,333,o),
(531,297,o),
(510,263,c),
(554,263,l),
(416,389,l),
(416,352,l),
(503,390,o),
(552,458,o),
(552,541,cs),
(552,648,o),
(473,717,o),
(348,717,cs),
(206,717,o),
(112,639,o),
(112,525,cs),
(112,467,o),
(139,408,o),
(187,370,c),
(219,408,l),
(182,390,ls),
(104,352,o),
(47,290,o),
(47,199,cs),
(47,73,o),
(157,-12,o),
(326,-12,cs)
);
},
{
closed = 1;
nodes = (
(286,143,o),
(253,170,o),
(253,214,cs),
(253,256,o),
(276,289,o),
(310,304,cs),
(335,315,l),
(245,315,l),
(439,138,l),
(445,183,l),
(411,157,o),
(381,143,o),
(341,143,cs)
);
},
{
closed = 1;
nodes = (
(378,585,o),
(396,570,o),
(396,535,cs),
(396,496,o),
(373,471,o),
(310,448,c),
(351,448,l),
(315,480,o),
(299,503,o),
(299,531,cs),
(299,564,o),
(317,585,o),
(348,585,cs)
);
}
);
width = 788;
},
{
background = {
shapes = (
{
closed = 1;
nodes = (
(347,-8,o),
(429,35,o),
(488,110,c),
(471,110,l),
(548,0,l),
(596,0,l),
(495,144,l),
(499,126,l),
(551,196,o),
(589,292,o),
(609,404,c),
(568,404,l),
(551,308,o),
(516,216,o),
(475,161,c),
(483,161,l),
(318,396,l),
(316,381,l),
(427,448,o),
(502,497,o),
(502,593,cs),
(502,664,o),
(453,713,o),
(374,713,cs),
(272,713,o),
(205,649,o),
(205,552,cs),
(205,509,o),
(223,458,o),
(271,393,c),
(275,402,l),
(240,382,ls),
(159,336,o),
(52,257,o),
(52,142,cs),
(52,48,o),
(126,-8,o),
(242,-8,cs)
);
},
{
closed = 1;
nodes = (
(144,31,o),
(94,70,o),
(94,144,cs),
(94,231,o),
(160,290,o),
(260,350,cs),
(295,371,l),
(284,372,l),
(462,123,l),
(464,143,l),
(410,70,o),
(337,31,o),
(239,31,cs)
);
},
{
closed = 1;
nodes = (
(426,674,o),
(462,638,o),
(462,589,cs),
(462,529,o),
(422,489,o),
(292,410,c),
(307,413,l),
(259,480,o),
(247,510,o),
(247,556,cs),
(247,621,o),
(298,674,o),
(373,674,cs)
);
}
);
};
layerId = "D8D4984A-F5A5-43C0-BF2B-5708C10C5E92";
shapes = (
{
closed = 1;
nodes = (
(347,-8,o),
(429,35,o),
(488,110,c),
(471,110,l),
(545,4,ls),
(550,-3,o),
(556,-6,o),
(564,-6,cs),
(581,-6,o),
(591,8,o),
(581,22,cs),
(495,144,l),
(499,126,l),
(548,192,o),
(585,284,o),
(606,386,cs),
(609,401,o),
(602,410,o),
(589,410,cs),
(576,410,o),
(568,403,o),
(565,390,cs),
(548,301,o),
(514,213,o),
(475,161,c),
(483,161,l),
(318,396,l),
(316,381,l),
(427,448,o),
(502,497,o),
(502,593,cs),
(502,664,o),
(453,713,o),
(374,713,cs),
(272,713,o),
(205,649,o),
(205,552,cs),
(205,509,o),
(223,458,o),
(271,393,c),
(275,402,l),
(240,382,ls),
(159,336,o),
(52,257,o),
(52,142,cs),
(52,48,o),
(126,-8,o),
(242,-8,cs)
);
},
{
closed = 1;
nodes = (
(144,31,o),
(94,70,o),
(94,144,cs),
(94,231,o),
(160,290,o),
(260,350,cs),
(295,371,l),
(284,372,l),
(462,123,l),
(464,143,l),
(410,70,o),
(337,31,o),
(239,31,cs)
);
},
{
closed = 1;
nodes = (
(426,674,o),
(462,638,o),
(462,589,cs),
(462,529,o),
(422,489,o),
(292,410,c),
(307,413,l),
(259,480,o),
(247,510,o),
(247,556,cs),
(247,621,o),
(298,674,o),
(373,674,cs)
);
}
);
width = 664;
},
{
background = {
shapes = (
{
closed = 1;
nodes = (
(391,-12,o),
(465,17,o),
(527,68,c),
(504,71,l),
(570,0,l),
(803,0,l),
(621,195,l),
(622,151,l),
(696,230,o),
(750,335,o),
(762,442,c),
(594,442,l),
(577,377,o),
(552,317,o),
(510,263,c),
(544,263,l),
(426,389,l),
(431,352,l),
(511,388,o),
(596,465,o),
(596,558,cs),
(596,651,o),
(522,717,o),
(398,717,cs),
(264,717,o),
(152,641,o),
(152,508,cs),
(152,457,o),
(169,401,o),
(204,370,c),
(242,408,l),
(203,390,ls),
(108,346,o),
(39,279,o),
(39,177,cs),
(39,69,o),
(142,-12,o),
(296,-12,cs)
);
},
{
closed = 1;
nodes = (
(272,143,o),
(244,174,o),
(244,209,cs),
(244,242,o),
(269,279,o),
(317,298,cs),
(344,309,l),
(264,315,l),
(430,138,l),
(433,183,l),
(395,157,o),
(369,143,o),
(329,143,cs)
);
},
{
closed = 1;
nodes = (
(427,585,o),
(440,566,o),
(440,543,cs),
(440,504,o),
(403,454,o),
(340,457,c),
(371,448,l),
(344,476,o),
(339,497,o),
(339,517,cs),
(339,562,o),
(363,585,o),
(397,585,cs)
);
}
);
};
layerId = "C92D7C27-2246-4784-91DF-7F4E0C5E615D";
shapes = (
{
closed = 1;
nodes = (
(391,-12,o),
(465,17,o),
(527,68,c),
(504,71,l),
(555,16,ls),
(576,-7,o),
(605,-12,o),
(629,-12,cs),
(708,-12,o),
(749,57,o),
(692,119,cs),
(621,195,l),
(622,151,l),
(674,206,o),
(721,282,o),
(745,359,cs),
(763,416,o),
(729,452,o),
(671,452,cs),
(621,452,o),
(593,429,o),
(575,381,cs),
(559,339,o),
(538,298,o),
(510,263,c),
(544,263,l),
(426,389,l),
(431,352,l),
(511,388,o),
(596,465,o),
(596,558,cs),
(596,651,o),
(522,717,o),
(398,717,cs),
(264,717,o),
(152,641,o),
(152,508,cs),
(152,457,o),
(169,401,o),
(204,370,c),
(242,408,l),
(203,390,ls),
(108,346,o),
(39,279,o),
(39,177,cs),
(39,69,o),
(142,-12,o),
(296,-12,cs)
);
},
{
closed = 1;
nodes = (
(272,143,o),
(244,174,o),
(244,209,cs),
(244,242,o),
(269,279,o),
(317,298,cs),
(344,309,l),
(264,315,l),
(430,138,l),
(433,183,l),
(395,157,o),
(369,143,o),
(329,143,cs)
);
},
{
closed = 1;
nodes = (
(427,585,o),
(440,566,o),
(440,543,cs),
(440,504,o),
(403,454,o),
(340,457,c),
(371,448,l),
(344,476,o),
(339,497,o),
(339,517,cs),
(339,562,o),
(363,585,o),
(397,585,cs)
);
}
);
width = 788;
},
{
background = {
shapes = (
{
closed = 1;
nodes = (
(389,-10,o),
(471,28,o),
(530,91,c),
(501,91,l),
(587,0,l),
(739,0,l),
(570,170,l),
(571,139,l),
(623,213,o),
(654,314,o),
(658,423,c),
(554,423,l),
(550,343,o),
(531,267,o),
(499,212,c),
(526,212,l),
(356,393,l),
(355,363,l),
(464,423,o),
(506,485,o),
(506,561,cs),
(506,655,o),
(437,715,o),
(328,715,cs),
(210,715,o),
(133,647,o),
(133,547,cs),
(133,491,o),
(157,440,o),
(216,382,c),
(234,409,l),
(200,389,ls),
(110,336,o),
(57,270,o),
(57,180,cs),
(57,66,o),
(150,-10,o),
(301,-10,cs)
);
},
{
closed = 1;
nodes = (
(226,89,o),
(181,127,o),
(181,190,cs),
(181,246,o),
(207,282,o),
(276,322,cs),
(305,339,l),
(253,344,l),
(459,131,l),
(462,163,l),
(421,114,o),
(372,89,o),
(308,89,cs)
);
},
{
closed = 1;
nodes = (
(372,626,o),
(401,601,o),
(401,556,cs),
(401,510,o),
(371,480,o),
(288,433,c),
(316,431,l),
(264,487,o),
(248,512,o),
(248,550,cs),
(248,596,o),
(280,626,o),
(328,626,cs)
);
}
);
};
layerId = "18203F29-5161-4D9B-8394-C173CC5E27D4";
shapes = (
{
closed = 1;
nodes = (
(389,-10,o),
(471,28,o),
(530,91,c),
(501,91,l),
(563,26,ls),
(585,3,o),
(600,-8,o),
(630,-8,cs),
(679,-8,o),
(703,36,o),
(665,74,cs),
(570,170,l),
(571,139,l),
(613,200,o),
(644,280,o),
(654,375,cs),
(658,411,o),
(640,431,o),
(605,431,cs),
(573,431,o),
(556,414,o),
(551,381,cs),
(542,315,o),
(524,255,o),
(499,212,c),
(526,212,l),
(356,393,l),
(355,363,l),
(464,423,o),
(506,485,o),
(506,561,cs),
(506,655,o),
(437,715,o),
(328,715,cs),
(210,715,o),
(133,647,o),
(133,547,cs),
(133,491,o),
(157,440,o),
(216,382,c),
(234,409,l),
(200,389,ls),
(110,336,o),
(57,270,o),
(57,180,cs),
(57,66,o),
(150,-10,o),
(301,-10,cs)
);
},
{
closed = 1;
nodes = (
(226,89,o),
(181,127,o),
(181,190,cs),
(181,246,o),
(207,282,o),
(276,322,cs),
(305,339,l),
(253,344,l),
(459,131,l),
(462,163,l),
(421,114,o),
(372,89,o),
(308,89,cs)
);
},
{
closed = 1;
nodes = (
(372,626,o),
(401,601,o),
(401,556,cs),
(401,510,o),
(371,480,o),
(288,433,c),
(316,431,l),
(264,487,o),
(248,512,o),
(248,550,cs),
(248,596,o),
(280,626,o),
(328,626,cs)
);
}
);
width = 726;
},
{
background = {
shapes = (
{
closed = 1;
nodes = (
(359,-10,o),
(442,27,o),
(507,90,c),
(482,91,l),
(554,0,l),
(700,0,l),
(559,170,l),
(558,139,l),
(621,213,o),
(667,314,o),
(686,423,c),
(582,423,l),
(565,342,o),
(535,267,o),
(494,212,c),
(518,212,l),
(376,393,l),
(374,363,l),
(469,414,o),
(556,478,o),
(556,576,cs),
(556,658,o),
(491,715,o),
(395,715,cs),
(269,715,o),
(179,635,o),
(179,523,cs),
(179,478,o),
(197,430,o),
(238,382,c),
(260,409,l),
(223,389,ls),
(124,335,o),
(45,260,o),
(45,155,cs),
(45,56,o),
(129,-10,o),
(265,-10,cs)
);
},
{
closed = 1;
nodes = (
(209,89,o),
(170,120,o),
(170,173,cs),
(170,246,o),
(228,287,o),
(289,321,cs),
(320,338,l),
(272,344,l),
(443,131,l),
(449,163,l),
(402,114,o),
(351,89,o),
(284,89,cs)
);
},
{
closed = 1;
nodes = (
(428,626,o),
(451,608,o),
(451,572,cs),
(451,516,o),
(407,476,o),
(318,435,c),
(343,431,l),
(307,477,o),
(295,501,o),
(295,533,cs),
(295,589,o),
(331,626,o),
(388,626,cs)
);
}
);
};
layerId = "8FF16B21-C988-4EC9-A448-39B9B4A4BD78";
shapes = (
{
closed = 1;
nodes = (
(359,-10,o),
(442,27,o),
(507,90,c),
(482,91,l),
(545,11,ls),
(558,-6,o),
(579,-9,o),
(596,-9,cs),
(647,-9,o),
(672,35,o),
(638,75,cs),
(559,170,l),
(558,139,l),
(616,213,o),
(646,267,o),
(676,376,cs),
(686,412,o),
(666,431,o),
(630,431,cs),
(599,431,o),
(582,416,o),
(573,386,cs),
(549,305,o),
(533,267,o),
(494,212,c),
(518,212,l),
(376,393,l),
(374,363,l),
(469,414,o),
(556,478,o),
(556,576,cs),
(556,658,o),
(491,715,o),
(395,715,cs),
(269,715,o),
(179,635,o),
(179,523,cs),
(179,478,o),
(197,430,o),
(238,382,c),
(260,409,l),
(223,389,ls),
(124,335,o),
(45,260,o),
(45,155,cs),
(45,56,o),
(129,-10,o),
(265,-10,cs)
);
},
{
closed = 1;
nodes = (
(209,89,o),
(170,120,o),
(170,173,cs),
(170,246,o),
(228,287,o),
(289,321,cs),
(320,338,l),
(272,344,l),
(443,131,l),
(449,163,l),
(402,114,o),
(351,89,o),
(284,89,cs)
);
},
{
closed = 1;
nodes = (
(428,626,o),
(451,608,o),
(451,572,cs),
(451,516,o),
(407,476,o),
(318,435,c),
(343,431,l),
(307,477,o),
(295,501,o),
(295,533,cs),
(295,589,o),
(331,626,o),
(388,626,cs)
);
}
);
width = 726;
}
);
unicode = 38;
}
{
color = 6;
glyphname = parenleft;
kernLeft = parenleft;
kernRight = braceleft;
layers = (
{
background = {
shapes = (
{
closed = 1;
nodes = (
(246,-178,l),
(181,-33,o),
(148,115,o),
(148,263,cs),
(148,411,o),
(181,559,o),
(246,704,c),
(211,716,l),
(139,566,o),
(104,419,o),
(104,263,cs),
(104,107,o),
(139,-41,o),
(211,-190,c)
);
}
);
};
guides = (
{
pos = (126,337);
}
);
layerId = "F1F93986-3ED8-4AAE-84C4-CA3EEECDDFA0";
shapes = (
{
closed = 1;
nodes = (
(214,-195,o),
(249,-185,o),
(237,-157,cs),
(178,-19,o),
(148,196,o),
(148,337,cs),
(148,478,o),
(178,685,o),
(237,823,cs),
(248,850,o),
(214,863,o),
(203,840,cs),
(137,696,o),
(104,487,o),
(104,337,cs),
(104,187,o),
(137,-30,o),
(203,-174,cs)
);
}
);
width = 281;
},
{
background = {
shapes = (
{
closed = 1;
nodes = (
(399,-144,l),
(339,18,o),
(319,120,o),
(319,263,cs),
(319,406,o),
(339,508,o),
(399,670,c),
(265,726,l),
(139,582,o),
(96,426,o),
(96,263,cs),
(96,100,o),
(139,-56,o),
(265,-200,c)
);
}
);
};
layerId = "4121B50C-FD42-45C5-8FBE-41E76D98F91E";
shapes = (
{
closed = 1;
nodes = (
(276,-220,o),
(411,-189,o),
(371,-64,cs),
(333,55,o),
(314,219,o),
(314,337,cs),
(314,455,o),
(333,609,o),
(371,728,cs),
(411,851,o),
(277,886,o),
(225,815,cs),
(130,685,o),
(91,482,o),
(91,337,cs),
(91,192,o),
(130,-21,o),
(225,-151,cs)
);
}
);
width = 434;
},
{
background = {
shapes = (
{
closed = 1;
nodes = (
(177,-178,l),
(157,-83,o),
(146,12,o),
(146,100,cs),
(146,328,o),
(213,527,o),
(318,699,c),
(285,716,l),
(175,560,o),
(102,335,o),
(102,102,cs),
(102,6,o),
(117,-91,o),
(142,-190,c)
);
}
);
};
layerId = "D8D4984A-F5A5-43C0-BF2B-5708C10C5E92";
shapes = (
{
closed = 1;
nodes = (
(143,-196,o),
(178,-187,o),
(173,-160,cs),
(156,-71,o),
(146,92,o),
(146,174,cs),
(146,393,o),
(208,652,o),
(306,819,cs),
(322,846,o),
(290,863,o),
(274,840,cs),
(170,685,o),
(102,401,o),
(102,176,cs),
(102,88,o),
(115,-75,o),
(136,-165,cs)
);
}
);
width = 281;
},
{
background = {
shapes = (
{
closed = 1;
nodes = (
(331,-144,l),
(320,-41,o),
(313,19,o),
(313,96,cs),
(313,321,o),
(370,480,o),
(468,662,c),
(331,726,l),
(192,592,o),
(89,391,o),
(89,176,cs),
(89,53,o),
(120,-82,o),
(190,-200,c)
);
}
);
};
layerId = "C92D7C27-2246-4784-91DF-7F4E0C5E615D";
shapes = (
{
closed = 1;
nodes = (
(192,-218,o),
(338,-196,o),
(323,-67,cs),
(316,-7,o),
(313,114,o),
(313,170,cs),
(313,353,o),
(348,552,o),
(432,727,cs),
(480,828,o),
(350,886,o),
(282,808,cs),
(168,677,o),
(89,439,o),
(89,250,cs),
(89,156,o),
(106,-18,o),
(154,-130,cs)
);
}
);
width = 434;
},
{
background = {
shapes = (
{
closed = 1;
nodes = (
(323,-161,l),
(260,-8,o),
(234,118,o),
(234,263,cs),
(234,409,o),
(260,534,o),
(323,687,c),
(238,721,l),
(139,574,o),
(100,423,o),
(100,263,cs),
(100,104,o),
(139,-49,o),
(238,-195,c)
);
}
);
};
layerId = "18203F29-5161-4D9B-8394-C173CC5E27D4";
shapes = (
{
closed = 1;
nodes = (
(247,-210,o),
(330,-186,o),
(304,-111,cs),
(259,19,o),
(234,207,o),
(234,337,cs),
(234,467,o),
(256,644,o),
(304,773,cs),
(330,848,o),
(247,872,o),
(217,825,cs),
(135,694,o),
(100,485,o),
(100,337,cs),
(100,189,o),
(134,-33,o),
(217,-163,cs)
);
}
);
width = 358;
},
{
background = {
shapes = (
{
closed = 1;
nodes = (
(254,-161,l),
(239,-62,o),
(230,16,o),
(230,98,cs),
(230,325,o),
(292,504,o),
(393,681,c),
(308,721,l),
(184,576,o),
(96,363,o),
(96,139,cs),
(96,30,o),
(119,-87,o),
(166,-195,c)
);
}
);
};
layerId = "8FF16B21-C988-4EC9-A448-39B9B4A4BD78";
shapes = (
{
closed = 1;
nodes = (
(166,-208,o),
(261,-192,o),
(249,-114,cs),
(237,-39,o),
(230,100,o),
(230,169,cs),
(230,370,o),
(279,599,o),
(369,769,cs),
(402,832,o),
(318,872,o),
(279,820,cs),
(174,681,o),
(96,417,o),
(96,210,cs),
(96,119,o),
(112,-47,o),
(146,-148,cs)
);
}
);
width = 358;
}
);
unicode = 40;
}
{
color = 6;
glyphname = parenright;
kernLeft = braceright;
kernRight = parenright;
layers = (
{
background = {
shapes = (
{
closed = 1;
nodes = (
(142,-41,o),
(177,107,o),
(177,263,cs),
(177,418,o),
(142,565,o),
(70,716,c),
(35,704,l),
(100,556,o),
(132,409,o),
(132,263,cs),
(132,117,o),
(100,-30,o),
(35,-178,c),
(70,-190,l)
);
}
);
};
layerId = "F1F93986-3ED8-4AAE-84C4-CA3EEECDDFA0";
shapes = (
{
closed = 1;
nodes = (
(145,-34,o),
(177,187,o),
(177,337,cs),
(177,487,o),
(146,697,o),
(78,840,cs),
(67,863,o),
(33,850,o),
(44,823,cs),
(101,684,o),
(133,478,o),
(133,337,cs),
(133,196,o),
(103,-19,o),
(44,-157,cs),
(32,-185,o),
(68,-195,o),
(78,-174,cs)
);
}
);
width = 281;
},
{
background = {
shapes = (
{
closed = 1;
nodes = (
(295,-56,o),
(338,100,o),
(338,263,cs),
(338,426,o),
(295,582,o),
(169,726,c),
(35,670,l),
(94,507,o),
(114,405,o),
(114,263,cs),
(114,121,o),
(94,19,o),
(35,-144,c),
(169,-200,l)
);
}
);
};
layerId = "4121B50C-FD42-45C5-8FBE-41E76D98F91E";
shapes = (
{
closed = 1;
nodes = (
(305,-22,o),
(344,192,o),
(344,337,cs),
(344,482,o),
(304,685,o),
(209,815,cs),
(157,886,o),
(23,851,o),
(63,728,cs),
(102,609,o),
(121,455,o),
(121,337,cs),
(121,219,o),
(101,55,o),
(63,-64,cs),
(23,-189,o),
(158,-220,o),
(209,-151,cs)
);
}
);
width = 434;
},
{
background = {
shapes = (
{
closed = 1;
nodes = (
(112,-34,o),
(185,191,o),
(185,424,cs),
(185,520,o),
(170,617,o),
(145,716,c),
(110,704,l),
(130,609,o),
(141,514,o),
(141,426,cs),
(141,198,o),
(74,-1,o),
(-31,-173,c),
(2,-190,l)
);
}
);
};
layerId = "D8D4984A-F5A5-43C0-BF2B-5708C10C5E92";
shapes = (
{
closed = 1;
nodes = (
(120,-11,o),
(185,271,o),
(185,496,cs),
(185,584,o),
(171,742,o),
(151,832,cs),
(144,863,o),
(109,854,o),
(114,827,cs),
(130,738,o),
(141,580,o),
(141,498,cs),
(141,279,o),
(80,14,o),
(-19,-153,cs),
(-35,-180,o),
(-2,-197,o),
(13,-174,cs)
);
}
);
width = 281;
},
{
background = {
shapes = (
{
closed = 1;
nodes = (
(247,-66,o),
(350,135,o),
(350,350,cs),
(350,473,o),
(319,608,o),
(249,726,c),
(108,670,l),
(119,567,o),
(126,507,o),
(126,430,cs),
(126,205,o),
(69,46,o),
(-29,-136,c),
(108,-200,l)
);
}
);
};
layerId = "C92D7C27-2246-4784-91DF-7F4E0C5E615D";
shapes = (
{
closed = 1;
nodes = (
(271,-16,o),
(350,236,o),
(350,425,cs),
(350,519,o),
(332,686,o),
(285,798,cs),
(248,886,o),
(101,864,o),
(116,735,cs),
(123,675,o),
(126,561,o),
(126,505,cs),
(126,322,o),
(90,104,o),
(7,-66,cs),
(-42,-167,o),
(89,-225,o),
(157,-147,cs)
);
}
);
width = 434;
},
{
background = {
shapes = (
{
closed = 1;
nodes = (
(219,-49,o),
(258,104,o),
(258,263,cs),
(258,422,o),
(219,574,o),
(120,721,c),
(35,687,l),
(97,532,o),
(124,407,o),
(124,263,cs),
(124,119,o),
(97,-6,o),
(35,-161,c),
(120,-195,l)
);
}
);
};
layerId = "18203F29-5161-4D9B-8394-C173CC5E27D4";
shapes = (
{
closed = 1;
nodes = (
(222,-33,o),
(258,189,o),
(258,337,cs),
(258,485,o),
(222,695,o),
(141,825,cs),
(112,872,o),
(28,848,o),
(54,773,cs),
(99,643,o),
(124,467,o),
(124,337,cs),
(124,207,o),
(103,18,o),
(54,-111,cs),
(26,-185,o),
(112,-210,o),
(141,-163,cs)
);
}
);
width = 358;
},
{
background = {
shapes = (
{
closed = 1;
nodes = (
(180,-50,o),
(268,163,o),
(268,387,cs),
(268,497,o),
(245,613,o),
(197,721,c),
(109,687,l),
(125,588,o),
(134,511,o),
(134,428,cs),
(134,202,o),
(72,23,o),
(-30,-155,c),
(55,-195,l)
);
}
);
};
layerId = "8FF16B21-C988-4EC9-A448-39B9B4A4BD78";
shapes = (
{
closed = 1;
nodes = (
(191,-19,o),
(268,254,o),
(268,461,cs),
(268,552,o),
(252,711,o),
(218,812,cs),
(198,872,o),
(103,856,o),
(115,778,cs),
(127,703,o),
(136,571,o),
(136,502,cs),
(136,301,o),
(85,60,o),
(-5,-110,cs),
(-38,-173,o),
(46,-210,o),
(85,-158,cs)
);
}
);
width = 358;
}
);
unicode = 41;
}
{
color = 6;
glyphname = plus;
layers = (
{
background = {
shapes = (
{
closed = 1;
nodes = (
(320,40,l),
(320,267,l),
(544,267,l),
(544,306,l),
(320,306,l),
(320,528,l),
(280,528,l),
(280,306,l),
(56,306,l),
(56,267,l),
(280,267,l),
(280,40,l)
);
}
);
};
layerId = "F1F93986-3ED8-4AAE-84C4-CA3EEECDDFA0";
shapes = (
{
closed = 1;
nodes = (
(313,90,o),
(320,98,o),
(320,111,cs),
(320,323,l),
(529,323,ls),
(542,323,o),
(550,330,o),
(550,343,cs),
(550,355,o),
(542,362,o),
(529,362,cs),
(320,362,l),
(320,569,ls),
(320,582,o),
(313,590,o),
(300,590,cs),
(287,590,o),
(280,582,o),
(280,569,cs),
(280,362,l),
(71,362,ls),
(58,362,o),
(50,355,o),
(50,343,cs),
(50,331,o),
(58,323,o),
(71,323,cs),
(280,323,l),
(280,111,ls),
(280,98,o),
(287,90,o),
(300,90,cs)
);
}
);
width = 600;
},
{
background = {
shapes = (
{
closed = 1;
nodes = (
(371,40,l),
(371,219,l),
(544,219,l),
(544,355,l),
(371,355,l),
(371,528,l),
(229,528,l),
(229,355,l),
(56,355,l),
(56,219,l),
(229,219,l),
(229,40,l)
);
}
);
};
layerId = "4121B50C-FD42-45C5-8FBE-41E76D98F91E";
shapes = (
{
closed = 1;
nodes = (
(346,80,o),
(377,112,o),
(377,158,cs),
(377,269,l),
(485,269,ls),
(529,269,o),
(560,299,o),
(560,343,cs),
(560,387,o),
(529,417,o),
(485,417,cs),
(377,417,l),
(377,522,ls),
(377,568,o),
(346,600,o),
(300,600,cs),
(254,600,o),
(223,568,o),
(223,522,cs),
(223,417,l),
(115,417,ls),
(71,417,o),
(40,387,o),
(40,343,cs),
(40,299,o),
(71,269,o),
(115,269,cs),
(223,269,l),
(223,158,ls),
(223,112,o),
(254,80,o),
(300,80,cs)
);
}
);
width = 600;
},
{
background = {
shapes = (
{
closed = 1;
nodes = (
(288,40,l),
(324,267,l),
(548,267,l),
(554,306,l),
(330,306,l),
(365,528,l),
(325,528,l),
(290,306,l),
(66,306,l),
(60,267,l),
(284,267,l),
(248,40,l)
);
}
);
};
layerId = "D8D4984A-F5A5-43C0-BF2B-5708C10C5E92";
shapes = (
{
closed = 1;
nodes = (
(291,90,o),
(297,99,o),
(299,112,cs),
(332,323,l),
(541,323,ls),
(556,323,o),
(565,331,o),
(565,346,cs),
(565,357,o),
(557,362,o),
(543,362,cs),
(338,362,l),
(370,564,ls),
(373,580,o),
(367,590,o),
(353,590,cs),
(338,590,o),
(332,581,o),
(330,568,cs),
(298,362,l),
(89,362,ls),
(74,362,o),
(65,354,o),
(65,339,cs),
(65,328,o),
(73,323,o),
(87,323,cs),
(292,323,l),
(259,116,ls),
(256,100,o),
(262,90,o),
(276,90,cs)
);
}
);
width = 600;
},
{
background = {
shapes = (
{
closed = 1;
nodes = (
(338,40,l),
(366,219,l),
(539,219,l),
(561,355,l),
(388,355,l),
(415,528,l),
(273,528,l),
(246,355,l),
(73,355,l),
(51,219,l),
(224,219,l),
(196,40,l)
);
}
);
};
layerId = "C92D7C27-2246-4784-91DF-7F4E0C5E615D";
shapes = (
{
closed = 1;
nodes = (
(322,80,o),
(355,107,o),
(362,153,cs),
(380,269,l),
(488,269,ls),
(539,269,o),
(575,306,o),
(575,354,cs),
(575,389,o),
(546,417,o),
(499,417,cs),
(404,417,l),
(419,515,ls),
(427,566,o),
(398,600,o),
(351,600,cs),
(307,600,o),
(274,573,o),
(267,527,cs),
(250,417,l),
(142,417,ls),
(91,417,o),
(55,380,o),
(55,332,cs),
(55,297,o),
(84,269,o),
(131,269,cs),
(226,269,l),
(210,165,ls),
(202,114,o),
(231,80,o),
(278,80,cs)
);
}
);
width = 600;
},
{
background = {
shapes = (
{
closed = 1;
nodes = (
(346,40,l),
(346,243,l),
(544,243,l),
(544,331,l),
(346,331,l),
(346,528,l),
(254,528,l),
(254,331,l),
(56,331,l),
(56,243,l),
(254,243,l),
(254,40,l)
);
}
);
};
layerId = "18203F29-5161-4D9B-8394-C173CC5E27D4";
shapes = (
{
closed = 1;
nodes = (
(330,82,o),
(352,105,o),
(352,135,cs),
(352,293,l),
(507,293,ls),
(536,293,o),
(558,315,o),
(558,343,cs),
(558,371,o),
(536,393,o),
(507,393,cs),
(352,393,l),
(352,546,ls),
(352,575,o),
(330,598,o),
(300,598,cs),
(270,598,o),
(248,575,o),
(248,546,cs),
(248,393,l),
(93,393,ls),
(65,393,o),
(42,371,o),
(42,343,cs),
(42,315,o),
(65,293,o),
(93,293,cs),
(248,293,l),
(248,135,ls),
(248,105,o),
(270,82,o),
(300,82,cs)
);
}
);
width = 600;
},
{
background = {
shapes = (
{
closed = 1;
nodes = (
(313,40,l),
(345,243,l),
(544,243,l),
(558,331,l),
(359,331,l),
(390,528,l),
(299,528,l),
(268,331,l),
(70,331,l),
(56,243,l),
(254,243,l),
(222,40,l)
);
}
);
};
layerId = "8FF16B21-C988-4EC9-A448-39B9B4A4BD78";
shapes = (
{
closed = 1;
nodes = (
(308,85,o),
(329,103,o),
(334,133,cs),
(359,293,l),
(515,293,ls),
(548,293,o),
(574,318,o),
(574,350,cs),
(574,373,o),
(553,393,o),
(522,393,cs),
(375,393,l),
(398,540,ls),
(403,573,o),
(383,598,o),
(352,598,cs),
(323,598,o),
(301,577,o),
(296,548,cs),
(272,393,l),
(117,393,ls),
(84,393,o),
(58,368,o),
(58,336,cs),
(58,313,o),
(79,293,o),
(109,293,cs),
(256,293,l),
(232,141,ls),
(227,107,o),
(248,85,o),
(278,85,cs)
);
}
);
width = 600;
}
);
unicode = 43;
}
{
color = 6;
glyphname = comma;
kernLeft = period;
kernRight = period;
layers = (
{
background = {
shapes = (
{
closed = 1;
nodes = (
(130,-65,o),
(140,-27,o),
(140,15,cs),
(140,70,l),
(71,70,l),
(71,0,l),
(113,0,l),
(103,6,l),
(103,-20,o),
(99,-46,o),
(70,-78,c),
(96,-98,l)
);
}
);
};
layerId = "F1F93986-3ED8-4AAE-84C4-CA3EEECDDFA0";
shapes = (
{
closed = 1;
nodes = (
(131,-56,o),
(142,-9,o),
(142,25,cs),
(142,57,o),
(127,73,o),
(104,73,cs),
(83,73,o),
(68,57,o),
(68,35,cs),
(68,13,o),
(84,-3,o),
(108,-3,c),
(105,6,l),
(105,-15,o),
(98,-41,o),
(82,-64,cs),
(63,-90,o),
(89,-109,o),
(108,-85,cs)
);
}
);
width = 211;
},
{
background = {
shapes = (
{
closed = 1;
nodes = (
(218,-84,o),
(248,-14,o),
(248,79,cs),
(248,207,l),
(37,207,l),
(37,0,l),
(183,0,l),
(139,51,l),
(139,-7,o),
(114,-52,o),
(58,-107,c),
(134,-168,l)
);
}
);
};
layerId = "4121B50C-FD42-45C5-8FBE-41E76D98F91E";
shapes = (
{
closed = 1;
nodes = (
(244,-41,o),
(255,17,o),
(255,79,cs),
(255,163,o),
(213,213,o),
(143,213,cs),
(73,213,o),
(31,169,o),
(31,104,cs),
(31,36,o),
(77,-6,o),
(147,-6,c),
(141,51,l),
(141,19,o),
(132,-25,o),
(95,-68,cs),
(41,-133,o),
(122,-191,o),
(173,-128,cs)
);
}
);
width = 285;
},
{
background = {
shapes = (
{
closed = 1;
nodes = (
(86,-65,o),
(96,-34,o),
(103,9,cs),
(113,70,l),
(44,70,l),
(33,0,l),
(84,0,l),
(66,6,l),
(62,-20,o),
(57,-42,o),
(24,-74,c),
(47,-98,l)
);
}
);
};
layerId = "D8D4984A-F5A5-43C0-BF2B-5708C10C5E92";
shapes = (
{
closed = 1;
nodes = (
(88,-58,o),
(108,-14,o),
(108,28,cs),
(108,57,o),
(95,73,o),
(72,73,cs),
(51,73,o),
(36,57,o),
(36,35,cs),
(36,13,o),
(52,-3,o),
(76,-3,c),
(71,6,l),
(67,-20,o),
(57,-38,o),
(36,-61,cs),
(16,-83,o),
(39,-107,o),
(60,-86,cs)
);
}
);
width = 211;
},
{
background = {
shapes = (
{
closed = 1;
nodes = (
(172,-93,o),
(204,-30,o),
(219,63,cs),
(242,207,l),
(31,207,l),
(-2,0,l),
(144,0,l),
(108,51,l),
(95,-12,o),
(69,-46,o),
(9,-96,c),
(75,-167,l)
);
}
);
};
layerId = "C92D7C27-2246-4784-91DF-7F4E0C5E615D";
shapes = (
{
closed = 1;
nodes = (
(197,-56,o),
(228,7,o),
(228,97,cs),
(228,163,o),
(191,213,o),
(121,213,cs),
(51,213,o),
(9,169,o),
(9,104,cs),
(9,36,o),
(55,-6,o),
(125,-6,c),
(115,51,l),
(107,9,o),
(91,-23,o),
(44,-66,cs),
(-15,-120,o),
(58,-186,o),
(117,-131,cs)
);
}
);
width = 285;
},
{
background = {
shapes = (
{
closed = 1;
nodes = (
(174,-75,o),
(194,-21,o),
(194,47,cs),
(194,139,l),
(54,139,l),
(54,0,l),
(148,0,l),
(121,29,l),
(121,-14,o),
(107,-49,o),
(64,-93,c),
(115,-133,l)
);
}
);
};
layerId = "18203F29-5161-4D9B-8394-C173CC5E27D4";
shapes = (
{
closed = 1;
nodes = (
(188,-49,o),
(199,4,o),
(199,52,cs),
(199,110,o),
(170,143,o),
(124,143,cs),
(78,143,o),
(50,113,o),
(50,70,cs),
(50,25,o),
(81,-5,o),
(128,-5,c),
(123,29,l),
(123,2,o),
(115,-33,o),
(89,-66,cs),
(52,-112,o),
(106,-150,o),
(141,-107,cs)
);
}
);
width = 248;
},
{
background = {
shapes = (
{
closed = 1;
nodes = (
(128,-79,o),
(150,-32,o),
(161,36,cs),
(177,139,l),
(37,139,l),
(15,0,l),
(113,0,l),
(86,29,l),
(78,-16,o),
(62,-44,o),
(16,-85,c),
(60,-133,l)
);
}
);
};
layerId = "8FF16B21-C988-4EC9-A448-39B9B4A4BD78";
shapes = (
{
closed = 1;
nodes = (
(143,-57,o),
(168,-4,o),
(168,63,cs),
(168,110,o),
(143,143,o),
(97,143,cs),
(51,143,o),
(23,113,o),
(23,70,cs),
(23,25,o),
(54,-5,o),
(101,-5,c),
(93,29,l),
(87,-6,o),
(74,-31,o),
(40,-64,cs),
(1,-102,o),
(49,-147,o),
(89,-109,cs)
);
}
);
width = 248;
}
);
unicode = 44;
}
{
color = 6;
glyphname = slash;
kernLeft = slash;
kernRight = slash;
layers = (
{
background = {
shapes = (
{
closed = 1;
nodes = (
(274,733,l),
(236,744,l),
(-18,-44,l),
(20,-55,l)
);
}
);
};
layerId = "F1F93986-3ED8-4AAE-84C4-CA3EEECDDFA0";
shapes = (
{
closed = 1;
nodes = (
(269,717,ls),
(277,743,o),
(240,755,o),
(231,728,cs),
(-13,-28,ls),
(-21,-54,o),
(16,-66,o),
(25,-39,cs)
);
}
);
width = 256;
},
{
background = {
shapes = (
{
closed = 1;
nodes = (
(391,731,l),
(241,775,l),
(-21,-43,l),
(129,-87,l)
);
}
);
};
layerId = "4121B50C-FD42-45C5-8FBE-41E76D98F91E";
shapes = (
{
closed = 1;
nodes = (
(368,660,ls),
(401,765,o),
(250,806,o),
(218,706,cs),
(2,28,ls),
(-31,-77,o),
(120,-118,o),
(152,-18,cs)
);
}
);
width = 370;
},
{
background = {
shapes = (
{
closed = 1;
nodes = (
(349,727,l),
(314,746,l),
(-62,-39,l),
(-28,-58,l)
);
}
);
};
layerId = "D8D4984A-F5A5-43C0-BF2B-5708C10C5E92";
shapes = (
{
closed = 1;
nodes = (
(342,712,ls),
(355,738,o),
(318,756,o),
(306,730,cs),
(-55,-24,ls),
(-66,-47,o),
(-33,-69,o),
(-19,-40,cs)
);
}
);
width = 256;
},
{
background = {
shapes = (
{
closed = 1;
nodes = (
(462,715,l),
(324,775,l),
(-64,-27,l),
(74,-87,l)
);
}
);
};
layerId = "C92D7C27-2246-4784-91DF-7F4E0C5E615D";
shapes = (
{
closed = 1;
nodes = (
(430,650,ls),
(476,746,o),
(338,804,o),
(294,713,cs),
(-32,38,ls),
(-78,-58,o),
(60,-116,o),
(104,-25,cs)
);
}
);
width = 370;
},
{
background = {
shapes = (
{
closed = 1;
nodes = (
(333,732,l),
(239,760,l),
(-20,-43,l),
(74,-71,l)
);
}
);
};
layerId = "18203F29-5161-4D9B-8394-C173CC5E27D4";
shapes = (
{
closed = 1;
nodes = (
(319,689,ls),
(340,754,o),
(246,781,o),
(225,717,cs),
(-6,0,ls),
(-27,-66,o),
(68,-92,o),
(88,-29,cs)
);
}
);
width = 313;
},
{
background = {
shapes = (
{
closed = 1;
nodes = (
(406,721,l),
(319,761,l),
(-63,-33,l),
(23,-73,l)
);
}
);
};
layerId = "8FF16B21-C988-4EC9-A448-39B9B4A4BD78";
shapes = (
{
closed = 1;
nodes = (
(386,681,ls),
(415,742,o),
(328,780,o),
(300,722,cs),
(-43,8,ls),
(-72,-52,o),
(13,-93,o),
(42,-33,cs)
);
}
);
width = 313;
}
);
unicode = 47;
}
{
color = 6;
glyphname = three;
layers = (
{
background = {
shapes = (
{
closed = 1;
nodes = (
(418,-8,o),
(502,68,o),
(502,188,cs),
(502,284,o),
(446,350,o),
(347,368,c),
(347,358,l),
(431,380,o),
(483,449,o),
(483,537,cs),
(483,647,o),
(407,713,o),
(279,713,cs),
(193,713,o),
(110,678,o),
(60,620,c),
(80,584,l),
(137,644,o),
(201,672,o),
(279,672,cs),
(381,672,o),
(439,623,o),
(439,537,cs),
(439,439,o),
(373,378,o),
(270,378,cs),
(176,378,l),
(176,339,l),
(272,339,ls),
(393,339,o),
(458,287,o),
(458,188,cs),
(458,88,o),
(395,33,o),
(281,33,cs),
(201,33,o),
(135,57,o),
(68,115,c),
(48,79,l),
(107,22,o),
(191,-8,o),
(281,-8,cs)
);
}
);
};
layerId = "F1F93986-3ED8-4AAE-84C4-CA3EEECDDFA0";
shapes = (
{
closed = 1;
nodes = (
(418,-8,o),
(502,68,o),
(502,188,cs),
(502,284,o),
(446,333,o),
(347,351,c),
(347,341,l),
(431,363,o),
(483,397,o),
(483,502,cs),
(483,612,o),
(407,678,o),
(279,678,cs),
(200,678,o),
(121,648,o),
(71,596,cs),
(47,572,o),
(72,540,o),
(96,564,cs),
(147,614,o),
(209,637,o),
(279,637,cs),
(381,637,o),
(439,588,o),
(439,502,cs),
(439,387,o),
(373,361,o),
(270,361,cs),
(194,361,ls),
(180,361,o),
(172,354,o),
(172,342,cs),
(172,330,o),
(180,322,o),
(194,322,cs),
(272,322,ls),
(393,322,o),
(458,270,o),
(458,188,cs),
(458,88,o),
(395,33,o),
(281,33,cs),
(209,33,o),
(144,54,o),
(83,102,cs),
(57,122,o),
(39,87,o),
(59,69,cs),
(116,18,o),
(198,-8,o),
(281,-8,cs)
);
}
);
width = 554;
},
{
background = {
shapes = (
{
closed = 1;
nodes = (
(454,-12,o),
(563,67,o),
(563,198,cs),
(563,292,o),
(507,359,o),
(415,374,c),
(415,359,l),
(493,378,o),
(541,439,o),
(541,518,cs),
(541,643,o),
(444,717,o),
(280,717,cs),
(184,717,o),
(90,689,o),
(27,642,c),
(92,486,l),
(142,523,o),
(197,542,o),
(258,542,cs),
(310,542,o),
(337,524,o),
(337,489,cs),
(337,455,o),
(308,438,o),
(262,438,cs),
(154,438,l),
(154,270,l),
(283,270,ls),
(333,270,o),
(359,255,o),
(359,219,cs),
(359,181,o),
(329,163,o),
(267,163,cs),
(201,163,o),
(136,183,o),
(80,220,c),
(16,61,l),
(70,17,o),
(173,-12,o),
(275,-12,cs)
);
}
);
};
layerId = "4121B50C-FD42-45C5-8FBE-41E76D98F91E";
shapes = (
{
closed = 1;
nodes = (
(454,-12,o),
(563,67,o),
(563,198,cs),
(563,292,o),
(507,342,o),
(415,357,c),
(415,342,l),
(493,361,o),
(541,404,o),
(541,483,cs),
(541,608,o),
(444,682,o),
(280,682,cs),
(217,682,o),
(150,669,o),
(96,646,cs),
(-13,600,o),
(50,449,o),
(151,486,cs),
(192,501,o),
(229,507,o),
(258,507,cs),
(310,507,o),
(337,489,o),
(337,454,cs),
(337,420,o),
(308,421,o),
(262,421,cs),
(235,421,ls),
(176,421,o),
(144,391,o),
(144,337,cs),
(144,283,o),
(176,253,o),
(235,253,cs),
(283,253,ls),
(333,253,o),
(359,255,o),
(359,219,cs),
(359,181,o),
(329,163,o),
(267,163,cs),
(232,163,o),
(197,168,o),
(151,185,cs),
(37,228,o),
(-28,66,o),
(98,17,cs),
(143,0,o),
(208,-12,o),
(275,-12,cs)
);
}
);
width = 600;
},
{
background = {
shapes = (
{
closed = 1;
nodes = (
(380,-8,o),
(484,75,o),
(484,204,cs),
(484,281,o),
(439,343,o),
(354,363,c),
(353,353,l),
(450,371,o),
(520,449,o),
(520,547,cs),
(520,643,o),
(447,713,o),
(336,713,cs),
(252,713,o),
(167,681,o),
(110,620,c),
(129,585,l),
(189,645,o),
(262,672,o),
(335,672,cs),
(420,672,o),
(476,621,o),
(476,546,cs),
(476,443,o),
(391,378,o),
(287,378,cs),
(196,378,l),
(190,339,l),
(283,339,ls),
(383,339,o),
(440,284,o),
(440,204,cs),
(440,98,o),
(360,33,o),
(258,33,cs),
(178,33,o),
(115,48,o),
(44,114,c),
(21,80,l),
(87,13,o),
(175,-8,o),
(258,-8,cs)
);
}
);
};
layerId = "D8D4984A-F5A5-43C0-BF2B-5708C10C5E92";
shapes = (
{
closed = 1;
nodes = (
(380,-8,o),
(484,75,o),
(484,204,cs),
(484,281,o),
(439,326,o),
(354,346,c),
(353,336,l),
(450,354,o),
(520,414,o),
(520,512,cs),
(520,608,o),
(447,678,o),
(336,678,cs),
(259,678,o),
(175,653,o),
(121,595,cs),
(100,572,o),
(127,545,o),
(148,566,cs),
(199,619,o),
(270,637,o),
(335,637,cs),
(420,637,o),
(476,586,o),
(476,511,cs),
(476,408,o),
(391,361,o),
(287,361,cs),
(211,361,ls),
(197,361,o),
(187,353,o),
(187,339,cs),
(187,328,o),
(195,322,o),
(209,322,cs),
(283,322,ls),
(383,322,o),
(440,284,o),
(440,204,cs),
(440,98,o),
(360,33,o),
(258,33,cs),
(185,33,o),
(134,44,o),
(76,102,cs),
(52,127,o),
(26,96,o),
(47,73,cs),
(105,11,o),
(181,-8,o),
(258,-8,cs)
);
}
);
width = 579;
},
{
background = {
shapes = (
{
closed = 1;
nodes = (
(464,-12,o),
(559,97,o),
(559,206,cs),
(559,291,o),
(510,354,o),
(423,371,c),
(423,356,l),
(521,374,o),
(590,437,o),
(588,530,cs),
(586,623,o),
(518,717,o),
(344,717,cs),
(255,717,o),
(153,692,o),
(75,644,c),
(135,486,l),
(191,523,o),
(254,542,o),
(312,542,cs),
(354,542,o),
(384,526,o),
(384,494,cs),
(384,455,o),
(350,438,o),
(298,438,cs),
(186,438,l),
(160,270,l),
(286,270,ls),
(333,270,o),
(354,254,o),
(354,222,cs),
(354,182,o),
(320,163,o),
(273,163,cs),
(202,163,o),
(138,179,o),
(84,218,c),
(5,68,l),
(65,13,o),
(177,-12,o),
(273,-12,cs)
);
}
);
};
layerId = "C92D7C27-2246-4784-91DF-7F4E0C5E615D";
shapes = (
{
closed = 1;
nodes = (
(464,-12,o),
(559,97,o),
(559,206,cs),
(559,291,o),
(510,337,o),
(423,354,c),
(423,339,l),
(521,357,o),
(590,402,o),
(588,495,cs),
(586,588,o),
(518,682,o),
(344,682,cs),
(284,682,o),
(218,672,o),
(148,643,cs),
(32,595,o),
(98,439,o),
(204,484,cs),
(242,500,o),
(283,507,o),
(312,507,cs),
(354,507,o),
(384,491,o),
(384,459,cs),
(384,420,o),
(350,421,o),
(298,421,cs),
(265,421,ls),
(202,421,o),
(162,384,o),
(162,326,cs),
(162,277,o),
(195,253,o),
(254,253,cs),
(286,253,ls),
(333,253,o),
(354,254,o),
(354,222,cs),
(354,182,o),
(320,163,o),
(273,163,cs),
(236,163,o),
(178,169,o),
(133,192,cs),
(39,240,o),
(-27,74,o),
(78,26,cs),
(141,-3,o),
(213,-12,o),
(273,-12,cs)
);
}
);
width = 600;
},
{
background = {
shapes = (
{
closed = 1;
nodes = (
(424,-10,o),
(521,68,o),
(521,193,cs),
(521,288,o),
(465,355,o),
(369,371,c),
(369,359,l),
(450,379,o),
(500,444,o),
(500,528,cs),
(500,645,o),
(414,715,o),
(268,715,cs),
(177,715,o),
(88,684,o),
(32,631,c),
(74,535,l),
(128,584,o),
(187,607,o),
(257,607,cs),
(334,607,o),
(376,574,o),
(376,513,cs),
(376,447,o),
(329,409,o),
(254,409,cs),
(153,409,l),
(153,303,l),
(266,303,ls),
(351,303,o),
(397,271,o),
(397,204,cs),
(397,135,o),
(350,98,o),
(262,98,cs),
(189,98,o),
(124,120,o),
(62,168,c),
(20,70,l),
(77,20,o),
(170,-10,o),
(266,-10,cs)
);
}
);
};
layerId = "18203F29-5161-4D9B-8394-C173CC5E27D4";
shapes = (
{
closed = 1;
nodes = (
(424,-10,o),
(521,68,o),
(521,193,cs),
(521,271,o),
(465,338,o),
(369,354,c),
(369,342,l),
(450,362,o),
(500,401,o),
(500,493,cs),
(500,610,o),
(414,680,o),
(268,680,cs),
(194,680,o),
(125,662,o),
(72,620,cs),
(12,574,o),
(72,491,o),
(129,534,cs),
(179,569,o),
(226,576,o),
(257,576,cs),
(334,576,o),
(379,539,o),
(379,478,cs),
(379,401,o),
(329,392,o),
(254,392,cs),
(202,392,ls),
(165,392,o),
(145,372,o),
(145,339,cs),
(145,306,o),
(165,286,o),
(202,286,cs),
(266,286,ls),
(351,286,o),
(397,254,o),
(397,204,cs),
(397,135,o),
(350,98,o),
(262,98,cs),
(209,98,o),
(173,101,o),
(120,135,cs),
(54,179,o),
(-1,97,o),
(61,47,cs),
(114,4,o),
(194,-10,o),
(266,-10,cs)
);
}
);
width = 580;
},
{
background = {
shapes = (
{
closed = 1;
nodes = (
(433,-10,o),
(532,86,o),
(532,205,cs),
(532,286,o),
(485,349,o),
(399,367,c),
(399,355,l),
(496,373,o),
(566,443,o),
(565,539,cs),
(564,633,o),
(493,715,o),
(351,715,cs),
(264,715,o),
(171,687,o),
(103,632,c),
(143,536,l),
(201,584,o),
(269,607,o),
(334,607,cs),
(398,607,o),
(441,574,o),
(441,520,cs),
(441,449,o),
(381,409,o),
(303,409,cs),
(202,409,l),
(186,303,l),
(295,303,ls),
(369,303,o),
(408,269,o),
(408,213,cs),
(408,140,o),
(351,98,o),
(276,98,cs),
(201,98,o),
(137,114,o),
(75,166,c),
(24,74,l),
(87,13,o),
(187,-10,o),
(276,-10,cs)
);
}
);
};
layerId = "8FF16B21-C988-4EC9-A448-39B9B4A4BD78";
shapes = (
{
closed = 1;
nodes = (
(433,-10,o),
(532,86,o),
(532,205,cs),
(532,286,o),
(485,332,o),
(399,350,c),
(399,338,l),
(496,356,o),
(566,408,o),
(565,504,cs),
(564,598,o),
(493,680,o),
(351,680,cs),
(282,680,o),
(201,667,o),
(140,619,cs),
(79,572,o),
(136,490,o),
(195,534,cs),
(243,568,o),
(287,572,o),
(334,572,cs),
(398,572,o),
(441,539,o),
(441,485,cs),
(441,414,o),
(381,392,o),
(303,392,cs),
(249,392,ls),
(210,392,o),
(185,369,o),
(185,333,cs),
(185,303,o),
(206,286,o),
(242,286,cs),
(295,286,ls),
(369,286,o),
(408,269,o),
(408,213,cs),
(408,140,o),
(351,98,o),
(276,98,cs),
(234,98,o),
(176,101,o),
(125,139,cs),
(70,180,o),
(9,91,o),
(68,48,cs),
(130,2,o),
(208,-10,o),
(276,-10,cs)
);
}
);
width = 600;
}
);
unicode = 51;
userData = {
com.typemytype.robofont.layerData = {
b = {
anchors = (
);
components = (
);
contours = (
);
lib = {
};
name = three;
unicodes = (
);
width = 1160;
};
};
};
}
{
color = 6;
glyphname = nine;
layers = (
{
background = {
shapes = (
{
closed = 1;
nodes = (
(426,-8,o),
(526,127,o),
(526,374,cs),
(526,588,o),
(437,713,o),
(277,713,cs),
(151,713,o),
(61,620,o),
(61,491,cs),
(61,362,o),
(149,271,o),
(277,271,cs),
(392,271,o),
(479,350,o),
(489,475,c),
(483,475,l),
(483,365,ls),
(483,145,o),
(401,33,o),
(258,33,cs),
(195,33,o),
(133,61,o),
(84,118,c),
(64,82,l),
(107,28,o),
(187,-8,o),
(257,-8,cs)
);
},
{
closed = 1;
nodes = (
(177,312,o),
(105,386,o),
(105,492,cs),
(105,598,o),
(177,672,o),
(281,672,cs),
(385,672,o),
(457,598,o),
(457,492,cs),
(457,386,o),
(385,312,o),
(281,312,cs)
);
}
);
};
layerId = "F1F93986-3ED8-4AAE-84C4-CA3EEECDDFA0";
shapes = (
{
closed = 1;
nodes = (
(426,-8,o),
(526,110,o),
(526,357,cs),
(526,571,o),
(437,678,o),
(277,678,cs),
(138,678,o),
(61,568,o),
(61,474,cs),
(61,345,o),
(149,254,o),
(277,254,cs),
(392,254,o),
(479,333,o),
(489,458,c),
(483,458,l),
(483,348,ls),
(483,128,o),
(401,33,o),
(258,33,cs),
(202,33,o),
(144,56,o),
(99,105,cs),
(76,130,o),
(53,96,o),
(71,76,cs),
(118,23,o),
(193,-8,o),
(257,-8,cs)
);
},
{
closed = 1;
nodes = (
(177,295,o),
(105,369,o),
(105,475,cs),
(105,581,o),
(191,637,o),
(281,637,cs),
(385,637,o),
(457,581,o),
(457,475,cs),
(457,369,o),
(385,295,o),
(281,295,cs)
);
}
);
width = 590;
},
{
background = {
shapes = (
{
closed = 1;
nodes = (
(453,-12,o),
(579,126,o),
(579,356,cs),
(579,586,o),
(471,717,o),
(280,717,cs),
(133,717,o),
(30,613,o),
(30,467,cs),
(30,334,o),
(119,235,o),
(232,235,cs),
(314,235,o),
(377,280,o),
(396,357,c),
(379,357,l),
(379,317,ls),
(379,215,o),
(335,163,o),
(245,163,cs),
(192,163,o),
(138,180,o),
(90,213,c),
(25,57,l),
(87,11,o),
(164,-12,o),
(243,-12,cs)
);
},
{
closed = 1;
nodes = (
(251,397,o),
(225,428,o),
(225,476,cs),
(225,524,o),
(251,555,o),
(291,555,cs),
(331,555,o),
(357,524,o),
(357,476,cs),
(357,428,o),
(331,397,o),
(291,397,cs)
);
}
);
};
layerId = "4121B50C-FD42-45C5-8FBE-41E76D98F91E";
shapes = (
{
closed = 1;
nodes = (
(453,-12,o),
(579,109,o),
(579,339,cs),
(579,569,o),
(471,682,o),
(280,682,cs),
(133,682,o),
(30,583,o),
(30,437,cs),
(30,339,o),
(119,235,o),
(232,235,cs),
(314,235,o),
(377,280,o),
(396,357,c),
(379,357,l),
(379,317,ls),
(379,215,o),
(335,163,o),
(245,163,cs),
(218,163,o),
(186,168,o),
(150,181,cs),
(40,221,o),
(-7,62,o),
(87,21,cs),
(135,0,o),
(190,-12,o),
(243,-12,cs)
);
},
{
closed = 1;
nodes = (
(251,380,o),
(225,411,o),
(225,459,cs),
(225,507,o),
(251,538,o),
(291,538,cs),
(331,538,o),
(357,507,o),
(357,459,cs),
(357,411,o),
(331,380,o),
(291,380,cs)
);
}
);
width = 609;
},
{
background = {
shapes = (
{
closed = 1;
nodes = (
(448,-8,o),
(550,213,o),
(550,458,cs),
(550,615,o),
(464,713,o),
(332,713,cs),
(200,713,o),
(99,607,o),
(99,468,cs),
(99,356,o),
(182,272,o),
(297,272,cs),
(401,272,o),
(499,345,o),
(519,464,c),
(511,464,l),
(510,438,ls),
(501,192,o),
(398,33,o),
(243,33,cs),
(177,33,o),
(117,60,o),
(68,119,c),
(45,85,l),
(91,27,o),
(166,-8,o),
(238,-8,cs)
);
},
{
closed = 1;
nodes = (
(211,313,o),
(143,377,o),
(143,469,cs),
(143,580,o),
(220,672,o),
(335,672,cs),
(425,672,o),
(493,608,o),
(493,516,cs),
(493,405,o),
(416,313,o),
(301,313,cs)
);
}
);
};
layerId = "D8D4984A-F5A5-43C0-BF2B-5708C10C5E92";
shapes = (
{
closed = 1;
nodes = (
(448,-8,o),
(550,196,o),
(550,441,cs),
(550,598,o),
(464,678,o),
(332,678,cs),
(200,678,o),
(99,590,o),
(99,451,cs),
(99,339,o),
(182,272,o),
(297,272,cs),
(401,272,o),
(499,328,o),
(519,447,c),
(511,447,l),
(510,421,ls),
(501,175,o),
(398,33,o),
(243,33,cs),
(179,33,o),
(122,59,o),
(83,105,cs),
(59,133,o),
(35,100,o),
(53,78,cs),
(95,26,o),
(167,-8,o),
(238,-8,cs)
);
},
{
closed = 1;
nodes = (
(211,313,o),
(143,360,o),
(143,452,cs),
(143,563,o),
(220,637,o),
(335,637,cs),
(425,637,o),
(493,591,o),
(493,499,cs),
(493,388,o),
(416,313,o),
(301,313,cs)
);
}
);
width = 600;
},
{
background = {
shapes = (
{
closed = 1;
nodes = (
(471,-12,o),
(590,173,o),
(590,437,cs),
(590,610,o),
(493,717,o),
(317,717,cs),
(161,717,o),
(57,600,o),
(57,441,cs),
(57,330,o),
(128,235,o),
(237,235,cs),
(311,235,o),
(378,278,o),
(406,350,c),
(391,351,l),
(385,311,ls),
(370,209,o),
(315,162,o),
(240,162,cs),
(189,162,o),
(139,180,o),
(86,214,c),
(6,65,l),
(69,12,o),
(160,-12,o),
(243,-12,cs)
);
},
{
closed = 1;
nodes = (
(276,397,o),
(252,423,o),
(252,462,cs),
(252,520,o),
(281,555,o),
(324,555,cs),
(363,555,o),
(387,529,o),
(387,490,cs),
(387,432,o),
(358,397,o),
(315,397,cs)
);
}
);
};
layerId = "C92D7C27-2246-4784-91DF-7F4E0C5E615D";
shapes = (
{
closed = 1;
nodes = (
(443,-12,o),
(590,114,o),
(590,420,cs),
(590,593,o),
(493,682,o),
(317,682,cs),
(161,682,o),
(57,581,o),
(57,422,cs),
(57,311,o),
(128,235,o),
(237,235,cs),
(311,235,o),
(378,278,o),
(406,350,c),
(391,351,l),
(385,311,ls),
(370,209,o),
(319,162,o),
(234,162,cs),
(208,162,o),
(178,166,o),
(145,181,cs),
(45,209,o),
(-29,79,o),
(68,24,cs),
(116,-3,o),
(170,-12,o),
(224,-12,cs)
);
},
{
closed = 1;
nodes = (
(276,380,o),
(252,406,o),
(252,445,cs),
(252,503,o),
(281,538,o),
(324,538,cs),
(363,538,o),
(387,512,o),
(387,473,cs),
(387,415,o),
(358,380,o),
(315,380,cs)
);
}
);
width = 600;
},
{
background = {
shapes = (
{
closed = 1;
nodes = (
(435,-10,o),
(548,127,o),
(548,365,cs),
(548,587,o),
(450,715,o),
(274,715,cs),
(138,715,o),
(41,617,o),
(41,479,cs),
(41,348,o),
(130,253,o),
(250,253,cs),
(349,253,o),
(424,315,o),
(438,416,c),
(427,416,l),
(427,341,ls),
(427,180,o),
(364,98,o),
(247,98,cs),
(189,98,o),
(131,121,o),
(83,166,c),
(40,70,l),
(93,20,o),
(171,-10,o),
(246,-10,cs)
);
},
{
closed = 1;
nodes = (
(210,355,o),
(161,407,o),
(161,484,cs),
(161,561,o),
(210,614,o),
(282,614,cs),
(354,614,o),
(403,561,o),
(403,484,cs),
(403,407,o),
(354,355,o),
(282,355,cs)
);
}
);
};
layerId = "18203F29-5161-4D9B-8394-C173CC5E27D4";
shapes = (
{
closed = 1;
nodes = (
(435,-10,o),
(548,126,o),
(548,365,cs),
(548,587,o),
(449,680,o),
(274,680,cs),
(137,680,o),
(41,599,o),
(41,462,cs),
(41,331,o),
(129,253,o),
(250,253,cs),
(348,253,o),
(423,315,o),
(438,416,c),
(426,416,l),
(426,341,ls),
(426,180,o),
(363,98,o),
(247,98,cs),
(207,98,o),
(172,96,o),
(132,130,cs),
(76,178,o),
(20,94,o),
(65,50,cs),
(110,6,o),
(187,-10,o),
(245,-10,cs)
);
},
{
closed = 1;
nodes = (
(210,355,o),
(161,387,o),
(161,464,cs),
(161,541,o),
(210,579,o),
(282,579,cs),
(354,579,o),
(403,541,o),
(403,464,cs),
(403,387,o),
(354,355,o),
(282,355,cs)
);
}
);
width = 590;
},
{
background = {
shapes = (
{
closed = 1;
nodes = (
(460,-10,o),
(570,193,o),
(570,448,cs),
(570,613,o),
(479,715,o),
(325,715,cs),
(181,715,o),
(78,604,o),
(78,455,cs),
(78,343,o),
(155,253,o),
(267,253,cs),
(356,253,o),
(449,312,o),
(463,407,c),
(451,408,l),
(448,375,ls),
(436,201,o),
(357,98,o),
(242,98,cs),
(183,98,o),
(128,120,o),
(77,167,c),
(26,75,l),
(80,20,o),
(163,-10,o),
(241,-10,cs)
);
},
{
closed = 1;
nodes = (
(244,355,o),
(198,400,o),
(198,466,cs),
(198,550,o),
(251,614,o),
(330,614,cs),
(394,614,o),
(440,569,o),
(440,503,cs),
(440,419,o),
(387,355,o),
(308,355,cs)
);
}
);
};
layerId = "8FF16B21-C988-4EC9-A448-39B9B4A4BD78";
shapes = (
{
closed = 1;
nodes = (
(452,-10,o),
(570,164,o),
(570,431,cs),
(570,597,o),
(478,680,o),
(324,680,cs),
(180,680,o),
(78,586,o),
(78,437,cs),
(78,326,o),
(155,253,o),
(267,253,cs),
(356,253,o),
(449,294,o),
(463,390,c),
(451,390,l),
(448,355,ls),
(433,181,o),
(356,98,o),
(245,98,cs),
(197,98,o),
(149,112,o),
(109,140,cs),
(51,181,o),
(-6,94,o),
(50,52,cs),
(108,9,o),
(178,-10,o),
(239,-10,cs)
);
},
{
closed = 1;
nodes = (
(243,338,o),
(198,383,o),
(198,448,cs),
(198,533,o),
(250,579,o),
(329,579,cs),
(394,579,o),
(440,551,o),
(440,486,cs),
(440,401,o),
(387,338,o),
(308,338,cs)
);
}
);
width = 600;
}
);
unicode = 57;
userData = {
com.typemytype.robofont.layerData = {
b = {
anchors = (
);
components = (
);
contours = (
);
lib = {
};
name = nine;
unicodes = (
);
width = 1160;
};
};
};
}
{
color = 6;
glyphname = colon;
kernLeft = colon;
kernRight = colon;
layers = (
{
background = {
shapes = (
{
closed = 1;
nodes = (
(140,414,l),
(140,484,l),
(71,484,l),
(71,414,l)
);
},
{
closed = 1;
nodes = (
(140,0,l),
(140,70,l),
(71,70,l),
(71,0,l)
);
}
);
};
layerId = "F1F93986-3ED8-4AAE-84C4-CA3EEECDDFA0";
shapes = (
{
closed = 1;
nodes = (
(128,95,o),
(143,111,o),
(143,133,cs),
(143,155,o),
(128,171,o),
(106,171,cs),
(84,171,o),
(68,155,o),
(68,133,cs),
(68,111,o),
(84,95,o),
(106,95,cs)
);
},
{
closed = 1;
nodes = (
(128,509,o),
(143,525,o),
(143,547,cs),
(143,569,o),
(128,585,o),
(106,585,cs),
(84,585,o),
(68,569,o),
(68,547,cs),
(68,525,o),
(84,509,o),
(106,509,cs)
);
}
);
width = 211;
},
{
background = {
shapes = (
{
closed = 1;
nodes = (
(248,287,l),
(248,494,l),
(37,494,l),
(37,287,l)
);
},
{
closed = 1;
nodes = (
(248,0,l),
(248,207,l),
(37,207,l),
(37,0,l)
);
}
);
};
layerId = "4121B50C-FD42-45C5-8FBE-41E76D98F91E";
shapes = (
{
closed = 1;
nodes = (
(213,87,o),
(254,132,o),
(254,197,cs),
(254,262,o),
(213,306,o),
(143,306,cs),
(73,306,o),
(31,262,o),
(31,197,cs),
(31,132,o),
(73,87,o),
(143,87,cs)
);
},
{
closed = 1;
nodes = (
(213,374,o),
(254,419,o),
(254,484,cs),
(254,549,o),
(213,593,o),
(143,593,cs),
(73,593,o),
(31,549,o),
(31,484,cs),
(31,419,o),
(73,374,o),
(143,374,cs)
);
}
);
width = 285;
},
{
background = {
shapes = (
{
closed = 1;
nodes = (
(168,414,l),
(179,484,l),
(110,484,l),
(99,414,l)
);
},
{
closed = 1;
nodes = (
(102,0,l),
(113,70,l),
(44,70,l),
(33,0,l)
);
}
);
};
layerId = "D8D4984A-F5A5-43C0-BF2B-5708C10C5E92";
shapes = (
{
closed = 1;
nodes = (
(111,95,o),
(126,111,o),
(126,133,cs),
(126,155,o),
(111,171,o),
(89,171,cs),
(67,171,o),
(51,155,o),
(51,133,cs),
(51,111,o),
(67,95,o),
(89,95,cs)
);
},
{
closed = 1;
nodes = (
(176,509,o),
(191,525,o),
(191,547,cs),
(191,569,o),
(176,585,o),
(154,585,cs),
(132,585,o),
(116,569,o),
(116,547,cs),
(116,525,o),
(132,509,o),
(154,509,cs)
);
}
);
width = 211;
},
{
background = {
shapes = (
{
closed = 1;
nodes = (
(254,287,l),
(287,494,l),
(76,494,l),
(43,287,l)
);
},
{
closed = 1;
nodes = (
(209,0,l),
(242,207,l),
(31,207,l),
(-2,0,l)
);
}
);
};
layerId = "C92D7C27-2246-4784-91DF-7F4E0C5E615D";
shapes = (
{
closed = 1;
nodes = (
(205,87,o),
(246,132,o),
(246,197,cs),
(246,262,o),
(205,306,o),
(135,306,cs),
(65,306,o),
(23,262,o),
(23,197,cs),
(23,132,o),
(65,87,o),
(135,87,cs)
);
},
{
closed = 1;
nodes = (
(251,374,o),
(292,419,o),
(292,484,cs),
(292,549,o),
(251,593,o),
(181,593,cs),
(111,593,o),
(69,549,o),
(69,484,cs),
(69,419,o),
(111,374,o),
(181,374,cs)
);
}
);
width = 285;
},
{
background = {
shapes = (
{
closed = 1;
nodes = (
(194,351,l),
(194,489,l),
(54,489,l),
(54,351,l)
);
},
{
closed = 1;
nodes = (
(194,0,l),
(194,139,l),
(54,139,l),
(54,0,l)
);
}
);
};
layerId = "18203F29-5161-4D9B-8394-C173CC5E27D4";
shapes = (
{
closed = 1;
nodes = (
(171,91,o),
(199,122,o),
(199,166,cs),
(199,209,o),
(171,239,o),
(125,239,cs),
(79,239,o),
(50,209,o),
(50,166,cs),
(50,122,o),
(79,91,o),
(125,91,cs)
);
},
{
closed = 1;
nodes = (
(171,442,o),
(199,473,o),
(199,516,cs),
(199,560,o),
(171,590,o),
(125,590,cs),
(79,590,o),
(50,560,o),
(50,516,cs),
(50,473,o),
(79,442,o),
(125,442,cs)
);
}
);
width = 248;
},
{
background = {
shapes = (
{
closed = 1;
nodes = (
(211,351,l),
(233,489,l),
(93,489,l),
(71,351,l)
);
},
{
closed = 1;
nodes = (
(156,0,l),
(178,139,l),
(38,139,l),
(16,0,l)
);
}
);
};
layerId = "8FF16B21-C988-4EC9-A448-39B9B4A4BD78";
shapes = (
{
closed = 1;
nodes = (
(159,91,o),
(187,122,o),
(187,166,cs),
(187,209,o),
(159,239,o),
(113,239,cs),
(67,239,o),
(38,209,o),
(38,166,cs),
(38,122,o),
(67,91,o),
(113,91,cs)
);
},
{
closed = 1;
nodes = (
(215,442,o),
(243,473,o),
(243,516,cs),
(243,560,o),
(215,590,o),
(169,590,cs),
(123,590,o),
(94,560,o),
(94,516,cs),
(94,473,o),
(123,442,o),
(169,442,cs)
);
}
);
width = 248;
}
);
unicode = 58;
}
{
color = 6;
glyphname = semicolon;
kernLeft = colon;
kernRight = colon;
layers = (
{
background = {
shapes = (
{
closed = 1;
nodes = (
(130,-65,o),
(140,-27,o),
(140,15,cs),
(140,70,l),
(71,70,l),
(71,0,l),
(122,0,l),
(103,6,l),
(103,-20,o),
(99,-46,o),
(70,-78,c),
(96,-98,l)
);
},
{
closed = 1;
nodes = (
(140,414,l),
(140,484,l),
(71,484,l),
(71,414,l)
);
}
);
};
layerId = "F1F93986-3ED8-4AAE-84C4-CA3EEECDDFA0";
shapes = (
{
closed = 1;
nodes = (
(131,42,o),
(142,89,o),
(142,123,cs),
(142,155,o),
(127,171,o),
(104,171,cs),
(83,171,o),
(68,155,o),
(68,133,cs),
(68,111,o),
(84,95,o),
(108,95,c),
(105,104,l),
(105,83,o),
(98,57,o),
(82,34,cs),
(63,8,o),
(89,-11,o),
(108,13,cs)
);
},
{
closed = 1;
nodes = (
(128,509,o),
(143,525,o),
(143,547,cs),
(143,569,o),
(128,585,o),
(106,585,cs),
(84,585,o),
(68,569,o),
(68,547,cs),
(68,525,o),
(84,509,o),
(106,509,cs)
);
}
);
width = 211;
},
{
background = {
shapes = (
{
closed = 1;
nodes = (
(218,-84,o),
(248,-14,o),
(248,79,cs),
(248,207,l),
(37,207,l),
(37,0,l),
(183,0,l),
(139,51,l),
(139,-7,o),
(114,-52,o),
(58,-107,c),
(134,-168,l)
);
},
{
closed = 1;
nodes = (
(248,287,l),
(248,494,l),
(37,494,l),
(37,287,l)
);
}
);
};
layerId = "4121B50C-FD42-45C5-8FBE-41E76D98F91E";
shapes = (
{
closed = 1;
nodes = (
(244,49,o),
(255,107,o),
(255,169,cs),
(255,253,o),
(213,303,o),
(143,303,cs),
(73,303,o),
(31,259,o),
(31,194,cs),
(31,126,o),
(77,84,o),
(147,84,c),
(141,141,l),
(141,109,o),
(132,65,o),
(95,22,cs),
(41,-43,o),
(122,-101,o),
(173,-38,cs)
);
},
{
closed = 1;
nodes = (
(213,371,o),
(254,416,o),
(254,481,cs),
(254,546,o),
(213,590,o),
(143,590,cs),
(73,590,o),
(31,546,o),
(31,481,cs),
(31,416,o),
(73,371,o),
(143,371,cs)
);
}
);
width = 285;
},
{
background = {
shapes = (
{
closed = 1;
nodes = (
(85,-65,o),
(95,-34,o),
(102,9,cs),
(112,70,l),
(43,70,l),
(32,0,l),
(83,0,l),
(65,6,l),
(61,-20,o),
(56,-42,o),
(23,-74,c),
(46,-98,l)
);
},
{
closed = 1;
nodes = (
(167,414,l),
(178,484,l),
(109,484,l),
(98,414,l)
);
}
);
};
layerId = "D8D4984A-F5A5-43C0-BF2B-5708C10C5E92";
shapes = (
{
closed = 1;
nodes = (
(104,40,o),
(124,84,o),
(124,126,cs),
(124,155,o),
(111,171,o),
(88,171,cs),
(67,171,o),
(52,155,o),
(52,133,cs),
(52,111,o),
(68,95,o),
(92,95,c),
(87,104,l),
(83,78,o),
(73,60,o),
(52,37,cs),
(32,15,o),
(55,-9,o),
(76,12,cs)
);
},
{
closed = 1;
nodes = (
(177,509,o),
(192,525,o),
(192,547,cs),
(192,569,o),
(177,585,o),
(155,585,cs),
(133,585,o),
(117,569,o),
(117,547,cs),
(117,525,o),
(133,509,o),
(155,509,cs)
);
}
);
width = 211;
},
{
background = {
shapes = (
{
closed = 1;
nodes = (
(172,-93,o),
(204,-30,o),
(219,63,cs),
(242,207,l),
(31,207,l),
(-2,0,l),
(144,0,l),
(108,51,l),
(95,-12,o),
(69,-46,o),
(9,-96,c),
(75,-167,l)
);
},
{
closed = 1;
nodes = (
(254,287,l),
(287,494,l),
(76,494,l),
(43,287,l)
);
}
);
};
layerId = "C92D7C27-2246-4784-91DF-7F4E0C5E615D";
shapes = (
{
closed = 1;
nodes = (
(210,37,o),
(241,100,o),
(241,190,cs),
(241,256,o),
(204,306,o),
(134,306,cs),
(64,306,o),
(22,262,o),
(22,197,cs),
(22,129,o),
(68,87,o),
(138,87,c),
(128,144,l),
(120,102,o),
(104,70,o),
(57,27,cs),
(-2,-27,o),
(71,-93,o),
(130,-38,cs)
);
},
{
closed = 1;
nodes = (
(251,374,o),
(292,419,o),
(292,484,cs),
(292,549,o),
(251,593,o),
(181,593,cs),
(111,593,o),
(69,549,o),
(69,484,cs),
(69,419,o),
(111,374,o),
(181,374,cs)
);
}
);
width = 285;
},
{
background = {
shapes = (
{
closed = 1;
nodes = (
(174,-75,o),
(194,-21,o),
(194,47,cs),
(194,139,l),
(54,139,l),
(54,0,l),
(153,0,l),
(121,29,l),
(121,-14,o),
(107,-49,o),
(64,-93,c),
(115,-133,l)
);
},
{
closed = 1;
nodes = (
(194,351,l),
(194,489,l),
(54,489,l),
(54,351,l)
);
}
);
};
layerId = "18203F29-5161-4D9B-8394-C173CC5E27D4";
shapes = (
{
closed = 1;
nodes = (
(188,50,o),
(199,103,o),
(199,151,cs),
(199,209,o),
(170,242,o),
(124,242,cs),
(78,242,o),
(50,212,o),
(50,169,cs),
(50,124,o),
(81,94,o),
(128,94,c),
(123,128,l),
(123,101,o),
(115,66,o),
(89,33,cs),
(52,-13,o),
(106,-51,o),
(141,-8,cs)
);
},
{
closed = 1;
nodes = (
(171,445,o),
(199,476,o),
(199,519,cs),
(199,563,o),
(171,593,o),
(125,593,cs),
(79,593,o),
(50,563,o),
(50,519,cs),
(50,476,o),
(79,445,o),
(125,445,cs)
);
}
);
width = 248;
},
{
background = {
shapes = (
{
closed = 1;
nodes = (
(128,-79,o),
(150,-32,o),
(161,36,cs),
(177,139,l),
(37,139,l),
(15,0,l),
(113,0,l),
(86,29,l),
(78,-16,o),
(62,-44,o),
(16,-85,c),
(60,-133,l)
);
},
{
closed = 1;
nodes = (
(211,351,l),
(233,489,l),
(93,489,l),
(71,351,l)
);
}
);
};
layerId = "8FF16B21-C988-4EC9-A448-39B9B4A4BD78";
shapes = (
{
closed = 1;
nodes = (
(157,39,o),
(182,92,o),
(182,159,cs),
(182,206,o),
(157,239,o),
(111,239,cs),
(65,239,o),
(37,209,o),
(37,166,cs),
(37,121,o),
(68,91,o),
(115,91,c),
(107,125,l),
(101,90,o),
(88,65,o),
(54,32,cs),
(15,-6,o),
(63,-51,o),
(103,-13,cs)
);
},
{
closed = 1;
nodes = (
(214,442,o),
(242,473,o),
(242,516,cs),
(242,560,o),
(214,590,o),
(168,590,cs),
(122,590,o),
(93,560,o),
(93,516,cs),
(93,473,o),
(122,442,o),
(168,442,cs)
);
}
);
width = 248;
}
);
unicode = 59;
}
{
color = 10;
glyphname = less;
layers = (
{
background = {
shapes = (
{
closed = 1;
nodes = (
(564,81,l),
(104,298,l),
(104,276,l),
(564,494,l),
(564,537,l),
(76,305,l),
(76,269,l),
(564,37,l)
);
}
);
};
layerId = "F1F93986-3ED8-4AAE-84C4-CA3EEECDDFA0";
shapes = (
{
pos = (404,0);
ref = greater;
scale = (-1,1);
}
);
width = 404;
},
{
background = {
shapes = (
{
closed = 1;
nodes = (
(627,177,l),
(186,337,l),
(186,236,l),
(627,396,l),
(627,546,l),
(139,364,l),
(139,211,l),
(627,28,l)
);
}
);
};
layerId = "4121B50C-FD42-45C5-8FBE-41E76D98F91E";
shapes = (
{
pos = (478,0);
ref = greater;
scale = (-1,1);
}
);
width = 478;
},
{
background = {
shapes = (
{
closed = 1;
nodes = (
(598,78,l),
(173,295,l),
(169,273,l),
(663,491,l),
(670,537,l),
(146,305,l),
(140,269,l),
(591,37,l)
);
}
);
};
layerId = "D8D4984A-F5A5-43C0-BF2B-5708C10C5E92";
shapes = (
{
pos = (475,0);
ref = greater;
scale = (-1,1);
}
);
width = 444;
},
{
background = {
shapes = (
{
closed = 1;
nodes = (
(675,169,l),
(261,329,l),
(245,228,l),
(710,388,l),
(735,546,l),
(218,364,l),
(194,211,l),
(653,28,l)
);
}
);
};
layerId = "C92D7C27-2246-4784-91DF-7F4E0C5E615D";
shapes = (
{
pos = (539,0);
ref = greater;
scale = (-1,1);
}
);
width = 518;
},
{
background = {
shapes = (
{
closed = 1;
nodes = (
(617,129,l),
(167,318,l),
(167,256,l),
(617,445,l),
(617,542,l),
(129,335,l),
(129,240,l),
(617,33,l)
);
}
);
};
layerId = "18203F29-5161-4D9B-8394-C173CC5E27D4";
shapes = (
{
pos = (468,0);
ref = greater;
scale = (-1,1);
}
);
width = 468;
},
{
background = {
shapes = (
{
closed = 1;
nodes = (
(670,124,l),
(250,312,l),
(240,251,l),
(720,440,l),
(736,542,l),
(215,335,l),
(200,240,l),
(655,33,l)
);
}
);
};
layerId = "8FF16B21-C988-4EC9-A448-39B9B4A4BD78";
shapes = (
{
pos = (540,0);
ref = greater;
scale = (-1,1);
}
);
width = 509;
}
);
unicode = 60;
}
{
color = 6;
glyphname = equal;
layers = (
{
background = {
shapes = (
{
closed = 1;
nodes = (
(544,367,l),
(544,406,l),
(56,406,l),
(56,367,l)
);
},
{
closed = 1;
nodes = (
(544,168,l),
(544,207,l),
(56,207,l),
(56,168,l)
);
}
);
};
layerId = "F1F93986-3ED8-4AAE-84C4-CA3EEECDDFA0";
shapes = (
{
closed = 1;
nodes = (
(529,420,ls),
(542,420,o),
(550,427,o),
(550,440,cs),
(550,452,o),
(542,459,o),
(529,459,cs),
(71,459,ls),
(58,459,o),
(50,452,o),
(50,440,cs),
(50,428,o),
(58,420,o),
(71,420,cs)
);
},
{
closed = 1;
nodes = (
(529,221,ls),
(542,221,o),
(550,228,o),
(550,241,cs),
(550,253,o),
(542,260,o),
(529,260,cs),
(71,260,ls),
(58,260,o),
(50,253,o),
(50,241,cs),
(50,229,o),
(58,221,o),
(71,221,cs)
);
}
);
width = 600;
},
{
background = {
shapes = (
{
closed = 1;
nodes = (
(544,319,l),
(544,455,l),
(56,455,l),
(56,319,l)
);
},
{
closed = 1;
nodes = (
(544,119,l),
(544,255,l),
(56,255,l),
(56,119,l)
);
}
);
};
layerId = "4121B50C-FD42-45C5-8FBE-41E76D98F91E";
shapes = (
{
closed = 1;
nodes = (
(485,372,ls),
(529,372,o),
(554,396,o),
(554,440,cs),
(554,484,o),
(529,508,o),
(485,508,cs),
(115,508,ls),
(71,508,o),
(46,484,o),
(46,440,cs),
(46,396,o),
(71,372,o),
(115,372,cs)
);
},
{
closed = 1;
nodes = (
(485,172,ls),
(529,172,o),
(554,196,o),
(554,240,cs),
(554,284,o),
(529,308,o),
(485,308,cs),
(115,308,ls),
(71,308,o),
(46,284,o),
(46,240,cs),
(46,196,o),
(71,172,o),
(115,172,cs)
);
}
);
width = 600;
},
{
background = {
shapes = (
{
closed = 1;
nodes = (
(563,367,l),
(569,406,l),
(81,406,l),
(75,367,l)
);
},
{
closed = 1;
nodes = (
(532,168,l),
(538,207,l),
(50,207,l),
(44,168,l)
);
}
);
};
layerId = "D8D4984A-F5A5-43C0-BF2B-5708C10C5E92";
shapes = (
{
closed = 1;
nodes = (
(556,420,ls),
(571,420,o),
(580,428,o),
(580,443,cs),
(580,454,o),
(572,459,o),
(558,459,cs),
(104,459,ls),
(89,459,o),
(80,451,o),
(80,436,cs),
(80,425,o),
(88,420,o),
(102,420,cs)
);
},
{
closed = 1;
nodes = (
(525,221,ls),
(540,221,o),
(549,229,o),
(549,244,cs),
(549,255,o),
(541,260,o),
(527,260,cs),
(73,260,ls),
(58,260,o),
(49,252,o),
(49,237,cs),
(49,226,o),
(57,221,o),
(71,221,cs)
);
}
);
width = 600;
},
{
background = {
shapes = (
{
closed = 1;
nodes = (
(555,319,l),
(577,455,l),
(89,455,l),
(67,319,l)
);
},
{
closed = 1;
nodes = (
(524,119,l),
(545,255,l),
(57,255,l),
(36,119,l)
);
}
);
};
layerId = "C92D7C27-2246-4784-91DF-7F4E0C5E615D";
shapes = (
{
closed = 1;
nodes = (
(505,372,ls),
(556,372,o),
(585,404,o),
(585,452,cs),
(585,487,o),
(561,508,o),
(514,508,cs),
(156,508,ls),
(105,508,o),
(76,476,o),
(76,428,cs),
(76,393,o),
(100,372,o),
(147,372,cs)
);
},
{
closed = 1;
nodes = (
(473,172,ls),
(524,172,o),
(553,204,o),
(553,252,cs),
(553,287,o),
(529,308,o),
(482,308,cs),
(124,308,ls),
(73,308,o),
(44,276,o),
(44,228,cs),
(44,193,o),
(68,172,o),
(115,172,cs)
);
}
);
width = 600;
},
{
background = {
shapes = (
{
closed = 1;
nodes = (
(544,343,l),
(544,431,l),
(56,431,l),
(56,343,l)
);
},
{
closed = 1;
nodes = (
(544,144,l),
(544,231,l),
(56,231,l),
(56,144,l)
);
}
);
};
layerId = "18203F29-5161-4D9B-8394-C173CC5E27D4";
shapes = (
{
closed = 1;
nodes = (
(507,396,ls),
(536,396,o),
(552,412,o),
(552,440,cs),
(552,468,o),
(536,484,o),
(507,484,cs),
(93,484,ls),
(65,484,o),
(48,468,o),
(48,440,cs),
(48,412,o),
(65,396,o),
(93,396,cs)
);
},
{
closed = 1;
nodes = (
(507,197,ls),
(536,197,o),
(552,212,o),
(552,241,cs),
(552,269,o),
(536,284,o),
(507,284,cs),
(93,284,ls),
(65,284,o),
(48,269,o),
(48,241,cs),
(48,213,o),
(65,197,o),
(93,197,cs)
);
}
);
width = 600;
},
{
background = {
shapes = (
{
closed = 1;
nodes = (
(559,343,l),
(573,431,l),
(85,431,l),
(71,343,l)
);
},
{
closed = 1;
nodes = (
(528,144,l),
(542,231,l),
(54,231,l),
(40,144,l)
);
}
);
};
layerId = "8FF16B21-C988-4EC9-A448-39B9B4A4BD78";
shapes = (
{
closed = 1;
nodes = (
(532,396,ls),
(565,396,o),
(584,416,o),
(584,448,cs),
(584,471,o),
(568,484,o),
(537,484,cs),
(131,484,ls),
(98,484,o),
(79,464,o),
(79,432,cs),
(79,409,o),
(95,396,o),
(126,396,cs)
);
},
{
closed = 1;
nodes = (
(500,197,ls),
(533,197,o),
(552,217,o),
(552,248,cs),
(552,271,o),
(536,284,o),
(506,284,cs),
(100,284,ls),
(67,284,o),
(48,264,o),
(48,233,cs),
(48,210,o),
(64,197,o),
(94,197,cs)
);
}
);
width = 600;
}
);
unicode = 61;
}
{
color = 6;
glyphname = greater;
layers = (
{
background = {
shapes = (
{
closed = 1;
nodes = (
(196,269,l),
(196,305,l),
(-292,537,l),
(-292,494,l),
(168,276,l),
(168,298,l),
(-292,81,l),
(-292,37,l)
);
}
);
};
layerId = "F1F93986-3ED8-4AAE-84C4-CA3EEECDDFA0";
shapes = (
{
closed = 1;
nodes = (
(349,336,o),
(348,333,o),
(341,326,cs),
(89,77,ls),
(80,68,o),
(70,68,o),
(61,77,cs),
(54,84,o),
(52,94,o),
(60,102,cs),
(325,357,l),
(325,324,l),
(61,579,l),
(50,594,o),
(58,604,o),
(62,607,cs),
(70,614,o),
(78,617,o),
(89,606,cs),
(340,357,ls),
(348,349,o),
(349,347,o),
(349,341,cs)
);
}
);
width = 404;
},
{
background = {
shapes = (
{
closed = 1;
nodes = (
(232,211,l),
(232,364,l),
(-256,546,l),
(-256,396,l),
(185,236,l),
(185,337,l),
(-256,177,l),
(-256,28,l)
);
}
);
};
layerId = "4121B50C-FD42-45C5-8FBE-41E76D98F91E";
shapes = (
{
closed = 1;
nodes = (
(433,310,o),
(407,279,o),
(392,264,cs),
(181,51,ls),
(150,20,o),
(100,20,o),
(68,48,cs),
(39,77,o),
(35,128,o),
(68,161,cs),
(323,416,l),
(323,264,l),
(67,521,l),
(25,571,o),
(54,620,o),
(70,634,cs),
(109,667,o),
(153,658,o),
(181,630,cs),
(392,418,ls),
(407,403,o),
(433,381,o),
(433,340,cs)
);
}
);
width = 478;
},
{
background = {
shapes = (
{
closed = 1;
nodes = (
(668,269,l),
(674,305,l),
(222,537,l),
(215,496,l),
(641,278,l),
(645,300,l),
(150,83,l),
(143,37,l)
);
}
);
};
layerId = "D8D4984A-F5A5-43C0-BF2B-5708C10C5E92";
shapes = (
{
closed = 1;
nodes = (
(404,336,o),
(403,333,o),
(396,326,cs),
(144,77,ls),
(135,68,o),
(125,68,o),
(116,77,cs),
(109,84,o),
(107,94,o),
(115,102,cs),
(380,357,l),
(380,324,l),
(116,579,l),
(105,594,o),
(113,604,o),
(117,607,cs),
(125,614,o),
(133,617,o),
(144,606,cs),
(395,357,ls),
(403,349,o),
(404,347,o),
(404,341,cs)
);
}
);
width = 444;
},
{
background = {
shapes = (
{
closed = 1;
nodes = (
(652,211,l),
(676,364,l),
(217,546,l),
(194,404,l),
(609,244,l),
(625,345,l),
(160,185,l),
(135,28,l)
);
}
);
};
layerId = "C92D7C27-2246-4784-91DF-7F4E0C5E615D";
shapes = (
{
closed = 1;
nodes = (
(486,310,o),
(460,279,o),
(445,264,cs),
(234,51,ls),
(203,20,o),
(153,20,o),
(121,48,cs),
(92,77,o),
(88,128,o),
(121,161,cs),
(376,416,l),
(376,264,l),
(120,521,l),
(78,571,o),
(107,620,o),
(123,634,cs),
(162,667,o),
(206,658,o),
(234,630,cs),
(445,418,ls),
(460,403,o),
(486,381,o),
(486,340,cs)
);
}
);
width = 517;
},
{
background = {
shapes = (
{
closed = 1;
nodes = (
(212,240,l),
(212,335,l),
(-276,542,l),
(-276,445,l),
(175,256,l),
(175,318,l),
(-276,129,l),
(-276,33,l)
);
}
);
};
layerId = "18203F29-5161-4D9B-8394-C173CC5E27D4";
shapes = (
{
closed = 1;
nodes = (
(418,312,o),
(399,296,o),
(385,282,cs),
(151,49,ls),
(128,26,o),
(91,25,o),
(67,46,cs),
(46,67,o),
(44,108,o),
(67,129,cs),
(321,368,l),
(321,312,l),
(66,551,l),
(36,589,o),
(56,624,o),
(68,634,cs),
(97,660,o),
(130,653,o),
(151,632,cs),
(385,399,ls),
(400,385,o),
(418,369,o),
(418,340,cs)
);
}
);
width = 468;
},
{
background = {
shapes = (
{
closed = 1;
nodes = (
(663,240,l),
(678,335,l),
(223,542,l),
(208,450,l),
(628,261,l),
(638,323,l),
(158,134,l),
(142,33,l)
);
}
);
};
layerId = "8FF16B21-C988-4EC9-A448-39B9B4A4BD78";
shapes = (
{
closed = 1;
nodes = (
(474,312,o),
(455,296,o),
(441,282,cs),
(207,49,ls),
(184,26,o),
(147,25,o),
(123,46,cs),
(102,67,o),
(100,108,o),
(123,129,cs),
(377,368,l),
(377,312,l),
(122,551,l),
(92,589,o),
(112,624,o),
(124,634,cs),
(153,660,o),
(186,653,o),
(207,632,cs),
(441,399,ls),
(456,385,o),
(474,369,o),
(474,340,cs)
);
}
);
width = 510;
}
);
unicode = 62;
}
{
color = 6;
glyphname = M;
kernLeft = H;
kernRight = H;
layers = (
{
anchors = (
{
name = bottom;
pos = (422,0);
},
{
name = top;
pos = (422,670);
}
);
background = {
anchors = (
{
name = bottom;
pos = (422,0);
},
{
name = top;
pos = (422,705);
}
);
shapes = (
{
closed = 1;
nodes = (
(137,0,l),
(137,666,l),
(112,666,l),
(406,110,l),
(441,110,l),
(731,665,l),
(707,665,l),
(707,0,l),
(746,0,l),
(746,705,l),
(710,705,l),
(409,127,l),
(437,127,l),
(134,705,l),
(98,705,l),
(98,0,l)
);
}
);
};
layerId = "F1F93986-3ED8-4AAE-84C4-CA3EEECDDFA0";
shapes = (
{
closed = 1;
nodes = (
(135,-6,o),
(142,2,o),
(142,16,cs),
(142,655,l),
(117,655,l),
(401,42,ls),
(406,32,o),
(412,26,o),
(424,26,cs),
(436,26,o),
(441,31,o),
(446,42,cs),
(726,655,l),
(702,655,l),
(702,16,ls),
(702,2,o),
(709,-6,o),
(722,-6,cs),
(734,-6,o),
(741,2,o),
(741,16,cs),
(741,639,ls),
(741,663,o),
(734,676,o),
(712,676,cs),
(693,676,o),
(688,662,o),
(680,645,cs),
(409,55,l),
(437,55,l),
(164,645,ls),
(156,662,o),
(150,676,o),
(135,676,cs),
(111,676,o),
(103,663,o),
(103,639,cs),
(103,16,ls),
(103,2,o),
(111,-6,o),
(123,-6,cs)
);
}
);
width = 844;
},
{
anchors = (
{
name = bottom;
pos = (447,0);
},
{
name = top;
pos = (447,670);
}
);
background = {
anchors = (
{
name = bottom;
pos = (447,0);
},
{
name = top;
pos = (447,705);
}
);
shapes = (
{
closed = 1;
nodes = (
(253,0,l),
(253,365,l),
(230,365,l),
(388,103,l),
(502,103,l),
(660,365,l),
(640,365,l),
(640,0,l),
(834,0,l),
(834,705,l),
(660,705,l),
(431,301,l),
(467,301,l),
(238,705,l),
(59,705,l),
(59,0,l)
);
}
);
};
layerId = "4121B50C-FD42-45C5-8FBE-41E76D98F91E";
shapes = (
{
closed = 1;
nodes = (
(219,-10,o),
(253,25,o),
(253,88,cs),
(253,365,l),
(230,365,l),
(364,69,ls),
(379,35,o),
(406,19,o),
(445,19,cs),
(484,19,o),
(511,35,o),
(526,69,cs),
(660,365,l),
(640,365,l),
(640,88,ls),
(640,25,o),
(674,-10,o),
(737,-10,cs),
(800,-10,o),
(834,25,o),
(834,88,cs),
(834,576,ls),
(834,639,o),
(785,680,o),
(736,680,cs),
(682,680,o),
(639,670,o),
(586,576,cs),
(431,301,l),
(467,301,l),
(311,576,ls),
(258,669,o),
(218,680,o),
(162,680,cs),
(114,680,o),
(59,632,o),
(59,569,cs),
(59,88,ls),
(59,25,o),
(93,-10,o),
(156,-10,cs)
);
}
);
width = 893;
},
{
anchors = (
{
name = bottom;
pos = (389,0);
},
{
name = top;
pos = (496,670);
}
);
background = {
anchors = (
{
name = bottom;
pos = (389,0);
},
{
name = top;
pos = (496,705);
}
);
shapes = (
{
closed = 1;
nodes = (
(99,0,l),
(204,666,l),
(184,666,l),
(385,110,l),
(420,110,l),
(799,665,l),
(774,665,l),
(669,0,l),
(708,0,l),
(820,705,l),
(784,705,l),
(389,127,l),
(416,127,l),
(208,705,l),
(172,705,l),
(60,0,l)
);
}
);
};
layerId = "D8D4984A-F5A5-43C0-BF2B-5708C10C5E92";
shapes = (
{
closed = 1;
nodes = (
(95,0,o),
(100,7,o),
(102,19,cs),
(204,631,l),
(184,631,l),
(381,41,ls),
(385,29,o),
(391,23,o),
(403,23,cs),
(414,23,o),
(419,27,o),
(425,36,cs),
(799,630,l),
(774,630,l),
(673,23,ls),
(671,8,o),
(679,0,o),
(691,0,cs),
(704,0,o),
(709,7,o),
(711,19,cs),
(817,652,ls),
(819,667,o),
(813,676,o),
(801,676,cs),
(790,676,o),
(784,671,o),
(778,662,cs),
(389,46,l),
(416,46,l),
(212,658,ls),
(208,670,o),
(203,676,o),
(191,676,cs),
(179,676,o),
(172,670,o),
(170,656,cs),
(64,23,ls),
(62,8,o),
(70,0,o),
(82,0,cs)
);
}
);
width = 844;
},
{
anchors = (
{
name = bottom;
pos = (417,0);
},
{
name = top;
pos = (503,670);
}
);
background = {
anchors = (
{
name = bottom;
pos = (417,0);
},
{
name = top;
pos = (519,705);
}
);
shapes = (
{
closed = 1;
nodes = (
(214,0,l),
(272,364,l),
(250,364,l),
(370,103,l),
(484,103,l),
(682,372,l),
(660,372,l),
(601,0,l),
(795,0,l),
(907,705,l),
(723,705,l),
(432,301,l),
(463,301,l),
(301,705,l),
(132,705,l),
(20,0,l)
);
}
);
};
layerId = "C92D7C27-2246-4784-91DF-7F4E0C5E615D";
shapes = (
{
closed = 1;
nodes = (
(181,-10,o),
(218,21,o),
(227,80,cs),
(272,364,l),
(250,364,l),
(341,91,ls),
(355,50,o),
(380,35,o),
(419,35,cs),
(458,35,o),
(481,46,o),
(502,80,cs),
(682,372,l),
(660,372,l),
(616,95,ls),
(606,29,o),
(637,-10,o),
(702,-10,cs),
(762,-10,o),
(798,20,o),
(808,80,cs),
(887,575,ls),
(898,641,o),
(864,680,o),
(797,680,cs),
(745,680,o),
(715,662,o),
(681,619,cs),
(432,301,l),
(463,301,l),
(322,604,ls),
(297,659,o),
(272,680,o),
(219,680,cs),
(160,680,o),
(124,650,o),
(114,590,cs),
(35,95,ls),
(25,30,o),
(51,-10,o),
(121,-10,cs)
);
}
);
width = 893;
},
{
anchors = (
{
name = bottom;
pos = (426,0);
},
{
name = top;
pos = (426,670);
}
);
background = {
anchors = (
{
name = bottom;
pos = (426,0);
},
{
name = top;
pos = (426,705);
}
);
shapes = (
{
closed = 1;
nodes = (
(186,0,l),
(186,516,l),
(162,516,l),
(388,107,l),
(463,107,l),
(687,515,l),
(665,515,l),
(665,0,l),
(781,0,l),
(781,705,l),
(676,705,l),
(411,214,l),
(443,214,l),
(177,705,l),
(70,705,l),
(70,0,l)
);
}
);
};
layerId = "18203F29-5161-4D9B-8394-C173CC5E27D4";
shapes = (
{
closed = 1;
nodes = (
(166,-8,o),
(186,14,o),
(186,52,cs),
(183,535,l),
(159,535,l),
(346,70,ls),
(360,35,o),
(397,19,o),
(426,19,cs),
(454,19,o),
(491,34,o),
(505,70,cs),
(690,534,l),
(668,534,l),
(665,52,ls),
(665,14,o),
(685,-8,o),
(723,-8,cs),
(761,-8,o),
(781,14,o),
(781,52,cs),
(781,604,ls),
(781,654,o),
(747,678,o),
(710,678,cs),
(668,678,o),
(636,653,o),
(613,598,cs),
(411,120,l),
(443,120,l),
(239,598,ls),
(215,653,o),
(185,678,o),
(144,678,cs),
(106,678,o),
(70,654,o),
(70,604,cs),
(70,52,ls),
(70,14,o),
(91,-8,o),
(128,-8,cs)
);
}
);
width = 851;
},
{
anchors = (
{
name = bottom;
pos = (403,0);
},
{
name = top;
pos = (508,670);
}
);
background = {
anchors = (
{
name = bottom;
pos = (403,0);
},
{
name = top;
pos = (508,705);
}
);
shapes = (
{
closed = 1;
nodes = (
(156,0,l),
(238,515,l),
(216,515,l),
(377,107,l),
(451,107,l),
(739,519,l),
(716,519,l),
(634,0,l),
(750,0,l),
(862,705,l),
(752,705,l),
(410,214,l),
(439,214,l),
(254,705,l),
(152,705,l),
(40,0,l)
);
}
);
};
layerId = "8FF16B21-C988-4EC9-A448-39B9B4A4BD78";
shapes = (
{
closed = 1;
nodes = (
(138,-5,o),
(158,14,o),
(164,50,cs),
(242,501,l),
(220,501,l),
(365,59,ls),
(374,33,o),
(390,22,o),
(415,22,cs),
(438,22,o),
(453,30,o),
(466,51,cs),
(743,505,l),
(720,505,l),
(643,59,ls),
(636,19,o),
(657,-5,o),
(695,-5,cs),
(732,-5,o),
(752,14,o),
(758,50,cs),
(853,612,ls),
(860,652,o),
(841,676,o),
(802,676,cs),
(770,676,o),
(748,664,o),
(732,639,cs),
(410,137,l),
(439,137,l),
(269,629,ls),
(257,663,o),
(240,676,o),
(208,676,cs),
(172,676,o),
(151,658,o),
(145,621,cs),
(50,59,ls),
(43,19,o),
(61,-5,o),
(102,-5,cs)
);
}
);
width = 869;
}
);
unicode = 77;
userData = {
anchors = (
);
b = {
};
com.typemytype.robofont.layerData = {
b = {
anchors = (
);
components = (
);
contours = (
);
lib = {
};
name = M;
unicodes = (
);
width = 1899;
};
};
components = (
);
contours = (
);
lib = {
};
name = M;
unicodes = (
);
width = 1984;
};
}
{
color = 6;
glyphname = T;
kernLeft = T;
kernRight = T;
layers = (
{
anchors = (
{
name = bottom;
pos = (293,0);
},
{
name = center;
pos = (293,358);
},
{
name = top;
pos = (293,670);
}
);
background = {
anchors = (
{
name = bottom;
pos = (293,0);
},
{
name = center;
pos = (293,358);
},
{
name = top;
pos = (293,705);
}
);
shapes = (
{
closed = 1;
nodes = (
(314,0,l),
(314,666,l),
(583,666,l),
(583,705,l),
(3,705,l),
(3,666,l),
(272,666,l),
(272,0,l)
);
}
);
};
layerId = "F1F93986-3ED8-4AAE-84C4-CA3EEECDDFA0";
shapes = (
{
closed = 1;
nodes = (
(307,-6,o),
(314,2,o),
(314,16,cs),
(314,631,l),
(537,631,ls),
(551,631,o),
(559,638,o),
(559,651,cs),
(559,663,o),
(551,670,o),
(537,670,cs),
(49,670,ls),
(35,670,o),
(27,663,o),
(27,651,cs),
(27,639,o),
(35,631,o),
(49,631,cs),
(272,631,l),
(272,16,ls),
(272,2,o),
(280,-6,o),
(293,-6,cs)
);
}
);
width = 586;
},
{
anchors = (
{
name = bottom;
pos = (297,0);
},
{
name = center;
pos = (296,358);
},
{
name = top;
pos = (296,670);
}
);
background = {
anchors = (
{
name = bottom;
pos = (297,0);
},
{
name = center;
pos = (296,358);
},
{
name = top;
pos = (296,705);
}
);
shapes = (
{
closed = 1;
nodes = (
(404,0,l),
(404,531,l),
(618,531,l),
(618,705,l),
(-25,705,l),
(-25,531,l),
(189,531,l),
(189,0,l)
);
}
);
};
layerId = "4121B50C-FD42-45C5-8FBE-41E76D98F91E";
shapes = (
{
closed = 1;
nodes = (
(367,-10,o),
(400,34,o),
(400,104,cs),
(400,496,l),
(485,496,ls),
(542,496,o),
(578,527,o),
(578,583,cs),
(578,639,o),
(542,670,o),
(485,670,cs),
(108,670,ls),
(51,670,o),
(15,639,o),
(15,583,cs),
(15,527,o),
(51,496,o),
(108,496,cs),
(193,496,l),
(193,104,ls),
(193,34,o),
(228,-10,o),
(297,-10,cs)
);
}
);
width = 583;
},
{
anchors = (
{
name = bottom;
pos = (198,0);
},
{
name = center;
pos = (255,358);
},
{
name = top;
pos = (305,670);
}
);
background = {
anchors = (
{
name = bottom;
pos = (198,0);
},
{
name = center;
pos = (255,358);
},
{
name = top;
pos = (310,705);
}
);
shapes = (
{
closed = 1;
nodes = (
(219,0,l),
(325,666,l),
(594,666,l),
(600,705,l),
(20,705,l),
(14,666,l),
(283,666,l),
(177,0,l)
);
}
);
};
layerId = "D8D4984A-F5A5-43C0-BF2B-5708C10C5E92";
shapes = (
{
closed = 1;
nodes = (
(212,-6,o),
(220,1,o),
(222,15,cs),
(319,631,l),
(573,631,ls),
(588,631,o),
(597,639,o),
(597,654,cs),
(597,665,o),
(589,670,o),
(575,670,cs),
(29,670,ls),
(15,670,o),
(5,662,o),
(5,648,cs),
(5,637,o),
(13,631,o),
(27,631,cs),
(277,631,l),
(181,19,ls),
(178,3,o),
(185,-6,o),
(198,-6,cs)
);
}
);
width = 530;
},
{
anchors = (
{
name = bottom;
pos = (288,0);
},
{
name = center;
pos = (343,358);
},
{
name = top;
pos = (377,670);
}
);
background = {
anchors = (
{
name = bottom;
pos = (288,0);
},
{
name = center;
pos = (343,358);
},
{
name = top;
pos = (395,705);
}
);
shapes = (
{
closed = 1;
nodes = (
(394,0,l),
(478,531,l),
(692,531,l),
(720,705,l),
(77,705,l),
(49,531,l),
(263,531,l),
(179,0,l)
);
}
);
};
layerId = "C92D7C27-2246-4784-91DF-7F4E0C5E615D";
shapes = (
{
closed = 1;
nodes = (
(359,-10,o),
(398,26,o),
(409,96,cs),
(472,496,l),
(607,496,ls),
(672,496,o),
(711,535,o),
(711,600,cs),
(711,644,o),
(678,670,o),
(619,670,cs),
(150,670,ls),
(85,670,o),
(46,631,o),
(46,566,cs),
(46,522,o),
(79,496,o),
(138,496,cs),
(257,496,l),
(197,115,ls),
(185,36,o),
(220,-10,o),
(288,-10,cs)
);
}
);
width = 654;
},
{
anchors = (
{
name = bottom;
pos = (297,0);
},
{
name = center;
pos = (297,358);
},
{
name = top;
pos = (297,670);
}
);
background = {
anchors = (
{
name = bottom;
pos = (297,0);
},
{
name = center;
pos = (297,358);
},
{
name = top;
pos = (297,705);
}
);
shapes = (
{
closed = 1;
nodes = (
(361,0,l),
(361,598,l),
(603,598,l),
(603,705,l),
(-9,705,l),
(-9,598,l),
(233,598,l),
(233,0,l)
);
}
);
};
layerId = "18203F29-5161-4D9B-8394-C173CC5E27D4";
shapes = (
{
closed = 1;
nodes = (
(339,-8,o),
(360,16,o),
(360,58,cs),
(360,563,l),
(514,563,ls),
(549,563,o),
(574,583,o),
(574,617,cs),
(574,651,o),
(549,670,o),
(514,670,cs),
(80,670,ls),
(45,670,o),
(20,651,o),
(20,617,cs),
(20,583,o),
(45,563,o),
(80,563,cs),
(234,563,l),
(234,58,ls),
(234,16,o),
(256,-8,o),
(297,-8,cs)
);
}
);
width = 579;
},
{
anchors = (
{
name = bottom;
pos = (269,0);
},
{
name = center;
pos = (325,358);
},
{
name = top;
pos = (373,670);
}
);
background = {
anchors = (
{
name = bottom;
pos = (269,0);
},
{
name = center;
pos = (325,358);
},
{
name = top;
pos = (378,705);
}
);
shapes = (
{
closed = 1;
nodes = (
(332,0,l),
(427,598,l),
(669,598,l),
(686,705,l),
(74,705,l),
(57,598,l),
(299,598,l),
(204,0,l)
);
}
);
};
layerId = "8FF16B21-C988-4EC9-A448-39B9B4A4BD78";
shapes = (
{
closed = 1;
nodes = (
(311,-8,o),
(334,14,o),
(341,56,cs),
(423,563,l),
(618,563,ls),
(658,563,o),
(682,587,o),
(682,627,cs),
(682,655,o),
(661,670,o),
(625,670,cs),
(117,670,ls),
(78,670,o),
(53,647,o),
(53,607,cs),
(53,580,o),
(74,563,o),
(110,563,cs),
(295,563,l),
(215,67,ls),
(207,20,o),
(228,-8,o),
(269,-8,cs)
);
}
);
width = 617;
}
);
unicode = 84;
userData = {
anchors = (
);
b = {
};
com.typemytype.robofont.layerData = {
b = {
anchors = (
);
components = (
);
contours = (
{
points = (
{
segmentType = curve;
smooth = 1;
x = 581;
y = 0;
},
{
segmentType = line;
smooth = 1;
x = 1350;
y = 0;
},
{
smooth = 0;
x = 1399;
y = 0;
},
{
smooth = 0;
x = 1423;
y = 34;
},
{
segmentType = curve;
smooth = 1;
x = 1423;
y = 71;
},
{
smooth = 0;
x = 1423;
y = 107;
},
{
smooth = 0;
x = 1399;
y = 141;
},
{
segmentType = curve;
smooth = 1;
x = 1350;
y = 141;
},
{
segmentType = line;
smooth = 0;
x = 671;
y = 141;
},
{
segmentType = line;
smooth = 0;
x = 671;
y = 665;
},
{
segmentType = line;
smooth = 1;
x = 1290;
y = 665;
},
{
smooth = 0;
x = 1339;
y = 665;
},
{
smooth = 0;
x = 1364;
y = 698;
},
{
segmentType = curve;
smooth = 1;
x = 1364;
y = 734;
},
{
smooth = 0;
x = 1364;
y = 770;
},
{
smooth = 0;
x = 1341;
y = 803;
},
{
segmentType = curve;
smooth = 1;
x = 1290;
y = 803;
},
{
segmentType = line;
smooth = 0;
x = 671;
y = 803;
},
{
segmentType = line;
smooth = 0;
x = 671;
y = 1285;
},
{
segmentType = line;
smooth = 1;
x = 1322;
y = 1285;
},
{
smooth = 0;
x = 1371;
y = 1285;
},
{
smooth = 0;
x = 1395;
y = 1319;
},
{
segmentType = curve;
smooth = 1;
x = 1395;
y = 1356;
},
{
smooth = 0;
x = 1395;
y = 1392;
},
{
smooth = 0;
x = 1371;
y = 1426;
},
{
segmentType = curve;
smooth = 1;
x = 1322;
y = 1426;
},
{
segmentType = line;
smooth = 1;
x = 576;
y = 1426;
},
{
smooth = 0;
x = 528;
y = 1426;
},
{
smooth = 0;
x = 493;
y = 1383;
},
{
segmentType = curve;
smooth = 1;
x = 493;
y = 1340;
},
{
segmentType = line;
smooth = 1;
x = 493;
y = 86;
},
{
smooth = 0;
x = 493;
y = 41;
},
{
smooth = 0;
x = 537;
y = 0;
}
);
}
);
lib = {
};
name = T;
unicodes = (
);
width = 1158;
};
};
components = (
);
contours = (
);
lib = {
};
name = T;
unicodes = (
);
width = 1199;
};
}
{
color = 6;
glyphname = U;
kernLeft = U;
kernRight = U;
layers = (
{
anchors = (
{
name = bottom;
pos = (360,0);
},
{
name = ogonek;
pos = (417,0);
},
{
name = top;
pos = (360,670);
},
{
name = topright;
pos = (588,670);
}
);
background = {
anchors = (
{
name = bottom;
pos = (360,0);
},
{
name = ogonek;
pos = (417,0);
},
{
name = top;
pos = (360,705);
},
{
name = topright;
pos = (588,705);
}
);
shapes = (
{
closed = 1;
nodes = (
(536,-8,o),
(629,90,o),
(629,271,cs),
(629,705,l),
(587,705,l),
(587,277,ls),
(587,113,o),
(510,33,o),
(360,33,cs),
(210,33,o),
(133,113,o),
(133,277,cs),
(133,705,l),
(91,705,l),
(91,271,ls),
(91,90,o),
(184,-8,o),
(360,-8,cs)
);
}
);
};
layerId = "F1F93986-3ED8-4AAE-84C4-CA3EEECDDFA0";
shapes = (
{
closed = 1;
nodes = (
(536,-8,o),
(629,90,o),
(629,271,cs),
(629,654,ls),
(629,668,o),
(621,676,o),
(608,676,cs),
(595,676,o),
(587,668,o),
(587,654,cs),
(587,277,ls),
(587,113,o),
(510,33,o),
(360,33,cs),
(210,33,o),
(133,113,o),
(133,277,cs),
(133,654,ls),
(133,668,o),
(125,676,o),
(112,676,cs),
(99,676,o),
(91,668,o),
(91,654,cs),
(91,271,ls),
(91,90,o),
(184,-8,o),
(360,-8,cs)
);
}
);
width = 720;
},
{
anchors = (
{
name = bottom;
pos = (379,0);
},
{
name = ogonek;
pos = (437,0);
},
{
name = top;
pos = (379,670);
},
{
name = topright;
pos = (557,670);
}
);
background = {
anchors = (
{
name = bottom;
pos = (379,0);
},
{
name = ogonek;
pos = (437,0);
},
{
name = top;
pos = (379,705);
},
{
name = topright;
pos = (557,705);
}
);
shapes = (
{
closed = 1;
nodes = (
(591,-12,o),
(702,93,o),
(702,307,cs),
(702,705,l),
(491,705,l),
(491,303,ls),
(491,213,o),
(451,167,o),
(379,167,cs),
(307,167,o),
(267,213,o),
(267,303,cs),
(267,705,l),
(52,705,l),
(52,307,ls),
(52,93,o),
(167,-12,o),
(379,-12,cs)
);
}
);
};
layerId = "4121B50C-FD42-45C5-8FBE-41E76D98F91E";
shapes = (
{
closed = 1;
nodes = (
(581,-12,o),
(692,93,o),
(692,307,cs),
(692,565,ls),
(692,635,o),
(657,680,o),
(589,680,cs),
(521,680,o),
(484,635,o),
(484,565,cs),
(484,303,ls),
(484,213,o),
(451,167,o),
(379,167,cs),
(307,167,o),
(274,213,o),
(274,303,cs),
(274,565,ls),
(274,635,o),
(237,680,o),
(168,680,cs),
(99,680,o),
(62,635,o),
(62,565,cs),
(62,307,ls),
(62,93,o),
(177,-12,o),
(379,-12,cs)
);
}
);
width = 754;
},
{
anchors = (
{
name = bottom;
pos = (322,0);
},
{
name = ogonek;
pos = (384,0);
},
{
name = top;
pos = (433,670);
},
{
name = topright;
pos = (654,669);
}
);
background = {
anchors = (
{
name = bottom;
pos = (322,0);
},
{
name = ogonek;
pos = (384,0);
},
{
name = top;
pos = (433,705);
},
{
name = topright;
pos = (660,705);
}
);
shapes = (
{
closed = 1;
nodes = (
(506,-8,o),
(604,81,o),
(632,261,cs),
(702,705,l),
(660,705,l),
(591,270,ls),
(564,103,o),
(480,33,o),
(330,33,cs),
(178,33,o),
(112,114,o),
(139,282,cs),
(206,705,l),
(164,705,l),
(98,288,ls),
(67,92,o),
(153,-8,o),
(330,-8,cs)
);
}
);
};
layerId = "D8D4984A-F5A5-43C0-BF2B-5708C10C5E92";
shapes = (
{
closed = 1;
nodes = (
(506,-8,o),
(604,81,o),
(632,261,cs),
(693,651,ls),
(696,667,o),
(689,676,o),
(676,676,cs),
(662,676,o),
(654,669,o),
(652,655,cs),
(591,270,ls),
(565,103,o),
(480,33,o),
(330,33,cs),
(179,33,o),
(113,114,o),
(139,282,cs),
(197,651,ls),
(200,667,o),
(193,676,o),
(180,676,cs),
(166,676,o),
(158,669,o),
(156,655,cs),
(98,288,ls),
(67,92,o),
(154,-8,o),
(330,-8,cs)
);
}
);
width = 720;
},
{
anchors = (
{
name = bottom;
pos = (340,0);
},
{
name = ogonek;
pos = (418,0);
},
{
name = top;
pos = (435,670);
},
{
name = topright;
pos = (609,670);
}
);
background = {
anchors = (
{
name = bottom;
pos = (340,0);
},
{
name = ogonek;
pos = (418,0);
},
{
name = top;
pos = (448,705);
},
{
name = topright;
pos = (620,705);
}
);
shapes = (
{
closed = 1;
nodes = (
(577,-12,o),
(678,99,o),
(709,296,cs),
(774,705,l),
(563,705,l),
(496,284,ls),
(483,205,o),
(439,166,o),
(372,166,cs),
(293,166,o),
(263,224,o),
(277,314,cs),
(339,705,l),
(124,705,l),
(64,325,ls),
(27,95,o),
(169,-12,o),
(354,-12,cs)
);
}
);
};
layerId = "C92D7C27-2246-4784-91DF-7F4E0C5E615D";
shapes = (
{
closed = 1;
nodes = (
(578,-12,o),
(679,100,o),
(710,296,cs),
(752,563,ls),
(764,637,o),
(729,680,o),
(660,680,cs),
(593,680,o),
(553,647,o),
(543,580,cs),
(497,284,ls),
(485,205,o),
(440,166,o),
(372,166,cs),
(293,166,o),
(263,224,o),
(277,314,cs),
(316,562,ls),
(328,636,o),
(293,680,o),
(221,680,cs),
(154,680,o),
(114,646,o),
(104,580,cs),
(64,325,ls),
(28,96,o),
(169,-12,o),
(354,-12,cs)
);
}
);
width = 754;
},
{
anchors = (
{
name = bottom;
pos = (350,0);
},
{
name = ogonek;
pos = (407,0);
},
{
name = top;
pos = (350,670);
},
{
name = topright;
pos = (553,670);
}
);
background = {
anchors = (
{
name = bottom;
pos = (350,0);
},
{
name = ogonek;
pos = (407,0);
},
{
name = top;
pos = (350,705);
},
{
name = topright;
pos = (553,705);
}
);
shapes = (
{
closed = 1;
nodes = (
(544,-10,o),
(646,92,o),
(646,289,cs),
(646,705,l),
(519,705,l),
(519,290,ls),
(519,163,o),
(461,100,o),
(350,100,cs),
(239,100,o),
(180,163,o),
(180,290,cs),
(180,705,l),
(52,705,l),
(52,289,ls),
(52,92,o),
(156,-10,o),
(350,-10,cs)
);
}
);
};
layerId = "18203F29-5161-4D9B-8394-C173CC5E27D4";
shapes = (
{
closed = 1;
nodes = (
(534,-10,o),
(629,92,o),
(629,289,cs),
(629,608,ls),
(629,650,o),
(608,678,o),
(568,678,cs),
(527,678,o),
(504,650,o),
(504,608,cs),
(504,290,ls),
(504,163,o),
(451,100,o),
(350,100,cs),
(249,100,o),
(195,163,o),
(195,290,cs),
(195,608,ls),
(195,650,o),
(172,678,o),
(131,678,cs),
(90,678,o),
(70,650,o),
(70,608,cs),
(70,289,ls),
(70,92,o),
(171,-10,o),
(350,-10,cs)
);
}
);
width = 699;
},
{
anchors = (
{
name = bottom;
pos = (331,0);
},
{
name = ogonek;
pos = (401,0);
},
{
name = top;
pos = (441,670);
},
{
name = topright;
pos = (640,670);
}
);
background = {
anchors = (
{
name = bottom;
pos = (331,0);
},
{
name = ogonek;
pos = (401,0);
},
{
name = top;
pos = (441,705);
},
{
name = topright;
pos = (640,705);
}
);
shapes = (
{
closed = 1;
nodes = (
(542,-10,o),
(640,90,o),
(670,279,cs),
(737,705,l),
(610,705,l),
(542,277,ls),
(522,154,o),
(460,100,o),
(351,100,cs),
(236,100,o),
(189,169,o),
(209,298,cs),
(273,705,l),
(145,705,l),
(82,307,ls),
(48,94,o),
(161,-10,o),
(342,-10,cs)
);
}
);
};
layerId = "8FF16B21-C988-4EC9-A448-39B9B4A4BD78";
shapes = (
{
closed = 1;
nodes = (
(541,-10,o),
(641,90,o),
(670,279,cs),
(721,607,ls),
(728,652,o),
(707,678,o),
(666,678,cs),
(626,678,o),
(602,658,o),
(596,618,cs),
(542,277,ls),
(523,154,o),
(459,100,o),
(350,100,cs),
(236,100,o),
(189,169,o),
(209,298,cs),
(257,607,ls),
(264,652,o),
(244,678,o),
(201,678,cs),
(161,678,o),
(137,658,o),
(131,618,cs),
(82,307,ls),
(48,94,o),
(162,-10,o),
(341,-10,cs)
);
}
);
width = 738;
}
);
unicode = 85;
userData = {
anchors = (
);
b = {
};
com.typemytype.robofont.layerData = {
b = {
anchors = (
);
components = (
);
contours = (
);
lib = {
};
name = U;
unicodes = (
);
width = 1490;
};
};
components = (
);
contours = (
);
lib = {
};
name = U;
unicodes = (
);
width = 1513;
};
}
{
color = 6;
glyphname = W;
kernLeft = V;
kernRight = V;
layers = (
{
anchors = (
{
name = bottom;
pos = (483,0);
},
{
name = top;
pos = (482,670);
}
);
background = {
anchors = (
{
name = bottom;
pos = (483,0);
},
{
name = top;
pos = (482,705);
}
);
shapes = (
{
closed = 1;
nodes = (
(260,0,l),
(492,671,l),
(472,671,l),
(703,0,l),
(746,0,l),
(990,705,l),
(947,705,l),
(710,19,l),
(738,19,l),
(501,705,l),
(462,705,l),
(225,19,l),
(255,19,l),
(19,705,l),
(-25,705,l),
(219,0,l)
);
}
);
};
guides = (
{
angle = 90;
pos = (684,253);
}
);
layerId = "F1F93986-3ED8-4AAE-84C4-CA3EEECDDFA0";
shapes = (
{
closed = 1;
nodes = (
(301,-6,o),
(312,6,o),
(319,30,cs),
(492,636,l),
(472,636,l),
(648,30,ls),
(655,6,o),
(667,-6,o),
(689,-6,cs),
(710,-6,o),
(722,6,o),
(729,30,cs),
(914,645,ls),
(918,657,o),
(915,671,o),
(902,675,cs),
(885,680,o),
(876,665,o),
(872,652,cs),
(674,17,l),
(702,17,l),
(507,652,ls),
(502,668,o),
(495,676,o),
(482,676,cs),
(469,676,o),
(461,668,o),
(456,652,cs),
(265,17,l),
(295,17,l),
(85,652,ls),
(79,670,o),
(67,678,o),
(55,675,cs),
(42,672,o),
(37,659,o),
(42,645,cs),
(240,30,ls),
(248,6,o),
(259,-6,o),
(280,-6,cs)
);
}
);
width = 956;
},
{
anchors = (
{
name = bottom;
pos = (522,0);
},
{
name = top;
pos = (523,670);
}
);
background = {
anchors = (
{
name = bottom;
pos = (522,0);
},
{
name = top;
pos = (523,705);
}
);
shapes = (
{
closed = 1;
nodes = (
(385,0,l),
(537,412,l),
(511,412,l),
(659,0,l),
(829,0,l),
(1086,705,l),
(880,705,l),
(720,234,l),
(762,234,l),
(605,705,l),
(454,705,l),
(284,234,l),
(334,234,l),
(179,705,l),
(-41,705,l),
(214,0,l)
);
}
);
};
layerId = "4121B50C-FD42-45C5-8FBE-41E76D98F91E";
shapes = (
{
closed = 1;
nodes = (
(373,-10,o),
(408,16,o),
(426,72,cs),
(537,412,l),
(511,412,l),
(619,73,ls),
(637,16,o),
(673,-10,o),
(730,-10,cs),
(788,-10,o),
(821,17,o),
(841,72,cs),
(1011,548,ls),
(1036,618,o),
(1002,680,o),
(929,680,cs),
(872,680,o),
(842,646,o),
(823,590,cs),
(702,234,l),
(744,234,l),
(623,596,ls),
(604,653,o),
(574,680,o),
(523,680,cs),
(472,680,o),
(440,654,o),
(421,597,cs),
(302,234,l),
(352,234,l),
(235,590,ls),
(216,647,o),
(188,680,o),
(127,680,cs),
(42,680,o),
(8,619,o),
(33,548,cs),
(203,73,ls),
(223,16,o),
(257,-10,o),
(315,-10,cs)
);
}
);
width = 1044;
},
{
anchors = (
{
name = bottom;
pos = (497,0);
},
{
name = top;
pos = (608,670);
}
);
background = {
anchors = (
{
name = bottom;
pos = (497,0);
},
{
name = top;
pos = (608,705);
}
);
shapes = (
{
closed = 1;
nodes = (
(274,0,l),
(612,671,l),
(592,671,l),
(717,0,l),
(760,0,l),
(1116,705,l),
(1070,705,l),
(725,19,l),
(752,19,l),
(624,705,l),
(585,705,l),
(239,19,l),
(270,19,l),
(143,705,l),
(101,705,l),
(233,0,l)
);
}
);
};
layerId = "D8D4984A-F5A5-43C0-BF2B-5708C10C5E92";
shapes = (
{
closed = 1;
nodes = (
(267,-6,o),
(274,0,o),
(281,14,cs),
(612,636,l),
(592,636,l),
(713,19,ls),
(716,3,o),
(724,-6,o),
(738,-6,cs),
(752,-6,o),
(760,0,o),
(767,14,cs),
(1104,646,ls),
(1112,662,o),
(1106,676,o),
(1088,676,cs),
(1078,676,o),
(1071,671,o),
(1065,660,cs),
(725,19,l),
(752,19,l),
(628,650,ls),
(624,669,o),
(617,676,o),
(605,676,cs),
(593,676,o),
(585,670,o),
(578,656,cs),
(239,19,l),
(270,19,l),
(146,655,ls),
(143,671,o),
(135,676,o),
(125,676,cs),
(110,676,o),
(102,666,o),
(105,649,cs),
(229,19,ls),
(232,3,o),
(240,-6,o),
(253,-6,cs)
);
}
);
width = 1070;
},
{
anchors = (
{
name = bottom;
pos = (528,0);
},
{
name = top;
pos = (641,670);
}
);
background = {
anchors = (
{
name = bottom;
pos = (528,0);
},
{
name = top;
pos = (635,705);
}
);
shapes = (
{
closed = 1;
nodes = (
(392,0,l),
(609,411,l),
(583,411,l),
(666,0,l),
(836,0,l),
(1204,705,l),
(986,705,l),
(751,234,l),
(796,234,l),
(713,705,l),
(561,705,l),
(317,234,l),
(365,234,l),
(284,705,l),
(77,705,l),
(221,0,l)
);
}
);
};
layerId = "C92D7C27-2246-4784-91DF-7F4E0C5E615D";
shapes = (
{
closed = 1;
nodes = (
(364,-10,o),
(400,14,o),
(427,66,cs),
(609,411,l),
(583,411,l),
(649,84,ls),
(662,20,o),
(693,-10,o),
(749,-10,cs),
(807,-10,o),
(841,14,o),
(870,65,cs),
(1141,544,ls),
(1183,618,o),
(1147,680,o),
(1067,680,cs),
(1011,680,o),
(983,653,o),
(955,602,cs),
(751,234,l),
(796,234,l),
(731,584,ls),
(719,648,o),
(692,680,o),
(641,680,cs),
(590,680,o),
(559,655,o),
(530,604,cs),
(317,234,l),
(365,234,l),
(302,583,ls),
(290,647,o),
(258,680,o),
(201,680,cs),
(129,680,o),
(88,628,o),
(104,553,cs),
(204,84,ls),
(218,20,o),
(248,-10,o),
(305,-10,cs)
);
}
);
width = 1136;
},
{
anchors = (
{
name = bottom;
pos = (473,0);
},
{
name = top;
pos = (473,670);
}
);
background = {
anchors = (
{
name = bottom;
pos = (473,0);
},
{
name = top;
pos = (473,705);
}
);
shapes = (
{
closed = 1;
nodes = (
(293,0,l),
(485,542,l),
(462,542,l),
(652,0,l),
(758,0,l),
(1009,705,l),
(884,705,l),
(686,127,l),
(721,127,l),
(524,705,l),
(429,705,l),
(225,127,l),
(265,127,l),
(70,705,l),
(-62,705,l),
(187,0,l)
);
}
);
};
layerId = "18203F29-5161-4D9B-8394-C173CC5E27D4";
shapes = (
{
closed = 1;
nodes = (
(307,-8,o),
(328,9,o),
(339,45,cs),
(485,542,l),
(462,542,l),
(606,46,ls),
(617,8,o),
(639,-8,o),
(675,-8,cs),
(711,-8,o),
(733,8,o),
(744,45,cs),
(913,602,ls),
(926,646,o),
(905,678,o),
(862,678,cs),
(827,678,o),
(807,662,o),
(797,626,cs),
(656,117,l),
(691,117,l),
(553,584,ls),
(532,655,o),
(525,678,o),
(473,678,cs),
(428,678,o),
(416,650,o),
(396,584,cs),
(255,117,l),
(295,117,l),
(147,626,ls),
(137,662,o),
(106,683,o),
(72,678,cs),
(35,673,o),
(10,646,o),
(24,602,cs),
(201,46,ls),
(213,9,o),
(235,-8,o),
(271,-8,cs)
);
}
);
width = 937;
},
{
anchors = (
{
name = bottom;
pos = (518,0);
},
{
name = top;
pos = (627,670);
}
);
background = {
anchors = (
{
name = bottom;
pos = (518,0);
},
{
name = top;
pos = (627,705);
}
);
shapes = (
{
closed = 1;
nodes = (
(338,0,l),
(616,541,l),
(593,541,l),
(697,0,l),
(803,0,l),
(1165,705,l),
(1033,705,l),
(743,127,l),
(779,127,l),
(674,705,l),
(578,705,l),
(283,127,l),
(323,127,l),
(219,705,l),
(94,705,l),
(232,0,l)
);
}
);
};
layerId = "8FF16B21-C988-4EC9-A448-39B9B4A4BD78";
shapes = (
{
closed = 1;
nodes = (
(321,-8,o),
(342,7,o),
(359,40,cs),
(618,535,l),
(595,535,l),
(687,52,ls),
(695,12,o),
(714,-8,o),
(749,-8,cs),
(785,-8,o),
(806,7,o),
(824,40,cs),
(1126,595,ls),
(1151,641,o),
(1130,678,o),
(1081,678,cs),
(1048,678,o),
(1031,663,o),
(1014,631,cs),
(743,127,l),
(779,127,l),
(683,617,ls),
(675,659,o),
(658,678,o),
(627,678,cs),
(595,678,o),
(575,663,o),
(557,630,cs),
(283,127,l),
(323,127,l),
(228,619,ls),
(220,659,o),
(200,678,o),
(167,678,cs),
(123,678,o),
(98,647,o),
(108,601,cs),
(222,52,ls),
(230,12,o),
(249,-8,o),
(284,-8,cs)
);
}
);
width = 1113;
}
);
unicode = 87;
userData = {
anchors = (
);
b = {
};
com.typemytype.robofont.layerData = {
b = {
anchors = (
);
components = (
);
contours = (
);
lib = {
};
name = W;
unicodes = (
);
width = 2126;
};
};
components = (
);
contours = (
);
lib = {
};
name = W;
unicodes = (
);
width = 2070;
};
}
{
color = 6;
glyphname = bracketleft;
kernLeft = parenleft;
kernRight = braceleft;
layers = (
{
background = {
shapes = (
{
closed = 1;
nodes = (
(277,-180,l),
(277,-143,l),
(154,-143,l),
(154,668,l),
(277,668,l),
(277,705,l),
(112,705,l),
(112,-180,l)
);
}
);
};
guides = (
{
pos = (-882,321);
},
{
pos = (-882,361);
},
{
pos = (-882,361);
},
{
pos = (-882,-180);
},
{
pos = (-826,845);
}
);
layerId = "F1F93986-3ED8-4AAE-84C4-CA3EEECDDFA0";
shapes = (
{
closed = 1;
nodes = (
(263,-180,ls),
(274,-180,o),
(283,-172,o),
(283,-162,cs),
(283,-152,o),
(274,-143,o),
(263,-143,cs),
(154,-143,l),
(154,808,l),
(263,808,ls),
(274,808,o),
(283,816,o),
(283,827,cs),
(283,837,o),
(274,845,o),
(263,845,cs),
(132,845,ls),
(121,845,o),
(112,836,o),
(112,825,cs),
(112,-160,ls),
(112,-171,o),
(121,-180,o),
(132,-180,cs)
);
}
);
width = 281;
},
{
background = {
shapes = (
{
closed = 1;
nodes = (
(407,-180,l),
(407,-28,l),
(308,-28,l),
(308,553,l),
(407,553,l),
(407,705,l),
(100,705,l),
(100,-180,l)
);
}
);
};
layerId = "4121B50C-FD42-45C5-8FBE-41E76D98F91E";
shapes = (
{
closed = 1;
nodes = (
(332,-180,ls),
(381,-180,o),
(417,-148,o),
(417,-104,cs),
(417,-60,o),
(381,-28,o),
(332,-28,cs),
(278,-28,l),
(278,693,l),
(332,693,ls),
(381,693,o),
(417,725,o),
(417,769,cs),
(417,813,o),
(381,845,o),
(332,845,cs),
(185,845,ls),
(136,845,o),
(100,809,o),
(100,760,cs),
(100,-95,ls),
(100,-144,o),
(136,-180,o),
(185,-180,cs)
);
}
);
width = 427;
},
{
background = {
shapes = (
{
closed = 1;
nodes = (
(210,-180,l),
(216,-143,l),
(93,-143,l),
(221,668,l),
(344,668,l),
(350,705,l),
(185,705,l),
(45,-180,l)
);
}
);
};
layerId = "D8D4984A-F5A5-43C0-BF2B-5708C10C5E92";
shapes = (
{
closed = 1;
nodes = (
(196,-180,ls),
(212,-180,o),
(219,-171,o),
(219,-160,cs),
(219,-151,o),
(216,-143,o),
(200,-143,cs),
(93,-143,l),
(243,808,l),
(352,808,ls),
(366,808,o),
(375,814,o),
(375,827,cs),
(375,839,o),
(364,845,o),
(348,845,cs),
(227,845,ls),
(215,845,o),
(206,836,o),
(204,825,cs),
(50,-150,ls),
(47,-166,o),
(59,-180,o),
(75,-180,cs)
);
}
);
width = 281;
},
{
background = {
shapes = (
{
closed = 1;
nodes = (
(339,-180,l),
(363,-28,l),
(265,-28,l),
(357,553,l),
(455,553,l),
(479,705,l),
(173,705,l),
(33,-180,l)
);
}
);
};
layerId = "C92D7C27-2246-4784-91DF-7F4E0C5E615D";
shapes = (
{
closed = 1;
nodes = (
(273,-180,ls),
(330,-180,o),
(363,-145,o),
(363,-88,cs),
(363,-53,o),
(343,-28,o),
(295,-28,cs),
(235,-28,l),
(349,693,l),
(411,693,ls),
(467,693,o),
(500,716,o),
(500,776,cs),
(500,819,o),
(473,845,o),
(415,845,cs),
(272,845,ls),
(226,845,o),
(190,814,o),
(183,769,cs),
(51,-64,ls),
(41,-129,o),
(85,-180,o),
(150,-180,cs)
);
}
);
width = 427;
},
{
background = {
shapes = (
{
closed = 1;
nodes = (
(336,-180,l),
(336,-86,l),
(225,-86,l),
(225,611,l),
(336,611,l),
(336,705,l),
(100,705,l),
(100,-180,l)
);
}
);
};
layerId = "18203F29-5161-4D9B-8394-C173CC5E27D4";
shapes = (
{
closed = 1;
nodes = (
(296,-180,ls),
(326,-180,o),
(344,-160,o),
(344,-133,cs),
(344,-106,o),
(326,-86,o),
(296,-86,cs),
(217,-86,l),
(217,751,l),
(296,751,ls),
(326,751,o),
(344,771,o),
(344,798,cs),
(344,825,o),
(326,845,o),
(296,845,cs),
(159,845,ls),
(129,845,o),
(106,823,o),
(106,793,cs),
(106,-128,ls),
(106,-158,o),
(129,-180,o),
(159,-180,cs)
);
}
);
width = 348;
},
{
background = {
shapes = (
{
closed = 1;
nodes = (
(269,-180,l),
(284,-86,l),
(173,-86,l),
(283,611,l),
(394,611,l),
(409,705,l),
(173,705,l),
(33,-180,l)
);
}
);
};
layerId = "8FF16B21-C988-4EC9-A448-39B9B4A4BD78";
shapes = (
{
closed = 1;
nodes = (
(229,-180,ls),
(265,-180,o),
(285,-158,o),
(285,-124,cs),
(285,-102,o),
(274,-86,o),
(242,-86,cs),
(165,-86,l),
(297,751,l),
(376,751,ls),
(411,751,o),
(432,765,o),
(432,802,cs),
(432,829,o),
(413,845,o),
(376,845,cs),
(250,845,ls),
(221,845,o),
(198,825,o),
(194,797,cs),
(51,-107,ls),
(45,-148,o),
(72,-180,o),
(113,-180,cs)
);
}
);
width = 348;
}
);
unicode = 91;
}
{
color = 6;
glyphname = backslash;
kernLeft = backslash;
kernRight = backslash;
layers = (
{
background = {
shapes = (
{
closed = 1;
nodes = (
(274,-44,l),
(20,744,l),
(-18,733,l),
(236,-55,l)
);
}
);
};
layerId = "F1F93986-3ED8-4AAE-84C4-CA3EEECDDFA0";
shapes = (
{
closed = 1;
nodes = (
(240,-66,o),
(277,-54,o),
(269,-28,cs),
(25,728,ls),
(16,755,o),
(-21,743,o),
(-13,717,cs),
(231,-39,ls)
);
}
);
width = 256;
},
{
background = {
shapes = (
{
closed = 1;
nodes = (
(391,-43,l),
(129,775,l),
(-21,731,l),
(241,-87,l)
);
}
);
};
layerId = "4121B50C-FD42-45C5-8FBE-41E76D98F91E";
shapes = (
{
closed = 1;
nodes = (
(250,-118,o),
(401,-77,o),
(368,28,cs),
(152,706,ls),
(120,806,o),
(-31,765,o),
(2,660,cs),
(218,-18,ls)
);
}
);
width = 370;
},
{
background = {
shapes = (
{
closed = 1;
nodes = (
(227,-51,l),
(98,746,l),
(61,739,l),
(190,-58,l)
);
}
);
};
layerId = "D8D4984A-F5A5-43C0-BF2B-5708C10C5E92";
shapes = (
{
closed = 1;
nodes = (
(192,-68,o),
(230,-62,o),
(225,-34,cs),
(100,728,ls),
(95,758,o),
(59,747,o),
(63,722,cs),
(187,-39,ls)
);
}
);
width = 256;
},
{
background = {
shapes = (
{
closed = 1;
nodes = (
(346,-55,l),
(206,775,l),
(55,744,l),
(194,-87,l)
);
}
);
};
layerId = "C92D7C27-2246-4784-91DF-7F4E0C5E615D";
shapes = (
{
closed = 1;
nodes = (
(199,-116,o),
(352,-87,o),
(335,13,cs),
(219,700,ls),
(201,804,o),
(49,775,o),
(66,676,cs),
(181,-11,ls)
);
}
);
width = 370;
},
{
background = {
shapes = (
{
closed = 1;
nodes = (
(333,-43,l),
(74,760,l),
(-20,732,l),
(239,-71,l)
);
}
);
};
layerId = "18203F29-5161-4D9B-8394-C173CC5E27D4";
shapes = (
{
closed = 1;
nodes = (
(245,-92,o),
(340,-66,o),
(319,0,cs),
(88,717,ls),
(67,781,o),
(-26,754,o),
(-6,689,cs),
(225,-29,ls)
);
}
);
width = 313;
},
{
background = {
shapes = (
{
closed = 1;
nodes = (
(287,-53,l),
(152,761,l),
(58,742,l),
(192,-73,l)
);
}
);
};
layerId = "8FF16B21-C988-4EC9-A448-39B9B4A4BD78";
shapes = (
{
closed = 1;
nodes = (
(195,-92,o),
(291,-75,o),
(280,-11,cs),
(160,714,ls),
(149,781,o),
(55,761,o),
(65,699,cs),
(184,-25,ls)
);
}
);
width = 313;
}
);
unicode = 92;
}
{
color = 6;
glyphname = bracketright;
kernLeft = braceright;
kernRight = parenright;
layers = (
{
background = {
shapes = (
{
closed = 1;
nodes = (
(169,-180,l),
(169,705,l),
(4,705,l),
(4,668,l),
(127,668,l),
(127,-143,l),
(4,-143,l),
(4,-180,l)
);
}
);
};
layerId = "F1F93986-3ED8-4AAE-84C4-CA3EEECDDFA0";
shapes = (
{
closed = 1;
nodes = (
(149,-180,ls),
(160,-180,o),
(169,-171,o),
(169,-160,cs),
(169,825,ls),
(169,836,o),
(160,845,o),
(149,845,cs),
(18,845,ls),
(7,845,o),
(-2,837,o),
(-2,827,cs),
(-2,816,o),
(7,808,o),
(18,808,cs),
(127,808,l),
(127,-143,l),
(18,-143,ls),
(7,-143,o),
(-2,-152,o),
(-2,-162,cs),
(-2,-172,o),
(7,-180,o),
(18,-180,cs)
);
}
);
width = 281;
},
{
background = {
shapes = (
{
closed = 1;
nodes = (
(326,-180,l),
(326,705,l),
(20,705,l),
(20,553,l),
(118,553,l),
(118,-28,l),
(20,-28,l),
(20,-180,l)
);
}
);
};
layerId = "4121B50C-FD42-45C5-8FBE-41E76D98F91E";
shapes = (
{
closed = 1;
nodes = (
(242,-180,ls),
(291,-180,o),
(327,-144,o),
(327,-95,cs),
(327,760,ls),
(327,809,o),
(291,845,o),
(242,845,cs),
(95,845,ls),
(46,845,o),
(10,813,o),
(10,769,cs),
(10,725,o),
(46,693,o),
(95,693,cs),
(149,693,l),
(149,-28,l),
(95,-28,ls),
(46,-28,o),
(10,-60,o),
(10,-104,cs),
(10,-148,o),
(46,-180,o),
(95,-180,cs)
);
}
);
width = 427;
},
{
background = {
shapes = (
{
closed = 1;
nodes = (
(102,-180,l),
(242,705,l),
(77,705,l),
(71,668,l),
(194,668,l),
(66,-143,l),
(-57,-143,l),
(-63,-180,l)
);
}
);
};
layerId = "D8D4984A-F5A5-43C0-BF2B-5708C10C5E92";
shapes = (
{
closed = 1;
nodes = (
(82,-180,ls),
(94,-180,o),
(103,-171,o),
(105,-160,cs),
(259,815,ls),
(262,831,o),
(250,845,o),
(234,845,cs),
(113,845,ls),
(97,845,o),
(90,836,o),
(90,825,cs),
(90,816,o),
(93,808,o),
(109,808,cs),
(216,808,l),
(66,-143,l),
(-43,-143,ls),
(-57,-143,o),
(-66,-149,o),
(-66,-162,cs),
(-66,-174,o),
(-55,-180,o),
(-39,-180,cs)
);
}
);
width = 281;
},
{
background = {
shapes = (
{
closed = 1;
nodes = (
(259,-180,l),
(399,705,l),
(92,705,l),
(68,553,l),
(167,553,l),
(75,-28,l),
(-24,-28,l),
(-48,-180,l)
);
}
);
};
layerId = "C92D7C27-2246-4784-91DF-7F4E0C5E615D";
shapes = (
{
closed = 1;
nodes = (
(182,-180,ls),
(228,-180,o),
(264,-149,o),
(271,-104,cs),
(403,729,ls),
(413,794,o),
(369,845,o),
(304,845,cs),
(181,845,ls),
(124,845,o),
(91,810,o),
(91,753,cs),
(91,718,o),
(111,693,o),
(159,693,cs),
(219,693,l),
(105,-28,l),
(43,-28,ls),
(-13,-28,o),
(-46,-51,o),
(-46,-111,cs),
(-46,-154,o),
(-19,-180,o),
(39,-180,cs)
);
}
);
width = 427;
},
{
background = {
shapes = (
{
closed = 1;
nodes = (
(248,-180,l),
(248,705,l),
(12,705,l),
(12,611,l),
(123,611,l),
(123,-86,l),
(12,-86,l),
(12,-180,l)
);
}
);
};
layerId = "18203F29-5161-4D9B-8394-C173CC5E27D4";
shapes = (
{
closed = 1;
nodes = (
(188,-180,ls),
(218,-180,o),
(241,-158,o),
(241,-128,cs),
(241,793,ls),
(241,823,o),
(218,845,o),
(188,845,cs),
(52,845,ls),
(22,845,o),
(4,825,o),
(4,798,cs),
(4,771,o),
(22,751,o),
(52,751,cs),
(130,751,l),
(130,-86,l),
(52,-86,ls),
(22,-86,o),
(4,-106,o),
(4,-133,cs),
(4,-160,o),
(22,-180,o),
(52,-180,cs)
);
}
);
width = 347;
},
{
background = {
shapes = (
{
closed = 1;
nodes = (
(181,-180,l),
(321,705,l),
(85,705,l),
(70,611,l),
(181,611,l),
(71,-86,l),
(-41,-86,l),
(-56,-180,l)
);
}
);
};
layerId = "8FF16B21-C988-4EC9-A448-39B9B4A4BD78";
shapes = (
{
closed = 1;
nodes = (
(125,-180,ls),
(154,-180,o),
(177,-160,o),
(181,-132,cs),
(324,772,ls),
(330,813,o),
(303,845,o),
(262,845,cs),
(147,845,ls),
(111,845,o),
(91,823,o),
(91,789,cs),
(91,767,o),
(102,751,o),
(134,751,cs),
(210,751,l),
(78,-86,l),
(0,-86,ls),
(-35,-86,o),
(-56,-100,o),
(-56,-137,cs),
(-56,-164,o),
(-37,-180,o),
(0,-180,cs)
);
}
);
width = 347;
}
);
unicode = 93;
}
{
color = 6;
glyphname = asciicircum;
layers = (
{
background = {
shapes = (
{
closed = 1;
nodes = (
(311,140,l),
(529,599,l),
(507,599,l),
(725,140,l),
(767,140,l),
(536,628,l),
(500,628,l),
(269,140,l)
);
}
);
};
layerId = "F1F93986-3ED8-4AAE-84C4-CA3EEECDDFA0";
shapes = (
{
closed = 1;
nodes = (
(327,525,o),
(330,524,o),
(337,517,cs),
(586,265,ls),
(595,256,o),
(595,246,o),
(586,237,cs),
(579,230,o),
(569,228,o),
(561,236,cs),
(306,501,l),
(339,501,l),
(84,237,l),
(69,226,o),
(59,234,o),
(56,238,cs),
(49,246,o),
(46,254,o),
(57,265,cs),
(306,516,ls),
(314,524,o),
(316,525,o),
(322,525,cs)
);
}
);
width = 643;
},
{
background = {
shapes = (
{
closed = 1;
nodes = (
(233,140,l),
(392,581,l),
(292,581,l),
(451,140,l),
(601,140,l),
(418,628,l),
(266,628,l),
(83,140,l)
);
}
);
};
layerId = "4121B50C-FD42-45C5-8FBE-41E76D98F91E";
shapes = (
{
closed = 1;
nodes = (
(395,611,o),
(426,585,o),
(441,570,cs),
(654,359,ls),
(685,328,o),
(685,278,o),
(657,246,cs),
(628,217,o),
(577,213,o),
(544,246,cs),
(289,501,l),
(441,501,l),
(184,245,l),
(134,203,o),
(85,232,o),
(71,248,cs),
(38,287,o),
(47,331,o),
(75,359,cs),
(287,570,ls),
(302,585,o),
(324,611,o),
(365,611,cs)
);
}
);
width = 728;
},
{
background = {
shapes = (
{
closed = 1;
nodes = (
(410,140,l),
(700,599,l),
(678,599,l),
(824,140,l),
(863,140,l),
(709,628,l),
(673,628,l),
(365,140,l)
);
}
);
};
layerId = "D8D4984A-F5A5-43C0-BF2B-5708C10C5E92";
shapes = (
{
closed = 1;
nodes = (
(379,526,o),
(382,525,o),
(389,518,cs),
(588,266,ls),
(597,257,o),
(597,247,o),
(588,238,cs),
(581,231,o),
(571,229,o),
(563,237,cs),
(358,502,l),
(391,502,l),
(86,238,l),
(71,227,o),
(61,235,o),
(58,239,cs),
(51,247,o),
(48,255,o),
(59,266,cs),
(358,517,ls),
(366,525,o),
(368,526,o),
(374,526,cs)
);
}
);
width = 643;
},
{
background = {
shapes = (
{
closed = 1;
nodes = (
(344,140,l),
(573,581,l),
(473,581,l),
(562,140,l),
(707,140,l),
(601,628,l),
(449,628,l),
(189,140,l)
);
}
);
};
layerId = "C92D7C27-2246-4784-91DF-7F4E0C5E615D";
shapes = (
{
closed = 1;
nodes = (
(441,569,o),
(471,543,o),
(487,520,cs),
(630,317,ls),
(655,281,o),
(661,236,o),
(633,204,cs),
(604,175,o),
(547,166,o),
(520,204,cs),
(335,459,l),
(487,459,l),
(187,203,l),
(137,161,o),
(88,190,o),
(74,206,cs),
(41,245,o),
(48,292,o),
(78,317,cs),
(331,530,ls),
(347,544,o),
(370,569,o),
(411,569,cs)
);
}
);
width = 703;
},
{
background = {
shapes = (
{
closed = 1;
nodes = (
(180,140,l),
(369,590,l),
(308,590,l),
(496,140,l),
(592,140,l),
(385,628,l),
(291,628,l),
(84,140,l)
);
}
);
};
layerId = "18203F29-5161-4D9B-8394-C173CC5E27D4";
shapes = (
{
closed = 1;
nodes = (
(389,596,o),
(405,577,o),
(419,563,cs),
(652,329,ls),
(675,306,o),
(676,269,o),
(655,245,cs),
(634,224,o),
(593,222,o),
(572,245,cs),
(333,499,l),
(389,499,l),
(150,244,l),
(112,214,o),
(77,234,o),
(67,246,cs),
(41,275,o),
(48,308,o),
(69,329,cs),
(302,563,ls),
(316,578,o),
(332,596,o),
(361,596,cs)
);
}
);
width = 720;
},
{
background = {
shapes = (
{
closed = 1;
nodes = (
(299,140,l),
(558,590,l),
(497,590,l),
(615,140,l),
(707,140,l),
(577,628,l),
(483,628,l),
(199,140,l)
);
}
);
};
layerId = "8FF16B21-C988-4EC9-A448-39B9B4A4BD78";
shapes = (
{
closed = 1;
nodes = (
(428,561,o),
(444,542,o),
(458,528,cs),
(628,294,ls),
(651,271,o),
(652,234,o),
(631,210,cs),
(610,189,o),
(569,187,o),
(548,210,cs),
(372,464,l),
(428,464,l),
(152,209,l),
(114,179,o),
(79,199,o),
(69,211,cs),
(43,240,o),
(50,273,o),
(71,294,cs),
(341,528,ls),
(355,543,o),
(371,561,o),
(400,561,cs)
);
}
);
width = 696;
}
);
unicode = 94;
}
{
color = 6;
glyphname = d;
kernLeft = o;
kernRight = l;
layers = (
{
anchors = (
{
name = bottom;
pos = (286,0);
},
{
name = center;
pos = (286,245);
},
{
name = stroke;
pos = (411,580);
},
{
name = top;
pos = (284,670);
},
{
name = topright;
pos = (533,670);
}
);
background = {
anchors = (
{
name = bottom;
pos = (286,0);
},
{
name = center;
pos = (286,245);
},
{
name = stroke;
pos = (411,580);
},
{
name = top;
pos = (284,705);
},
{
name = topright;
pos = (533,705);
}
);
shapes = (
{
closed = 1;
nodes = (
(361,-8,o),
(430,44,o),
(452,126,c),
(441,126,l),
(441,0,l),
(483,0,l),
(483,705,l),
(441,705,l),
(441,358,l),
(452,358,l),
(430,440,o),
(361,492,o),
(268,492,cs),
(136,492,o),
(53,395,o),
(53,242,cs),
(53,89,o),
(137,-8,o),
(268,-8,cs)
);
},
{
closed = 1;
nodes = (
(163,31,o),
(96,109,o),
(96,242,cs),
(96,375,o),
(163,453,o),
(269,453,cs),
(375,453,o),
(442,375,o),
(442,242,cs),
(442,109,o),
(375,31,o),
(269,31,cs)
);
}
);
};
layerId = "F1F93986-3ED8-4AAE-84C4-CA3EEECDDFA0";
shapes = (
{
closed = 1;
nodes = (
(361,-8,o),
(430,44,o),
(452,126,c),
(441,126,l),
(441,16,ls),
(441,2,o),
(449,-6,o),
(462,-6,cs),
(475,-6,o),
(483,2,o),
(483,16,cs),
(483,654,ls),
(483,668,o),
(475,676,o),
(462,676,cs),
(449,676,o),
(441,668,o),
(441,654,cs),
(441,358,l),
(452,358,l),
(430,440,o),
(361,492,o),
(268,492,cs),
(136,492,o),
(44,395,o),
(44,242,cs),
(44,89,o),
(137,-8,o),
(268,-8,cs)
);
},
{
closed = 1;
nodes = (
(163,31,o),
(87,109,o),
(87,242,cs),
(87,375,o),
(163,453,o),
(269,453,cs),
(375,453,o),
(442,375,o),
(442,242,cs),
(442,109,o),
(375,31,o),
(269,31,cs)
);
}
);
width = 568;
},
{
anchors = (
{
name = bottom;
pos = (318,0);
},
{
name = center;
pos = (305,247);
},
{
name = stroke;
pos = (434,595);
},
{
name = top;
pos = (318,670);
},
{
name = topright;
pos = (618,670);
}
);
background = {
anchors = (
{
name = bottom;
pos = (318,0);
},
{
name = center;
pos = (305,247);
},
{
name = stroke;
pos = (434,595);
},
{
name = top;
pos = (318,705);
},
{
name = topright;
pos = (618,705);
}
);
shapes = (
{
closed = 1;
nodes = (
(311,-12,o),
(376,26,o),
(394,81,c),
(385,81,l),
(385,0,l),
(588,0,l),
(588,705,l),
(380,705,l),
(380,421,l),
(392,421,l),
(372,470,o),
(308,506,o),
(239,506,cs),
(113,506,o),
(24,408,o),
(24,247,cs),
(24,86,o),
(114,-12,o),
(239,-12,cs)
);
},
{
closed = 1;
nodes = (
(265,140,o),
(233,168,o),
(233,247,cs),
(233,326,o),
(265,354,o),
(308,354,cs),
(351,354,o),
(383,326,o),
(383,247,cs),
(383,168,o),
(351,140,o),
(308,140,cs)
);
}
);
};
layerId = "4121B50C-FD42-45C5-8FBE-41E76D98F91E";
shapes = (
{
closed = 1;
nodes = (
(311,-12,o),
(376,26,o),
(394,81,c),
(383,141,l),
(383,95,ls),
(383,27,o),
(419,-10,o),
(486,-10,cs),
(552,-10,o),
(588,27,o),
(588,95,cs),
(588,575,ls),
(588,643,o),
(551,680,o),
(484,680,cs),
(417,680,o),
(380,643,o),
(380,575,cs),
(380,421,l),
(392,421,l),
(372,470,o),
(308,506,o),
(239,506,cs),
(113,506,o),
(25,408,o),
(25,247,cs),
(25,86,o),
(114,-12,o),
(239,-12,cs)
);
},
{
closed = 1;
nodes = (
(265,140,o),
(233,168,o),
(233,247,cs),
(233,326,o),
(265,354,o),
(308,354,cs),
(351,354,o),
(383,326,o),
(383,247,cs),
(383,168,o),
(351,140,o),
(308,140,cs)
);
}
);
width = 632;
},
{
anchors = (
{
name = bottom;
pos = (250,0);
},
{
name = center;
pos = (289,245);
},
{
name = stroke;
pos = (467,580);
},
{
name = top;
pos = (327,484);
},
{
name = topright;
pos = (602,670);
}
);
background = {
anchors = (
{
name = bottom;
pos = (250,0);
},
{
name = center;
pos = (289,245);
},
{
name = stroke;
pos = (467,580);
},
{
name = top;
pos = (327,484);
},
{
name = topright;
pos = (606,705);
}
);
shapes = (
{
closed = 1;
nodes = (
(331,-8,o),
(398,39,o),
(432,113,c),
(420,113,l),
(402,0,l),
(444,0,l),
(556,705,l),
(514,705,l),
(460,362,l),
(467,362,l),
(444,451,o),
(374,492,o),
(293,492,cs),
(135,492,o),
(51,354,o),
(51,198,cs),
(51,71,o),
(127,-8,o),
(241,-8,cs)
);
},
{
closed = 1;
nodes = (
(151,31,o),
(94,88,o),
(94,198,cs),
(94,337,o),
(163,453,o),
(291,453,cs),
(387,453,o),
(444,396,o),
(444,286,cs),
(444,147,o),
(375,31,o),
(247,31,cs)
);
}
);
};
layerId = "D8D4984A-F5A5-43C0-BF2B-5708C10C5E92";
shapes = (
{
closed = 1;
nodes = (
(331,-8,o),
(398,39,o),
(432,113,c),
(421,113,l),
(406,19,ls),
(403,3,o),
(410,-6,o),
(423,-6,cs),
(437,-6,o),
(445,1,o),
(447,15,cs),
(547,651,ls),
(550,667,o),
(543,676,o),
(530,676,cs),
(516,676,o),
(508,669,o),
(506,655,cs),
(460,362,l),
(467,362,l),
(444,451,o),
(374,492,o),
(293,492,cs),
(135,492,o),
(51,354,o),
(51,198,cs),
(51,71,o),
(127,-8,o),
(241,-8,cs)
);
},
{
closed = 1;
nodes = (
(151,31,o),
(94,88,o),
(94,198,cs),
(94,337,o),
(163,453,o),
(291,453,cs),
(387,453,o),
(444,396,o),
(444,286,cs),
(444,147,o),
(375,31,o),
(247,31,cs)
);
}
);
width = 568;
},
{
anchors = (
{
name = bottom;
pos = (285,0);
},
{
name = center;
pos = (305,247);
},
{
name = stroke;
pos = (489,595);
},
{
name = top;
pos = (381,670);
},
{
name = topright;
pos = (682,670);
}
);
background = {
anchors = (
{
name = bottom;
pos = (285,0);
},
{
name = center;
pos = (305,247);
},
{
name = stroke;
pos = (489,595);
},
{
name = top;
pos = (390,705);
},
{
name = topright;
pos = (691,705);
}
);
shapes = (
{
closed = 1;
nodes = (
(266,-12,o),
(324,18,o),
(361,70,c),
(357,70,l),
(346,0,l),
(549,0,l),
(661,705,l),
(453,705,l),
(408,423,l),
(418,422,l),
(395,475,o),
(341,506,o),
(273,506,cs),
(125,506,o),
(22,381,o),
(22,204,cs),
(22,72,o),
(93,-12,o),
(203,-12,cs)
);
},
{
closed = 1;
nodes = (
(254,140,o),
(231,168,o),
(231,216,cs),
(231,299,o),
(266,354,o),
(320,354,cs),
(358,354,o),
(381,326,o),
(381,278,cs),
(381,196,o),
(346,140,o),
(292,140,cs)
);
}
);
};
layerId = "C92D7C27-2246-4784-91DF-7F4E0C5E615D";
shapes = (
{
closed = 1;
nodes = (
(266,-12,o),
(324,18,o),
(363,70,c),
(366,130,l),
(363,112,ls),
(350,36,o),
(381,-10,o),
(446,-10,cs),
(514,-10,o),
(553,25,o),
(564,93,cs),
(638,559,ls),
(650,635,o),
(618,680,o),
(553,680,cs),
(484,680,o),
(444,645,o),
(433,577,cs),
(408,423,l),
(418,422,l),
(395,475,o),
(341,506,o),
(273,506,cs),
(125,506,o),
(22,381,o),
(22,204,cs),
(22,72,o),
(93,-12,o),
(203,-12,cs)
);
},
{
closed = 1;
nodes = (
(254,140,o),
(231,168,o),
(231,216,cs),
(231,299,o),
(266,354,o),
(320,354,cs),
(358,354,o),
(381,326,o),
(381,278,cs),
(381,196,o),
(346,140,o),
(292,140,cs)
);
}
);
width = 632;
},
{
anchors = (
{
name = bottom;
pos = (302,0);
},
{
name = center;
pos = (296,246);
},
{
name = stroke;
pos = (423,588);
},
{
name = top;
pos = (301,670);
},
{
name = topright;
pos = (576,670);
}
);
background = {
anchors = (
{
name = bottom;
pos = (301,0);
},
{
name = center;
pos = (295,246);
},
{
name = stroke;
pos = (422,588);
},
{
name = top;
pos = (300,705);
},
{
name = topright;
pos = (575,705);
}
);
shapes = (
{
closed = 1;
nodes = (
(335,-10,o),
(402,35,o),
(422,104,c),
(413,104,l),
(413,0,l),
(535,0,l),
(535,705,l),
(410,705,l),
(410,390,l),
(421,390,l),
(400,455,o),
(334,499,o),
(253,499,cs),
(124,499,o),
(38,402,o),
(38,245,cs),
(38,88,o),
(125,-10,o),
(253,-10,cs)
);
},
{
closed = 1;
nodes = (
(213,85,o),
(164,139,o),
(164,245,cs),
(164,351,o),
(213,404,o),
(288,404,cs),
(362,404,o),
(412,351,o),
(412,245,cs),
(412,139,o),
(362,85,o),
(288,85,cs)
);
}
);
};
layerId = "18203F29-5161-4D9B-8394-C173CC5E27D4";
shapes = (
{
closed = 1;
nodes = (
(335,-10,o),
(402,35,o),
(422,104,c),
(411,134,l),
(411,56,ls),
(411,15,o),
(433,-8,o),
(473,-8,cs),
(513,-8,o),
(535,15,o),
(535,56,cs),
(535,615,ls),
(535,656,o),
(512,678,o),
(472,678,cs),
(432,678,o),
(410,656,o),
(410,615,cs),
(410,390,l),
(421,390,l),
(400,455,o),
(334,499,o),
(253,499,cs),
(124,499,o),
(39,402,o),
(39,245,cs),
(39,88,o),
(125,-10,o),
(253,-10,cs)
);
},
{
closed = 1;
nodes = (
(213,85,o),
(164,139,o),
(164,245,cs),
(164,351,o),
(213,404,o),
(288,404,cs),
(362,404,o),
(412,351,o),
(412,245,cs),
(412,139,o),
(362,85,o),
(288,85,cs)
);
}
);
width = 600;
},
{
anchors = (
{
name = bottom;
pos = (268,0);
},
{
name = center;
pos = (297,246);
},
{
name = stroke;
pos = (478,588);
},
{
name = top;
pos = (359,595);
},
{
name = topright;
pos = (640,670);
}
);
background = {
anchors = (
{
name = bottom;
pos = (268,0);
},
{
name = center;
pos = (297,246);
},
{
name = stroke;
pos = (478,588);
},
{
name = top;
pos = (359,595);
},
{
name = topright;
pos = (649,705);
}
);
shapes = (
{
closed = 1;
nodes = (
(297,-10,o),
(359,29,o),
(395,92,c),
(389,92,l),
(374,0,l),
(496,0,l),
(608,705,l),
(483,705,l),
(434,393,l),
(441,392,l),
(418,463,o),
(356,499,o),
(281,499,cs),
(129,499,o),
(36,368,o),
(36,201,cs),
(36,72,o),
(109,-10,o),
(220,-10,cs)
);
},
{
closed = 1;
nodes = (
(202,85,o),
(162,128,o),
(162,207,cs),
(162,318,o),
(214,404,o),
(305,404,cs),
(372,404,o),
(412,361,o),
(412,282,cs),
(412,171,o),
(360,85,o),
(269,85,cs)
);
}
);
};
layerId = "8FF16B21-C988-4EC9-A448-39B9B4A4BD78";
shapes = (
{
closed = 1;
nodes = (
(297,-10,o),
(359,29,o),
(395,92,c),
(394,122,l),
(385,67,ls),
(377,21,o),
(394,-8,o),
(433,-8,cs),
(474,-8,o),
(498,14,o),
(505,56,cs),
(593,607,ls),
(600,653,o),
(581,678,o),
(542,678,cs),
(501,678,o),
(477,660,o),
(470,619,cs),
(434,393,l),
(441,392,l),
(418,463,o),
(357,499,o),
(282,499,cs),
(129,499,o),
(36,368,o),
(36,201,cs),
(36,72,o),
(109,-10,o),
(220,-10,cs)
);
},
{
closed = 1;
nodes = (
(202,85,o),
(162,128,o),
(162,207,cs),
(162,318,o),
(214,404,o),
(305,404,cs),
(372,404,o),
(412,361,o),
(412,282,cs),
(412,172,o),
(360,85,o),
(269,85,cs)
);
}
);
width = 600;
}
);
unicode = 100;
userData = {
anchors = (
);
b = {
};
com.typemytype.robofont.layerData = {
b = {
anchors = (
);
components = (
);
contours = (
);
lib = {
};
name = d;
unicodes = (
);
width = 1181;
};
};
components = (
);
contours = (
);
lib = {
};
name = d;
unicodes = (
);
width = 1207;
};
}
{
color = 6;
glyphname = h;
kernLeft = h;
kernRight = n;
layers = (
{
anchors = (
{
name = bottom;
pos = (277,0);
},
{
name = center;
pos = (277,245);
},
{
name = dot;
pos = (204,353);
},
{
name = stroke;
pos = (157,580);
},
{
name = top;
pos = (278,670);
},
{
name = topright;
pos = (169,670);
}
);
background = {
anchors = (
{
name = bottom;
pos = (277,0);
},
{
name = center;
pos = (277,245);
},
{
name = dot;
pos = (204,353);
},
{
name = stroke;
pos = (157,580);
},
{
name = top;
pos = (278,705);
},
{
name = topright;
pos = (169,705);
}
);
shapes = (
{
closed = 1;
nodes = (
(127,0,l),
(127,278,ls),
(127,384,o),
(194,453,o),
(297,453,cs),
(389,453,o),
(428,406,o),
(428,304,cs),
(428,0,l),
(470,0,l),
(470,308,ls),
(470,430,o),
(413,492,o),
(297,492,cs),
(212,492,o),
(141,450,o),
(115,366,c),
(127,366,l),
(127,705,l),
(85,705,l),
(85,0,l)
);
}
);
};
layerId = "F1F93986-3ED8-4AAE-84C4-CA3EEECDDFA0";
shapes = (
{
closed = 1;
nodes = (
(120,-6,o),
(127,2,o),
(127,16,cs),
(127,278,ls),
(127,384,o),
(194,453,o),
(297,453,cs),
(389,453,o),
(428,406,o),
(428,304,cs),
(428,16,ls),
(428,2,o),
(436,-6,o),
(449,-6,cs),
(462,-6,o),
(470,2,o),
(470,16,cs),
(470,308,ls),
(470,430,o),
(413,492,o),
(297,492,cs),
(212,492,o),
(141,450,o),
(115,366,c),
(127,366,l),
(127,654,ls),
(127,668,o),
(119,676,o),
(106,676,cs),
(93,676,o),
(85,668,o),
(85,654,cs),
(85,16,ls),
(85,2,o),
(93,-6,o),
(106,-6,cs)
);
}
);
width = 553;
},
{
anchors = (
{
name = bottom;
pos = (311,0);
},
{
name = center;
pos = (311,250);
},
{
name = dot;
pos = (402,350);
},
{
name = stroke;
pos = (198,595);
},
{
name = top;
pos = (310,670);
},
{
name = topright;
pos = (270,670);
}
);
background = {
anchors = (
{
name = bottom;
pos = (311,0);
},
{
name = center;
pos = (311,250);
},
{
name = dot;
pos = (402,350);
},
{
name = stroke;
pos = (198,595);
},
{
name = top;
pos = (310,705);
},
{
name = topright;
pos = (270,705);
}
);
shapes = (
{
closed = 1;
nodes = (
(252,0,l),
(252,272,ls),
(252,318,o),
(280,348,o),
(322,348,cs),
(351,348,o),
(368,330,o),
(368,279,cs),
(368,0,l),
(576,0,l),
(576,287,ls),
(576,436,o),
(520,506,o),
(403,506,cs),
(330,506,o),
(269,472,o),
(236,415,c),
(252,415,l),
(252,705,l),
(44,705,l),
(44,0,l)
);
}
);
};
layerId = "4121B50C-FD42-45C5-8FBE-41E76D98F91E";
shapes = (
{
closed = 1;
nodes = (
(216,-10,o),
(252,27,o),
(252,95,cs),
(252,272,ls),
(252,318,o),
(280,348,o),
(322,348,cs),
(351,348,o),
(368,330,o),
(368,279,cs),
(368,95,ls),
(368,27,o),
(405,-10,o),
(472,-10,cs),
(539,-10,o),
(576,27,o),
(576,95,cs),
(576,287,ls),
(576,436,o),
(520,506,o),
(403,506,cs),
(330,506,o),
(269,472,o),
(236,415,c),
(252,415,l),
(252,575,ls),
(252,643,o),
(215,680,o),
(148,680,cs),
(81,680,o),
(44,643,o),
(44,575,cs),
(44,95,ls),
(44,27,o),
(81,-10,o),
(148,-10,cs)
);
}
);
width = 619;
},
{
anchors = (
{
name = bottom;
pos = (246,0);
},
{
name = center;
pos = (277,245);
},
{
name = dot;
pos = (221,353);
},
{
name = stroke;
pos = (210,580);
},
{
name = top;
pos = (339,670);
},
{
name = topright;
pos = (230,670);
}
);
background = {
anchors = (
{
name = bottom;
pos = (246,0);
},
{
name = center;
pos = (277,245);
},
{
name = dot;
pos = (221,353);
},
{
name = stroke;
pos = (210,580);
},
{
name = top;
pos = (351,705);
},
{
name = topright;
pos = (242,705);
}
);
shapes = (
{
closed = 1;
nodes = (
(89,0,l),
(131,264,ls),
(149,378,o),
(215,453,o),
(330,453,cs),
(417,453,o),
(453,402,o),
(436,296,cs),
(389,0,l),
(431,0,l),
(478,295,ls),
(499,428,o),
(439,492,o),
(331,492,cs),
(236,492,o),
(168,444,o),
(135,364,c),
(147,364,l),
(201,705,l),
(159,705,l),
(47,0,l)
);
}
);
};
layerId = "D8D4984A-F5A5-43C0-BF2B-5708C10C5E92";
shapes = (
{
closed = 1;
nodes = (
(81,-6,o),
(90,1,o),
(92,15,cs),
(131,264,ls),
(149,378,o),
(215,453,o),
(330,453,cs),
(417,453,o),
(453,402,o),
(436,296,cs),
(392,19,ls),
(389,3,o),
(396,-6,o),
(409,-6,cs),
(423,-6,o),
(432,1,o),
(434,15,cs),
(478,295,ls),
(499,428,o),
(439,492,o),
(331,492,cs),
(236,492,o),
(168,444,o),
(135,364,c),
(146,364,l),
(192,651,ls),
(195,667,o),
(188,676,o),
(175,676,cs),
(161,676,o),
(153,669,o),
(151,655,cs),
(50,19,ls),
(47,3,o),
(54,-6,o),
(67,-6,cs)
);
}
);
width = 553;
},
{
anchors = (
{
name = bottom;
pos = (272,0);
},
{
name = center;
pos = (311,250);
},
{
name = dot;
pos = (418,350);
},
{
name = stroke;
pos = (253,595);
},
{
name = top;
pos = (374,670);
},
{
name = topright;
pos = (337,670);
}
);
background = {
anchors = (
{
name = bottom;
pos = (272,0);
},
{
name = center;
pos = (311,250);
},
{
name = dot;
pos = (418,350);
},
{
name = stroke;
pos = (253,595);
},
{
name = top;
pos = (379,705);
},
{
name = topright;
pos = (342,705);
}
);
shapes = (
{
closed = 1;
nodes = (
(213,0,l),
(254,261,ls),
(263,317,o),
(293,348,o),
(335,348,cs),
(371,348,o),
(380,326,o),
(374,286,cs),
(329,0,l),
(537,0,l),
(583,290,ls),
(607,442,o),
(540,506,o),
(434,506,cs),
(361,506,o),
(302,475,o),
(268,416,c),
(279,416,l),
(325,705,l),
(117,705,l),
(5,0,l)
);
}
);
};
layerId = "C92D7C27-2246-4784-91DF-7F4E0C5E615D";
shapes = (
{
closed = 1;
nodes = (
(177,-10,o),
(216,25,o),
(227,93,cs),
(254,261,ls),
(263,317,o),
(293,348,o),
(335,348,cs),
(371,348,o),
(380,326,o),
(374,286,cs),
(346,111,ls),
(334,35,o),
(367,-10,o),
(432,-10,cs),
(501,-10,o),
(541,25,o),
(552,93,cs),
(583,290,ls),
(607,442,o),
(540,506,o),
(434,506,cs),
(361,506,o),
(302,475,o),
(268,416,c),
(279,416,l),
(302,559,ls),
(314,635,o),
(282,680,o),
(217,680,cs),
(148,680,o),
(108,645,o),
(97,577,cs),
(23,111,ls),
(11,35,o),
(43,-10,o),
(108,-10,cs)
);
}
);
width = 618;
},
{
anchors = (
{
name = bottom;
pos = (275,0);
},
{
name = center;
pos = (275,248);
},
{
name = dot;
pos = (284,352);
},
{
name = stroke;
pos = (159,588);
},
{
name = top;
pos = (275,670);
},
{
name = topright;
pos = (201,670);
}
);
background = {
anchors = (
{
name = bottom;
pos = (275,0);
},
{
name = center;
pos = (275,248);
},
{
name = dot;
pos = (284,352);
},
{
name = stroke;
pos = (159,588);
},
{
name = top;
pos = (275,705);
},
{
name = topright;
pos = (201,705);
}
);
shapes = (
{
closed = 1;
nodes = (
(171,0,l),
(171,275,ls),
(171,351,o),
(218,401,o),
(291,401,cs),
(351,401,o),
(379,368,o),
(379,292,cs),
(379,0,l),
(504,0,l),
(504,298,ls),
(504,433,o),
(448,499,o),
(331,499,cs),
(252,499,o),
(186,461,o),
(157,391,c),
(171,391,l),
(171,705,l),
(46,705,l),
(46,0,l)
);
}
);
};
layerId = "18203F29-5161-4D9B-8394-C173CC5E27D4";
shapes = (
{
closed = 1;
nodes = (
(152,-8,o),
(171,15,o),
(171,56,cs),
(171,275,ls),
(171,351,o),
(218,401,o),
(291,401,cs),
(351,401,o),
(379,368,o),
(379,292,cs),
(379,56,ls),
(379,15,o),
(400,-8,o),
(440,-8,cs),
(474,-8,o),
(498,15,o),
(498,56,cs),
(498,298,ls),
(498,433,o),
(448,499,o),
(331,499,cs),
(252,499,o),
(186,461,o),
(157,391,c),
(171,391,l),
(171,610,ls),
(171,651,o),
(151,678,o),
(111,678,cs),
(71,678,o),
(52,651,o),
(52,610,cs),
(52,56,ls),
(52,15,o),
(71,-8,o),
(111,-8,cs)
);
}
);
width = 550;
},
{
anchors = (
{
name = bottom;
pos = (259,0);
},
{
name = center;
pos = (294,248);
},
{
name = dot;
pos = (320,352);
},
{
name = stroke;
pos = (232,588);
},
{
name = top;
pos = (358,670);
},
{
name = topright;
pos = (285,670);
}
);
background = {
anchors = (
{
name = bottom;
pos = (259,0);
},
{
name = center;
pos = (294,248);
},
{
name = dot;
pos = (320,352);
},
{
name = stroke;
pos = (232,588);
},
{
name = top;
pos = (365,705);
},
{
name = topright;
pos = (292,705);
}
);
shapes = (
{
closed = 1;
nodes = (
(151,0,l),
(193,263,ls),
(206,348,o),
(254,401,o),
(333,401,cs),
(394,401,o),
(417,364,o),
(405,291,cs),
(359,0,l),
(484,0,l),
(530,293,ls),
(552,435,o),
(490,499,o),
(383,499,cs),
(299,499,o),
(235,460,o),
(202,390,c),
(213,390,l),
(263,705,l),
(138,705,l),
(26,0,l)
);
}
);
};
layerId = "8FF16B21-C988-4EC9-A448-39B9B4A4BD78";
shapes = (
{
closed = 1;
nodes = (
(129,-8,o),
(154,14,o),
(160,55,cs),
(193,263,ls),
(206,348,o),
(254,401,o),
(333,401,cs),
(394,401,o),
(417,364,o),
(405,291,cs),
(369,65,ls),
(362,19,o),
(382,-8,o),
(421,-8,cs),
(462,-8,o),
(487,14,o),
(493,55,cs),
(530,293,ls),
(552,435,o),
(490,499,o),
(383,499,cs),
(299,499,o),
(235,460,o),
(202,390,c),
(213,390,l),
(247,606,ls),
(254,652,o),
(234,678,o),
(195,678,cs),
(154,678,o),
(129,656,o),
(123,615,cs),
(37,67,ls),
(30,21,o),
(49,-8,o),
(88,-8,cs)
);
}
);
width = 585;
}
);
unicode = 104;
userData = {
anchors = (
);
b = {
};
com.typemytype.robofont.layerData = {
b = {
anchors = (
);
components = (
);
contours = (
);
lib = {
};
name = h;
unicodes = (
);
width = 1148;
};
};
components = (
);
contours = {
};
lib = {
};
name = h;
points = {
};
segmentType = curve;
unicodes = (
);
width = 1195;
x = 137;
y = 113;
};
}
{
color = 6;
glyphname = v;
kernLeft = v;
kernRight = v;
layers = (
{
anchors = (
{
name = bottom;
pos = (252,0);
},
{
name = top;
pos = (252,484);
}
);
background = {
anchors = (
{
name = bottom;
pos = (252,0);
},
{
name = top;
pos = (252,484);
}
);
shapes = (
{
closed = 1;
nodes = (
(276,0,l),
(482,484,l),
(435,484,l),
(240,15,l),
(264,15,l),
(70,484,l),
(22,484,l),
(228,0,l)
);
}
);
};
layerId = "F1F93986-3ED8-4AAE-84C4-CA3EEECDDFA0";
shapes = (
{
closed = 1;
nodes = (
(266,-6,o),
(278,3,o),
(285,20,cs),
(470,456,ls),
(477,473,o),
(473,490,o),
(454,490,cs),
(441,490,o),
(436,484,o),
(431,473,cs),
(240,15,l),
(264,15,l),
(74,473,ls),
(69,484,o),
(64,490,o),
(52,490,cs),
(32,490,o),
(25,474,o),
(33,455,cs),
(219,20,ls),
(227,2,o),
(237,-6,o),
(252,-6,cs)
);
}
);
width = 504;
},
{
anchors = (
{
name = bottom;
pos = (278,0);
},
{
name = top;
pos = (278,484);
}
);
background = {
anchors = (
{
name = bottom;
pos = (278,0);
},
{
name = top;
pos = (278,484);
}
);
shapes = (
{
closed = 1;
nodes = (
(358,0,l),
(581,494,l),
(378,494,l),
(262,204,l),
(298,204,l),
(189,494,l),
(-28,494,l),
(190,0,l)
);
}
);
};
layerId = "4121B50C-FD42-45C5-8FBE-41E76D98F91E";
shapes = (
{
closed = 1;
nodes = (
(329,-10,o),
(365,15,o),
(389,69,cs),
(526,373,ls),
(557,442,o),
(523,504,o),
(455,504,cs),
(401,504,o),
(374,485,o),
(349,422,cs),
(262,204,l),
(298,204,l),
(217,420,ls),
(192,486,o),
(164,504,o),
(115,504,cs),
(26,504,o),
(-4,442,o),
(26,373,cs),
(159,70,ls),
(183,16,o),
(220,-10,o),
(274,-10,cs)
);
}
);
width = 550;
},
{
anchors = (
{
name = bottom;
pos = (213,0);
},
{
name = top;
pos = (290,484);
}
);
background = {
anchors = (
{
name = bottom;
pos = (213,0);
},
{
name = top;
pos = (290,484);
}
);
shapes = (
{
closed = 1;
nodes = (
(237,0,l),
(520,484,l),
(471,484,l),
(201,15,l),
(225,15,l),
(106,484,l),
(60,484,l),
(189,0,l)
);
}
);
};
layerId = "D8D4984A-F5A5-43C0-BF2B-5708C10C5E92";
shapes = (
{
closed = 1;
nodes = (
(230,-6,o),
(238,1,o),
(246,15,cs),
(503,455,ls),
(514,474,o),
(506,490,o),
(488,490,cs),
(477,490,o),
(471,485,o),
(465,474,cs),
(201,15,l),
(225,15,l),
(109,470,ls),
(105,484,o),
(100,490,o),
(88,490,cs),
(70,490,o),
(62,476,o),
(67,457,cs),
(184,20,ls),
(189,3,o),
(197,-6,o),
(213,-6,cs)
);
}
);
width = 504;
},
{
anchors = (
{
name = bottom;
pos = (238,0);
},
{
name = top;
pos = (314,484);
}
);
background = {
anchors = (
{
name = bottom;
pos = (238,0);
},
{
name = top;
pos = (314,484);
}
);
shapes = (
{
closed = 1;
nodes = (
(318,0,l),
(618,494,l),
(406,494,l),
(245,204,l),
(281,204,l),
(217,494,l),
(10,494,l),
(149,0,l)
);
}
);
};
layerId = "C92D7C27-2246-4784-91DF-7F4E0C5E615D";
shapes = (
{
closed = 1;
nodes = (
(288,-10,o),
(325,11,o),
(355,61,cs),
(551,384,ls),
(589,447,o),
(562,504,o),
(484,504,cs),
(430,504,o),
(400,484,o),
(371,431,cs),
(245,204,l),
(281,204,l),
(235,412,ls),
(220,481,o),
(194,504,o),
(138,504,cs),
(64,504,o),
(23,448,o),
(46,367,cs),
(127,79,ls),
(144,19,o),
(180,-10,o),
(245,-10,cs)
);
}
);
width = 549;
},
{
anchors = (
{
name = bottom;
pos = (265,0);
},
{
name = top;
pos = (265,484);
}
);
background = {
anchors = (
{
name = bottom;
pos = (265,0);
},
{
name = top;
pos = (265,484);
}
);
shapes = (
{
closed = 1;
nodes = (
(317,0,l),
(532,489,l),
(407,489,l),
(251,110,l),
(281,110,l),
(130,489,l),
(-3,489,l),
(209,0,l)
);
}
);
};
layerId = "18203F29-5161-4D9B-8394-C173CC5E27D4";
shapes = (
{
closed = 1;
nodes = (
(298,-8,o),
(322,9,o),
(337,45,cs),
(499,415,ls),
(518,458,o),
(498,497,o),
(455,497,cs),
(421,497,o),
(405,485,o),
(390,448,cs),
(251,110,l),
(281,110,l),
(146,447,ls),
(131,485,o),
(114,497,o),
(84,497,cs),
(29,497,o),
(11,458,o),
(30,414,cs),
(189,45,ls),
(205,9,o),
(229,-8,o),
(263,-8,cs)
);
}
);
width = 527;
},
{
anchors = (
{
name = bottom;
pos = (226,0);
},
{
name = top;
pos = (302,484);
}
);
background = {
anchors = (
{
name = bottom;
pos = (226,0);
},
{
name = top;
pos = (302,484);
}
);
shapes = (
{
closed = 1;
nodes = (
(279,0,l),
(570,489,l),
(440,489,l),
(224,110,l),
(254,110,l),
(163,489,l),
(36,489,l),
(170,0,l)
);
}
);
};
layerId = "8FF16B21-C988-4EC9-A448-39B9B4A4BD78";
shapes = (
{
closed = 1;
nodes = (
(259,-8,o),
(282,6,o),
(302,39,cs),
(529,420,ls),
(553,461,o),
(536,497,o),
(488,497,cs),
(456,497,o),
(438,486,o),
(420,454,cs),
(224,110,l),
(254,110,l),
(175,440,ls),
(165,482,o),
(147,497,o),
(113,497,cs),
(67,497,o),
(43,461,o),
(57,411,cs),
(156,51,ls),
(167,12,o),
(189,-8,o),
(229,-8,cs)
);
}
);
width = 527;
}
);
unicode = 118;
userData = {
com.typemytype.robofont.layerData = {
b = {
anchors = (
);
components = (
);
contours = (
{
points = (
{
segmentType = line;
smooth = 0;
x = 518;
y = 0;
},
{
smooth = 0;
x = 589;
y = 0;
},
{
smooth = 0;
x = 618;
y = 36;
},
{
segmentType = curve;
smooth = 1;
x = 654;
y = 121;
},
{
segmentType = line;
smooth = 1;
x = 979;
y = 890;
},
{
smooth = 0;
x = 1000;
y = 940;
},
{
smooth = 0;
x = 968;
y = 991;
},
{
segmentType = curve;
smooth = 1;
x = 907;
y = 991;
},
{
smooth = 0;
x = 878;
y = 991;
},
{
smooth = 0;
x = 850;
y = 975;
},
{
segmentType = curve;
smooth = 1;
x = 836;
y = 940;
},
{
segmentType = line;
smooth = 0;
x = 518;
y = 166;
}
);
},
{
points = (
{
segmentType = curve;
smooth = 0;
x = 518;
y = 0;
},
{
segmentType = line;
smooth = 0;
x = 518;
y = 166;
},
{
segmentType = line;
smooth = 1;
x = 200;
y = 940;
},
{
smooth = 0;
x = 186;
y = 975;
},
{
smooth = 0;
x = 158;
y = 991;
},
{
segmentType = curve;
smooth = 1;
x = 129;
y = 991;
},
{
smooth = 0;
x = 68;
y = 991;
},
{
smooth = 0;
x = 36;
y = 940;
},
{
segmentType = curve;
smooth = 1;
x = 57;
y = 890;
},
{
segmentType = line;
smooth = 1;
x = 382;
y = 121;
},
{
smooth = 0;
x = 418;
y = 36;
},
{
smooth = 0;
x = 447;
y = 0;
}
);
}
);
lib = {
};
name = v;
unicodes = (
);
width = 1027;
};
};
};
}
{
color = 6;
glyphname = y;
kernLeft = v;
kernRight = v;
layers = (
{
anchors = (
{
name = bottom;
pos = (371,0);
},
{
name = top;
pos = (252,484);
}
);
background = {
anchors = (
{
name = bottom;
pos = (371,0);
},
{
name = top;
pos = (252,484);
}
);
shapes = (
{
closed = 1;
nodes = (
(199,-180,l),
(483,484,l),
(435,484,l),
(240,15,l),
(264,15,l),
(70,484,l),
(22,484,l),
(233,-13,l),
(233,7,l),
(152,-180,l)
);
}
);
};
layerId = "F1F93986-3ED8-4AAE-84C4-CA3EEECDDFA0";
shapes = (
{
closed = 1;
nodes = (
(180,-183,o),
(207,-162,o),
(236,-93,cs),
(470,456,ls),
(477,473,o),
(473,490,o),
(454,490,cs),
(441,490,o),
(436,485,o),
(431,473,cs),
(240,14,l),
(264,14,l),
(74,473,ls),
(69,484,o),
(64,490,o),
(52,490,cs),
(32,490,o),
(25,474,o),
(33,455,cs),
(233,-13,l),
(233,7,l),
(193,-84,l),
(174,-126,o),
(159,-150,o),
(140,-150,cs),
(123,-150,o),
(104,-148,o),
(103,-166,cs),
(102,-184,o),
(120,-183,o),
(140,-183,cs)
);
}
);
width = 503;
},
{
anchors = (
{
name = bottom;
pos = (449,0);
},
{
name = top;
pos = (275,484);
}
);
background = {
anchors = (
{
name = bottom;
pos = (449,0);
},
{
name = top;
pos = (275,484);
}
);
shapes = (
{
closed = 1;
nodes = (
(276,-180,l),
(580,494,l),
(377,494,l),
(261,204,l),
(297,204,l),
(188,494,l),
(-29,494,l),
(189,0,l),
(189,82,l),
(66,-180,l)
);
}
);
};
layerId = "4121B50C-FD42-45C5-8FBE-41E76D98F91E";
shapes = (
{
closed = 1;
nodes = (
(278,-184,o),
(325,-71,o),
(335,-48,cs),
(525,373,ls),
(556,442,o),
(523,504,o),
(455,504,cs),
(401,504,o),
(373,485,o),
(348,422,cs),
(261,204,l),
(297,204,l),
(216,420,ls),
(191,486,o),
(164,504,o),
(115,504,cs),
(26,504,o),
(-6,442,o),
(24,373,cs),
(189,0,l),
(189,82,l),
(153,3,ls),
(141,-22,o),
(119,-35,o),
(101,-35,cs),
(25,-35,o),
(13,-93,o),
(23,-122,cs),
(40,-172,o),
(73,-184,o),
(140,-184,cs)
);
}
);
width = 550;
},
{
anchors = (
{
name = bottom;
pos = (332,0);
},
{
name = top;
pos = (280,484);
}
);
background = {
anchors = (
{
name = bottom;
pos = (332,0);
},
{
name = top;
pos = (280,484);
}
);
shapes = (
{
closed = 1;
nodes = (
(132,-180,l),
(521,484,l),
(471,484,l),
(199,14,l),
(224,14,l),
(104,484,l),
(60,484,l),
(192,-13,l),
(195,7,l),
(86,-180,l)
);
}
);
};
layerId = "D8D4984A-F5A5-43C0-BF2B-5708C10C5E92";
shapes = (
{
closed = 1;
nodes = (
(126,-186,o),
(139,-168,o),
(145,-157,cs),
(504,455,ls),
(515,474,o),
(506,490,o),
(488,490,cs),
(477,490,o),
(471,485,o),
(465,474,cs),
(199,14,l),
(224,14,l),
(108,470,ls),
(104,484,o),
(100,490,o),
(87,490,cs),
(69,490,o),
(62,477,o),
(67,458,cs),
(192,-13,l),
(195,7,l),
(111,-137,ls),
(109,-141,o),
(102,-147,o),
(94,-147,cs),
(77,-147,o),
(65,-154,o),
(68,-171,cs),
(70,-183,o),
(80,-186,o),
(96,-186,cs)
);
}
);
width = 504;
},
{
anchors = (
{
name = bottom;
pos = (413,0);
},
{
name = top;
pos = (295,484);
}
);
background = {
anchors = (
{
name = bottom;
pos = (410,0);
},
{
name = top;
pos = (295,484);
}
);
shapes = (
{
closed = 1;
nodes = (
(208,-180,l),
(619,494,l),
(407,494,l),
(245,204,l),
(281,204,l),
(217,494,l),
(10,494,l),
(150,0,l),
(162,82,l),
(-2,-180,l)
);
}
);
};
layerId = "C92D7C27-2246-4784-91DF-7F4E0C5E615D";
shapes = (
{
closed = 1;
nodes = (
(188,-190,o),
(216,-169,o),
(247,-117,cs),
(552,384,ls),
(590,447,o),
(562,504,o),
(484,504,cs),
(430,504,o),
(401,484,o),
(372,431,cs),
(245,204,l),
(281,204,l),
(235,412,ls),
(220,481,o),
(194,504,o),
(138,504,cs),
(64,504,o),
(23,448,o),
(46,367,cs),
(150,0,l),
(162,82,l),
(76,-56,ls),
(73,-61,o),
(70,-65,o),
(67,-70,cs),
(52,-94,o),
(47,-118,o),
(51,-138,cs),
(58,-168,o),
(86,-190,o),
(134,-190,cs)
);
}
);
width = 549;
},
{
anchors = (
{
name = bottom;
pos = (410,0);
},
{
name = top;
pos = (264,484);
}
);
background = {
anchors = (
{
name = bottom;
pos = (410,0);
},
{
name = top;
pos = (264,484);
}
);
shapes = (
{
closed = 1;
nodes = (
(238,-180,l),
(532,489,l),
(406,489,l),
(251,110,l),
(281,110,l),
(129,489,l),
(-4,489,l),
(211,-7,l),
(211,45,l),
(109,-180,l)
);
}
);
};
layerId = "18203F29-5161-4D9B-8394-C173CC5E27D4";
shapes = (
{
closed = 1;
nodes = (
(198,-184,o),
(250,-153,o),
(287,-68,cs),
(499,415,ls),
(518,458,o),
(498,497,o),
(455,497,cs),
(421,497,o),
(404,485,o),
(389,448,cs),
(251,110,l),
(281,110,l),
(146,447,ls),
(131,485,o),
(114,497,o),
(84,497,cs),
(29,497,o),
(10,458,o),
(29,414,cs),
(211,-7,l),
(211,45,l),
(173,-39,l),
(159,-69,o),
(146,-75,o),
(136,-75,cs),
(107,-75,o),
(81,-94,o),
(80,-126,cs),
(80,-155,o),
(101,-184,o),
(139,-184,cs)
);
}
);
width = 528;
},
{
anchors = (
{
name = bottom;
pos = (371,0);
},
{
name = top;
pos = (288,484);
}
);
background = {
anchors = (
{
name = bottom;
pos = (371,0);
},
{
name = top;
pos = (288,484);
}
);
shapes = (
{
closed = 1;
nodes = (
(170,-180,l),
(570,489,l),
(439,489,l),
(222,109,l),
(253,109,l),
(161,489,l),
(35,489,l),
(171,-7,l),
(179,45,l),
(42,-180,l)
);
}
);
};
layerId = "8FF16B21-C988-4EC9-A448-39B9B4A4BD78";
shapes = (
{
closed = 1;
nodes = (
(156,-188,o),
(173,-175,o),
(192,-143,c),
(528,419,ls),
(552,460,o),
(534,497,o),
(486,497,cs),
(454,497,o),
(436,484,o),
(418,452,cs),
(222,109,l),
(253,109,l),
(173,440,ls),
(163,482,o),
(148,497,o),
(113,497,cs),
(67,497,o),
(42,461,o),
(56,411,cs),
(171,-7,l),
(179,45,l),
(93,-97,ls),
(90,-102,o),
(87,-106,o),
(84,-111,cs),
(75,-126,o),
(71,-141,o),
(74,-154,cs),
(77,-174,o),
(94,-188,o),
(124,-188,cs)
);
}
);
width = 526;
},
{
anchors = (
{
name = bottom;
pos = (371,0);
},
{
name = top;
pos = (288,484);
}
);
associatedMasterId = "8FF16B21-C988-4EC9-A448-39B9B4A4BD78";
background = {
anchors = (
{
name = bottom;
pos = (371,0);
},
{
name = top;
pos = (288,484);
}
);
shapes = (
{
closed = 1;
nodes = (
(170,-180,l),
(570,489,l),
(439,489,l),
(222,109,l),
(253,109,l),
(161,489,l),
(35,489,l),
(171,-7,l),
(179,45,l),
(42,-180,l)
);
}
);
};
layerId = "9C235170-FF59-4CD1-B287-77597218767E";
name = "27 Nov 25 at 12:25";
shapes = (
{
closed = 1;
nodes = (
(156,-188,o),
(173,-175,o),
(192,-143,cs),
(195,-138,o),
(199,-132,o),
(202,-127,c),
(210,-114,l),
(528,419,ls),
(552,460,o),
(534,497,o),
(486,497,cs),
(454,497,o),
(436,484,o),
(418,452,cs),
(222,109,l),
(253,109,l),
(173,440,ls),
(163,482,o),
(148,497,o),
(113,497,cs),
(67,497,o),
(42,461,o),
(56,411,cs),
(171,-7,l),
(179,45,l),
(100,-84,l),
(93,-97,l),
(90,-102,o),
(87,-106,o),
(84,-111,cs),
(60,-151,o),
(76,-188,o),
(124,-188,cs)
);
}
);
width = 526;
}
);
unicode = 121;
userData = {
com.typemytype.robofont.layerData = {
b = {
anchors = (
);
components = (
);
contours = (
{
points = (
{
segmentType = line;
smooth = 0;
x = 502;
y = 10;
},
{
segmentType = line;
smooth = 0;
x = 585;
y = 181;
},
{
segmentType = line;
smooth = 1;
x = 241;
y = 931;
},
{
smooth = 0;
x = 225;
y = 966;
},
{
smooth = 0;
x = 201;
y = 984;
},
{
segmentType = curve;
smooth = 1;
x = 171;
y = 984;
},
{
smooth = 0;
x = 117;
y = 984;
},
{
smooth = 0;
x = 64;
y = 936;
},
{
segmentType = curve;
smooth = 0;
x = 91;
y = 887;
}
);
},
{
points = (
{
segmentType = curve;
smooth = 1;
x = 365;
y = "-388";
},
{
smooth = 0;
x = 396;
y = "-388";
},
{
smooth = 0;
x = 424;
y = "-373";
},
{
segmentType = curve;
smooth = 1;
x = 442;
y = "-334";
},
{
segmentType = line;
smooth = 1;
x = 1009;
y = 888;
},
{
smooth = 0;
x = 1013;
y = 898;
},
{
smooth = 0;
x = 1016;
y = 908;
},
{
segmentType = curve;
smooth = 1;
x = 1016;
y = 918;
},
{
smooth = 0;
x = 1018;
y = 962;
},
{
smooth = 0;
x = 978;
y = 990;
},
{
segmentType = curve;
smooth = 1;
x = 938;
y = 990;
},
{
smooth = 0;
x = 910;
y = 990;
},
{
smooth = 0;
x = 883;
y = 977;
},
{
segmentType = curve;
smooth = 0;
x = 866;
y = 941;
},
{
segmentType = line;
smooth = 1;
x = 299;
y = "-286";
},
{
smooth = 0;
x = 272;
y = "-344";
},
{
smooth = 0;
x = 316;
y = "-388";
}
);
}
);
lib = {
};
name = y;
unicodes = (
);
width = 1029;
};
};
};
}
{
color = 6;
glyphname = z;
kernLeft = z;
kernRight = z;
layers = (
{
anchors = (
{
name = bottom;
pos = (235,0);
},
{
name = top;
pos = (235,484);
}
);
background = {
anchors = (
{
name = bottom;
pos = (235,0);
},
{
name = top;
pos = (235,484);
}
);
shapes = (
{
closed = 1;
nodes = (
(421,0,l),
(421,36,l),
(100,36,l),
(100,22,l),
(410,454,l),
(410,484,l),
(60,484,l),
(60,448,l),
(369,448,l),
(369,461,l),
(60,30,l),
(60,0,l)
);
}
);
};
layerId = "F1F93986-3ED8-4AAE-84C4-CA3EEECDDFA0";
shapes = (
{
closed = 1;
nodes = (
(408,0,ls),
(420,0,o),
(427,7,o),
(427,18,cs),
(427,29,o),
(420,36,o),
(408,36,cs),
(100,36,l),
(100,22,l),
(406,448,ls),
(419,466,o),
(415,484,o),
(390,484,cs),
(73,484,ls),
(61,484,o),
(54,477,o),
(54,466,cs),
(54,455,o),
(61,448,o),
(73,448,cs),
(369,448,l),
(369,461,l),
(66,38,ls),
(51,18,o),
(56,0,o),
(77,0,cs)
);
}
);
width = 454;
},
{
anchors = (
{
name = bottom;
pos = (251,0);
},
{
name = top;
pos = (251,484);
}
);
background = {
anchors = (
{
name = bottom;
pos = (251,0);
},
{
name = top;
pos = (251,484);
}
);
shapes = (
{
closed = 1;
nodes = (
(474,0,l),
(474,152,l),
(215,152,l),
(215,99,l),
(464,362,l),
(464,494,l),
(38,494,l),
(38,342,l),
(281,342,l),
(281,388,l),
(38,132,l),
(38,0,l)
);
}
);
};
layerId = "4121B50C-FD42-45C5-8FBE-41E76D98F91E";
shapes = (
{
closed = 1;
nodes = (
(407,0,ls),
(457,0,o),
(484,27,o),
(484,76,cs),
(484,125,o),
(457,152,o),
(407,152,cs),
(215,152,l),
(215,99,l),
(437,333,ls),
(498,397,o),
(472,494,o),
(380,494,cs),
(105,494,ls),
(55,494,o),
(28,467,o),
(28,418,cs),
(28,369,o),
(55,342,o),
(105,342,cs),
(281,342,l),
(281,388,l),
(65,161,ls),
(4,97,o),
(30,0,o),
(112,0,cs)
);
}
);
width = 494;
},
{
anchors = (
{
name = bottom;
pos = (208,0);
},
{
name = top;
pos = (269,484);
}
);
background = {
anchors = (
{
name = bottom;
pos = (208,0);
},
{
name = top;
pos = (269,484);
}
);
shapes = (
{
closed = 1;
nodes = (
(382,0,l),
(388,35,l),
(67,35,l),
(70,22,l),
(443,455,l),
(448,484,l),
(99,484,l),
(93,449,l),
(402,449,l),
(399,461,l),
(27,29,l),
(22,0,l)
);
}
);
};
layerId = "D8D4984A-F5A5-43C0-BF2B-5708C10C5E92";
shapes = (
{
closed = 1;
nodes = (
(370,0,ls),
(383,0,o),
(391,8,o),
(391,21,cs),
(391,30,o),
(384,35,o),
(372,35,cs),
(67,35,l),
(70,22,l),
(438,449,ls),
(455,468,o),
(447,484,o),
(428,484,cs),
(111,484,ls),
(98,484,o),
(90,477,o),
(90,464,cs),
(90,455,o),
(97,449,o),
(109,449,cs),
(402,449,l),
(399,461,l),
(29,31,ls),
(16,16,o),
(26,0,o),
(42,0,cs)
);
}
);
width = 454;
},
{
anchors = (
{
name = bottom;
pos = (217,0);
},
{
name = top;
pos = (286,484);
}
);
background = {
anchors = (
{
name = bottom;
pos = (217,0);
},
{
name = top;
pos = (286,484);
}
);
shapes = (
{
closed = 1;
nodes = (
(435,0,l),
(458,152,l),
(199,152,l),
(204,99,l),
(482,362,l),
(503,494,l),
(77,494,l),
(53,342,l),
(296,342,l),
(290,388,l),
(20,132,l),
(-1,0,l)
);
}
);
};
layerId = "C92D7C27-2246-4784-91DF-7F4E0C5E615D";
shapes = (
{
closed = 1;
nodes = (
(367,0,ls),
(422,0,o),
(458,35,o),
(458,89,cs),
(458,130,o),
(429,152,o),
(377,152,cs),
(199,152,l),
(204,99,l),
(455,336,ls),
(529,406,o),
(501,494,o),
(406,494,cs),
(145,494,ls),
(89,494,o),
(54,459,o),
(54,403,cs),
(54,364,o),
(83,342,o),
(134,342,cs),
(296,342,l),
(290,388,l),
(43,154,ls),
(-28,86,o),
(1,0,o),
(96,0,cs)
);
}
);
width = 494;
},
{
anchors = (
{
name = bottom;
pos = (243,0);
},
{
name = top;
pos = (243,484);
}
);
background = {
anchors = (
{
name = bottom;
pos = (243,0);
},
{
name = top;
pos = (243,484);
}
);
shapes = (
{
closed = 1;
nodes = (
(448,0,l),
(448,94,l),
(158,94,l),
(158,61,l),
(437,408,l),
(437,489,l),
(49,489,l),
(49,395,l),
(325,395,l),
(325,425,l),
(49,81,l),
(49,0,l)
);
}
);
};
layerId = "18203F29-5161-4D9B-8394-C173CC5E27D4";
shapes = (
{
closed = 1;
nodes = (
(408,0,ls),
(439,0,o),
(456,17,o),
(456,47,cs),
(456,77,o),
(439,94,o),
(408,94,cs),
(158,94,l),
(158,61,l),
(422,391,ls),
(459,432,o),
(444,489,o),
(385,489,cs),
(89,489,ls),
(58,489,o),
(41,472,o),
(41,442,cs),
(41,412,o),
(58,395,o),
(89,395,cs),
(325,395,l),
(325,425,l),
(66,100,ls),
(28,58,o),
(43,0,o),
(95,0,cs)
);
}
);
width = 474;
},
{
anchors = (
{
name = bottom;
pos = (213,0);
},
{
name = top;
pos = (278,484);
}
);
background = {
anchors = (
{
name = bottom;
pos = (213,0);
},
{
name = top;
pos = (278,484);
}
);
shapes = (
{
closed = 1;
nodes = (
(409,0,l),
(424,94,l),
(133,94,l),
(137,61,l),
(463,409,l),
(476,489,l),
(88,489,l),
(73,395,l),
(349,395,l),
(345,425,l),
(24,81,l),
(11,0,l)
);
}
);
};
layerId = "8FF16B21-C988-4EC9-A448-39B9B4A4BD78";
shapes = (
{
closed = 1;
nodes = (
(369,0,ls),
(403,0,o),
(425,22,o),
(425,55,cs),
(425,80,o),
(407,94,o),
(375,94,cs),
(133,94,l),
(137,61,l),
(447,392,ls),
(490,438,o),
(474,489,o),
(417,489,cs),
(128,489,ls),
(94,489,o),
(72,468,o),
(72,434,cs),
(72,410,o),
(90,395,o),
(122,395,cs),
(349,395,l),
(345,425,l),
(36,94,ls),
(-5,51,o),
(14,0,o),
(69,0,cs)
);
}
);
width = 474;
}
);
unicode = 122;
}
{
color = 6;
glyphname = braceleft;
kernLeft = hyphen;
kernRight = braceleft;
layers = (
{
background = {
shapes = (
{
closed = 1;
nodes = (
(314,-180,l),
(314,-143,l),
(236,-143,ls),
(206,-143,o),
(191,-128,o),
(191,-97,cs),
(191,165,ls),
(191,224,o),
(156,265,o),
(105,265,c),
(105,261,l),
(156,261,o),
(191,302,o),
(191,361,cs),
(191,622,ls),
(191,653,o),
(206,668,o),
(236,668,cs),
(314,668,l),
(314,705,l),
(231,705,ls),
(177,705,o),
(149,676,o),
(149,620,cs),
(149,364,ls),
(149,308,o),
(128,285,o),
(73,282,cs),
(54,281,l),
(54,245,l),
(73,244,ls),
(128,241,o),
(149,218,o),
(149,162,cs),
(149,-95,ls),
(149,-151,o),
(177,-180,o),
(231,-180,cs)
);
}
);
};
guides = (
{
pos = (-591,321);
},
{
pos = (-591,361);
},
{
pos = (400,845);
}
);
layerId = "F1F93986-3ED8-4AAE-84C4-CA3EEECDDFA0";
shapes = (
{
closed = 1;
nodes = (
(300,-180,ls),
(311,-180,o),
(320,-172,o),
(320,-162,cs),
(320,-152,o),
(311,-143,o),
(300,-143,cs),
(236,-143,ls),
(206,-143,o),
(191,-128,o),
(191,-97,cs),
(191,242,ls),
(191,301,o),
(156,342,o),
(105,342,c),
(105,338,l),
(156,338,o),
(191,379,o),
(191,438,cs),
(191,762,ls),
(191,793,o),
(206,808,o),
(236,808,cs),
(300,808,ls),
(311,808,o),
(320,816,o),
(320,827,cs),
(320,837,o),
(311,845,o),
(300,845,cs),
(231,845,ls),
(177,845,o),
(149,816,o),
(149,760,cs),
(149,441,ls),
(149,385,o),
(128,360,o),
(67,359,cs),
(56,359,o),
(48,350,o),
(48,340,cs),
(48,330,o),
(56,321,o),
(67,321,cs),
(128,320,o),
(149,295,o),
(149,239,cs),
(149,-95,ls),
(149,-151,o),
(177,-180,o),
(231,-180,cs)
);
}
);
width = 318;
},
{
background = {
shapes = (
{
closed = 1;
nodes = (
(444,-180,l),
(444,-28,l),
(385,-28,ls),
(356,-28,o),
(345,-16,o),
(345,14,cs),
(345,134,ls),
(345,200,o),
(293,263,o),
(239,263,c),
(239,259,l),
(293,259,o),
(345,323,o),
(345,389,cs),
(345,511,ls),
(345,541,o),
(356,553,o),
(385,553,cs),
(444,553,l),
(444,705,l),
(296,705,ls),
(197,705,o),
(137,645,o),
(137,547,cs),
(137,415,ls),
(137,363,o),
(124,344,o),
(85,340,cs),
(32,335,l),
(32,188,l),
(85,183,ls),
(124,179,o),
(137,160,o),
(137,108,cs),
(137,-22,ls),
(137,-120,o),
(197,-180,o),
(296,-180,cs)
);
}
);
};
layerId = "4121B50C-FD42-45C5-8FBE-41E76D98F91E";
shapes = (
{
closed = 1;
nodes = (
(369,-180,ls),
(418,-180,o),
(454,-148,o),
(454,-104,cs),
(454,-60,o),
(429,-28,o),
(385,-28,cs),
(380,-28,ls),
(355,-28,o),
(345,-14,o),
(345,14,cs),
(345,213,ls),
(345,279,o),
(293,342,o),
(239,342,c),
(239,338,l),
(293,338,o),
(345,402,o),
(345,468,cs),
(345,651,ls),
(345,679,o),
(355,693,o),
(379,693,cs),
(385,693,ls),
(429,693,o),
(454,725,o),
(454,769,cs),
(454,813,o),
(418,845,o),
(369,845,cs),
(296,845,ls),
(197,845,o),
(137,785,o),
(137,687,cs),
(137,494,ls),
(137,442,o),
(124,422,o),
(85,419,cs),
(44,416,o),
(22,384,o),
(22,341,cs),
(22,298,o),
(44,265,o),
(85,262,cs),
(124,259,o),
(137,239,o),
(137,187,cs),
(137,-22,ls),
(137,-120,o),
(197,-180,o),
(296,-180,cs)
);
}
);
width = 464;
},
{
background = {
shapes = (
{
closed = 1;
nodes = (
(247,-180,l),
(253,-143,l),
(174,-143,ls),
(143,-143,o),
(133,-127,o),
(138,-97,cs),
(178,165,ls),
(189,238,o),
(149,265,o),
(110,265,c),
(110,261,l),
(149,261,o),
(199,288,o),
(210,361,cs),
(251,622,ls),
(256,652,o),
(273,668,o),
(303,668,cs),
(381,668,l),
(387,705,l),
(305,705,ls),
(249,705,o),
(218,674,o),
(209,620,cs),
(168,364,ls),
(159,310,o),
(139,285,o),
(82,282,cs),
(60,281,l),
(55,245,l),
(75,244,ls),
(132,241,o),
(144,216,o),
(136,162,cs),
(96,-95,ls),
(87,-151,o),
(113,-180,o),
(185,-180,cs)
);
}
);
};
layerId = "D8D4984A-F5A5-43C0-BF2B-5708C10C5E92";
shapes = (
{
closed = 1;
nodes = (
(234,-180,ls),
(250,-180,o),
(256,-174,o),
(256,-160,cs),
(256,-151,o),
(245,-143,o),
(230,-143,cs),
(174,-143,ls),
(143,-143,o),
(133,-127,o),
(138,-97,cs),
(190,242,ls),
(201,315,o),
(161,342,o),
(122,342,c),
(122,338,l),
(161,338,o),
(210,365,o),
(222,438,cs),
(273,762,ls),
(278,792,o),
(295,808,o),
(325,808,cs),
(390,808,ls),
(401,808,o),
(412,815,o),
(412,827,cs),
(412,838,o),
(406,845,o),
(390,845,cs),
(327,845,ls),
(271,845,o),
(240,814,o),
(231,760,cs),
(180,441,ls),
(170,378,o),
(143,360,o),
(85,359,cs),
(73,359,o),
(64,349,o),
(64,338,cs),
(64,328,o),
(71,321,o),
(81,321,cs),
(134,320,o),
(158,303,o),
(148,239,cs),
(96,-95,ls),
(87,-151,o),
(113,-180,o),
(185,-180,cs)
);
}
);
width = 318;
},
{
background = {
shapes = (
{
closed = 1;
nodes = (
(375,-180,l),
(399,-28,l),
(340,-28,ls),
(316,-28,o),
(302,-22,o),
(308,13,cs),
(327,134,ls),
(338,206,o),
(289,266,o),
(242,266,c),
(243,262,l),
(290,262,o),
(357,316,o),
(368,389,cs),
(387,512,ls),
(392,547,o),
(412,553,o),
(435,553,cs),
(491,553,l),
(516,705,l),
(350,705,ls),
(263,705,o),
(202,657,o),
(185,547,cs),
(164,414,ls),
(156,364,o),
(139,346,o),
(99,341,cs),
(47,335,l),
(24,188,l),
(77,182,ls),
(117,177,o),
(123,159,o),
(115,108,cs),
(94,-22,ls),
(80,-109,o),
(139,-180,o),
(256,-180,cs)
);
}
);
};
layerId = "C92D7C27-2246-4784-91DF-7F4E0C5E615D";
shapes = (
{
closed = 1;
nodes = (
(320,-180,ls),
(371,-180,o),
(398,-144,o),
(398,-95,cs),
(398,-63,o),
(375,-28,o),
(345,-28,cs),
(340,-28,ls),
(316,-28,o),
(302,-23,o),
(308,12,cs),
(340,214,ls),
(351,286,o),
(302,346,o),
(255,346,c),
(256,342,l),
(303,342,o),
(368,396,o),
(381,469,cs),
(413,651,ls),
(419,683,o),
(435,693,o),
(455,693,cs),
(461,693,ls),
(510,693,o),
(541,727,o),
(541,770,cs),
(541,810,o),
(518,845,o),
(461,845,cs),
(376,845,ls),
(289,845,o),
(230,796,o),
(211,686,cs),
(177,494,ls),
(168,443,o),
(152,426,o),
(104,421,cs),
(68,417,o),
(38,377,o),
(38,325,cs),
(38,295,o),
(56,268,o),
(90,262,cs),
(126,256,o),
(137,244,o),
(128,188,cs),
(94,-23,ls),
(80,-110,o),
(139,-180,o),
(256,-180,cs)
);
}
);
width = 464;
},
{
background = {
shapes = (
{
closed = 1;
nodes = (
(379,-180,l),
(379,-86,l),
(311,-86,ls),
(281,-86,o),
(268,-72,o),
(268,-42,cs),
(268,150,ls),
(268,212,o),
(225,264,o),
(172,264,c),
(172,260,l),
(225,260,o),
(268,313,o),
(268,375,cs),
(268,567,ls),
(268,597,o),
(281,611,o),
(311,611,cs),
(379,611,l),
(379,705,l),
(264,705,ls),
(187,705,o),
(143,661,o),
(143,584,cs),
(143,390,ls),
(143,336,o),
(126,315,o),
(79,311,cs),
(43,308,l),
(43,217,l),
(79,214,ls),
(126,210,o),
(143,189,o),
(143,135,cs),
(143,-59,ls),
(143,-136,o),
(187,-180,o),
(264,-180,cs)
);
}
);
};
layerId = "18203F29-5161-4D9B-8394-C173CC5E27D4";
shapes = (
{
closed = 1;
nodes = (
(335,-180,ls),
(365,-180,o),
(387,-160,o),
(387,-133,cs),
(387,-106,o),
(370,-86,o),
(343,-86,cs),
(308,-86,ls),
(281,-86,o),
(268,-71,o),
(268,-42,cs),
(268,227,ls),
(268,289,o),
(225,341,o),
(172,341,c),
(172,337,l),
(225,337,o),
(268,390,o),
(268,452,cs),
(268,707,ls),
(268,736,o),
(281,751,o),
(308,751,cs),
(343,751,ls),
(370,751,o),
(387,771,o),
(387,798,cs),
(387,825,o),
(365,845,o),
(335,845,cs),
(264,845,ls),
(187,845,o),
(143,801,o),
(143,724,cs),
(143,467,ls),
(143,413,o),
(126,390,o),
(76,388,cs),
(50,387,o),
(35,366,o),
(35,340,cs),
(35,313,o),
(50,292,o),
(76,291,cs),
(126,289,o),
(143,266,o),
(143,212,cs),
(143,-59,ls),
(143,-136,o),
(187,-180,o),
(264,-180,cs)
);
}
);
width = 391;
},
{
background = {
shapes = (
{
closed = 1;
nodes = (
(311,-180,l),
(326,-86,l),
(257,-86,ls),
(230,-86,o),
(218,-75,o),
(223,-42,cs),
(253,150,ls),
(264,222,o),
(219,266,o),
(176,266,c),
(177,262,l),
(220,262,o),
(278,302,o),
(289,375,cs),
(319,567,ls),
(324,600,o),
(343,611,o),
(369,611,cs),
(436,611,l),
(452,705,l),
(328,705,ls),
(256,705,o),
(210,666,o),
(197,584,cs),
(166,389,ls),
(158,337,o),
(139,316,o),
(91,312,cs),
(54,308,l),
(40,217,l),
(76,213,ls),
(125,209,o),
(134,188,o),
(126,135,cs),
(95,-59,ls),
(84,-130,o),
(126,-180,o),
(221,-180,cs)
);
}
);
};
layerId = "8FF16B21-C988-4EC9-A448-39B9B4A4BD78";
shapes = (
{
closed = 1;
nodes = (
(274,-180,ls),
(308,-180,o),
(324,-163,o),
(324,-128,cs),
(324,-103,o),
(307,-86,o),
(285,-86,cs),
(257,-86,ls),
(230,-86,o),
(218,-75,o),
(223,-43,cs),
(265,227,ls),
(276,300,o),
(231,343,o),
(188,343,c),
(189,339,l),
(232,339,o),
(290,380,o),
(301,453,cs),
(341,707,ls),
(346,738,o),
(363,751,o),
(388,751,cs),
(421,751,ls),
(451,751,o),
(472,769,o),
(472,799,cs),
(472,828,o),
(457,845,o),
(421,845,cs),
(350,845,ls),
(278,845,o),
(232,805,o),
(219,723,cs),
(178,467,ls),
(169,410,o),
(147,391,o),
(94,389,cs),
(68,388,o),
(51,364,o),
(51,331,cs),
(51,309,o),
(63,294,o),
(85,291,cs),
(130,285,o),
(147,273,o),
(138,213,cs),
(95,-59,ls),
(84,-131,o),
(126,-180,o),
(221,-180,cs)
);
}
);
width = 391;
}
);
unicode = 123;
}
{
color = 6;
glyphname = bar;
kernLeft = H;
kernRight = H;
layers = (
{
background = {
shapes = (
{
closed = 1;
nodes = (
(143,-180,l),
(143,705,l),
(101,705,l),
(101,-180,l)
);
}
);
};
layerId = "F1F93986-3ED8-4AAE-84C4-CA3EEECDDFA0";
shapes = (
{
closed = 1;
nodes = (
(136,-186,o),
(143,-175,o),
(143,-161,cs),
(143,828,ls),
(143,842,o),
(135,853,o),
(122,853,cs),
(109,853,o),
(101,842,o),
(101,828,cs),
(101,-161,ls),
(101,-175,o),
(109,-186,o),
(122,-186,cs)
);
}
);
width = 244;
},
{
background = {
shapes = (
{
closed = 1;
nodes = (
(270,-180,l),
(270,705,l),
(62,705,l),
(62,-180,l)
);
}
);
};
layerId = "4121B50C-FD42-45C5-8FBE-41E76D98F91E";
shapes = (
{
closed = 1;
nodes = (
(234,-190,o),
(270,-141,o),
(270,-73,cs),
(270,738,ls),
(270,806,o),
(233,853,o),
(166,853,cs),
(99,853,o),
(62,806,o),
(62,738,cs),
(62,-73,ls),
(62,-141,o),
(99,-190,o),
(166,-190,cs)
);
}
);
width = 332;
},
{
background = {
shapes = (
{
closed = 1;
nodes = (
(76,-180,l),
(216,705,l),
(174,705,l),
(34,-180,l)
);
}
);
};
layerId = "D8D4984A-F5A5-43C0-BF2B-5708C10C5E92";
shapes = (
{
closed = 1;
nodes = (
(68,-186,o),
(76,-179,o),
(78,-165,cs),
(235,828,ls),
(238,844,o),
(231,853,o),
(218,853,cs),
(204,853,o),
(196,846,o),
(194,832,cs),
(37,-161,ls),
(34,-177,o),
(41,-186,o),
(54,-186,cs)
);
}
);
width = 244;
},
{
background = {
shapes = (
{
closed = 1;
nodes = (
(203,-180,l),
(343,705,l),
(135,705,l),
(-5,-180,l)
);
}
);
};
layerId = "C92D7C27-2246-4784-91DF-7F4E0C5E615D";
shapes = (
{
closed = 1;
nodes = (
(167,-190,o),
(207,-154,o),
(218,-86,cs),
(347,732,ls),
(359,808,o),
(327,853,o),
(262,853,cs),
(193,853,o),
(153,817,o),
(142,749,cs),
(13,-69,ls),
(1,-145,o),
(33,-190,o),
(98,-190,cs)
);
}
);
width = 332;
},
{
background = {
shapes = (
{
closed = 1;
nodes = (
(207,-180,l),
(207,705,l),
(82,705,l),
(82,-180,l)
);
}
);
};
layerId = "18203F29-5161-4D9B-8394-C173CC5E27D4";
shapes = (
{
closed = 1;
nodes = (
(185,-189,o),
(207,-157,o),
(207,-116,cs),
(207,780,ls),
(207,821,o),
(184,853,o),
(144,853,cs),
(104,853,o),
(82,821,o),
(82,780,cs),
(82,-116,ls),
(82,-157,o),
(104,-189,o),
(144,-189,cs)
);
}
);
width = 288;
},
{
background = {
shapes = (
{
closed = 1;
nodes = (
(140,-180,l),
(280,705,l),
(155,705,l),
(15,-180,l)
);
}
);
};
layerId = "8FF16B21-C988-4EC9-A448-39B9B4A4BD78";
shapes = (
{
closed = 1;
nodes = (
(118,-188,o),
(141,-167,o),
(148,-126,cs),
(292,780,ls),
(299,826,o),
(280,853,o),
(241,853,cs),
(200,853,o),
(176,832,o),
(169,791,cs),
(25,-115,ls),
(18,-161,o),
(37,-188,o),
(76,-188,cs)
);
}
);
width = 288;
}
);
unicode = 124;
}
{
color = 6;
glyphname = braceright;
kernLeft = braceright;
kernRight = hyphen;
layers = (
{
background = {
shapes = (
{
closed = 1;
nodes = (
(87,-180,ls),
(141,-180,o),
(169,-150,o),
(169,-95,cs),
(169,162,ls),
(169,219,o),
(190,242,o),
(245,244,cs),
(264,245,l),
(264,281,l),
(245,282,ls),
(190,285,o),
(169,307,o),
(169,364,cs),
(169,620,ls),
(169,675,o),
(141,705,o),
(87,705,cs),
(4,705,l),
(4,668,l),
(82,668,ls),
(112,668,o),
(127,653,o),
(127,622,cs),
(127,361,ls),
(127,302,o),
(162,261,o),
(213,261,c),
(213,265,l),
(162,265,o),
(127,224,o),
(127,165,cs),
(127,-97,ls),
(127,-128,o),
(112,-143,o),
(82,-143,cs),
(4,-143,l),
(4,-180,l)
);
}
);
};
layerId = "F1F93986-3ED8-4AAE-84C4-CA3EEECDDFA0";
shapes = (
{
closed = 1;
nodes = (
(87,-180,ls),
(141,-180,o),
(169,-151,o),
(169,-95,cs),
(169,239,ls),
(169,295,o),
(190,321,o),
(251,321,cs),
(262,321,o),
(270,330,o),
(270,340,cs),
(270,350,o),
(262,359,o),
(251,359,cs),
(190,359,o),
(169,385,o),
(169,441,cs),
(169,760,ls),
(169,816,o),
(141,845,o),
(87,845,cs),
(18,845,ls),
(7,845,o),
(-2,837,o),
(-2,827,cs),
(-2,816,o),
(7,808,o),
(18,808,cs),
(82,808,ls),
(112,808,o),
(127,793,o),
(127,762,cs),
(127,438,ls),
(127,379,o),
(162,338,o),
(213,338,c),
(213,342,l),
(162,342,o),
(127,301,o),
(127,242,cs),
(127,-97,ls),
(127,-128,o),
(112,-143,o),
(82,-143,cs),
(18,-143,ls),
(7,-143,o),
(-2,-152,o),
(-2,-162,cs),
(-2,-172,o),
(7,-180,o),
(18,-180,cs)
);
}
);
width = 318;
},
{
background = {
shapes = (
{
closed = 1;
nodes = (
(167,-180,ls),
(266,-180,o),
(326,-121,o),
(326,-22,cs),
(326,108,ls),
(326,159,o),
(340,178,o),
(379,183,cs),
(431,188,l),
(431,335,l),
(379,340,ls),
(340,345,o),
(326,364,o),
(326,415,cs),
(326,547,ls),
(326,646,o),
(266,705,o),
(167,705,cs),
(20,705,l),
(20,553,l),
(79,553,ls),
(107,553,o),
(118,541,o),
(118,511,cs),
(118,389,ls),
(118,323,o),
(171,259,o),
(225,259,c),
(225,263,l),
(171,263,o),
(118,199,o),
(118,134,cs),
(118,14,ls),
(118,-16,o),
(107,-28,o),
(79,-28,cs),
(20,-28,l),
(20,-180,l)
);
}
);
};
layerId = "4121B50C-FD42-45C5-8FBE-41E76D98F91E";
shapes = (
{
closed = 1;
nodes = (
(168,-180,ls),
(267,-180,o),
(327,-120,o),
(327,-22,cs),
(327,187,ls),
(327,239,o),
(340,259,o),
(379,262,cs),
(420,265,o),
(442,298,o),
(442,341,cs),
(442,384,o),
(420,416,o),
(379,419,cs),
(340,422,o),
(327,442,o),
(327,494,cs),
(327,687,ls),
(327,785,o),
(267,845,o),
(168,845,cs),
(95,845,ls),
(46,845,o),
(10,813,o),
(10,769,cs),
(10,725,o),
(35,693,o),
(79,693,cs),
(85,693,ls),
(109,693,o),
(119,679,o),
(119,651,cs),
(119,468,ls),
(119,402,o),
(171,338,o),
(225,338,c),
(225,342,l),
(171,342,o),
(119,279,o),
(119,213,cs),
(119,14,ls),
(119,-14,o),
(109,-28,o),
(84,-28,cs),
(79,-28,ls),
(35,-28,o),
(10,-60,o),
(10,-104,cs),
(10,-148,o),
(46,-180,o),
(95,-180,cs)
);
}
);
width = 464;
},
{
background = {
shapes = (
{
closed = 1;
nodes = (
(19,-180,ls),
(75,-180,o),
(106,-149,o),
(115,-95,cs),
(156,161,ls),
(165,215,o),
(185,240,o),
(242,243,cs),
(264,244,l),
(269,280,l),
(249,281,ls),
(192,284,o),
(180,309,o),
(188,363,cs),
(228,620,ls),
(237,676,o),
(211,705,o),
(139,705,cs),
(77,705,l),
(71,668,l),
(150,668,ls),
(181,668,o),
(191,652,o),
(186,622,cs),
(146,360,ls),
(135,287,o),
(175,260,o),
(214,260,c),
(214,264,l),
(175,264,o),
(125,237,o),
(114,164,cs),
(73,-97,ls),
(68,-127,o),
(51,-143,o),
(21,-143,cs),
(-57,-143,l),
(-63,-180,l)
);
}
);
};
layerId = "D8D4984A-F5A5-43C0-BF2B-5708C10C5E92";
shapes = (
{
closed = 1;
nodes = (
(19,-180,ls),
(75,-180,o),
(106,-149,o),
(115,-95,cs),
(168,239,ls),
(178,302,o),
(205,321,o),
(263,321,cs),
(275,321,o),
(284,331,o),
(284,342,cs),
(284,352,o),
(277,359,o),
(267,359,cs),
(214,359,o),
(190,377,o),
(200,441,cs),
(250,760,ls),
(259,816,o),
(233,845,o),
(161,845,cs),
(112,845,ls),
(96,845,o),
(90,839,o),
(90,825,cs),
(90,816,o),
(101,808,o),
(116,808,cs),
(172,808,ls),
(203,808,o),
(213,792,o),
(208,762,cs),
(158,438,ls),
(147,365,o),
(187,338,o),
(226,338,c),
(226,342,l),
(187,342,o),
(137,315,o),
(126,242,cs),
(73,-97,ls),
(68,-127,o),
(51,-143,o),
(21,-143,cs),
(-44,-143,ls),
(-55,-143,o),
(-66,-150,o),
(-66,-162,cs),
(-66,-173,o),
(-60,-180,o),
(-44,-180,cs)
);
}
);
width = 318;
},
{
background = {
shapes = (
{
closed = 1;
nodes = (
(119,-180,ls),
(206,-180,o),
(267,-132,o),
(284,-22,cs),
(305,111,ls),
(313,161,o),
(330,179,o),
(370,184,cs),
(422,190,l),
(445,337,l),
(392,343,ls),
(352,348,o),
(346,366,o),
(354,417,cs),
(375,547,ls),
(389,634,o),
(330,705,o),
(213,705,cs),
(93,705,l),
(69,553,l),
(129,553,ls),
(153,553,o),
(167,547,o),
(161,512,cs),
(142,391,ls),
(131,319,o),
(180,259,o),
(227,259,c),
(226,263,l),
(179,263,o),
(112,209,o),
(101,136,cs),
(82,13,ls),
(77,-22,o),
(57,-28,o),
(34,-28,cs),
(-22,-28,l),
(-47,-180,l)
);
}
);
};
layerId = "C92D7C27-2246-4784-91DF-7F4E0C5E615D";
shapes = (
{
closed = 1;
nodes = (
(119,-180,ls),
(206,-180,o),
(266,-132,o),
(284,-21,cs),
(317,187,ls),
(325,238,o),
(342,255,o),
(390,260,cs),
(431,264,o),
(456,300,o),
(456,356,cs),
(456,390,o),
(438,413,o),
(404,419,cs),
(368,425,o),
(357,437,o),
(366,493,cs),
(397,688,ls),
(411,775,o),
(352,845,o),
(235,845,cs),
(171,845,ls),
(120,845,o),
(93,806,o),
(93,760,cs),
(93,729,o),
(116,693,o),
(146,693,cs),
(151,693,ls),
(175,693,o),
(188,688,o),
(183,653,cs),
(154,467,ls),
(143,395,o),
(192,335,o),
(239,335,c),
(238,339,l),
(191,339,o),
(124,285,o),
(113,212,cs),
(82,14,ls),
(77,-18,o),
(60,-28,o),
(40,-28,cs),
(34,-28,ls),
(-15,-28,o),
(-46,-57,o),
(-46,-105,cs),
(-46,-152,o),
(-23,-180,o),
(34,-180,cs)
);
}
);
width = 464;
},
{
background = {
shapes = (
{
closed = 1;
nodes = (
(127,-180,ls),
(204,-180,o),
(248,-136,o),
(248,-59,cs),
(248,135,ls),
(248,189,o),
(265,210,o),
(312,214,cs),
(348,217,l),
(348,308,l),
(312,311,ls),
(265,315,o),
(248,336,o),
(248,390,cs),
(248,584,ls),
(248,661,o),
(204,705,o),
(127,705,cs),
(12,705,l),
(12,611,l),
(81,611,ls),
(110,611,o),
(123,597,o),
(123,567,cs),
(123,375,ls),
(123,313,o),
(167,260,o),
(219,260,c),
(219,264,l),
(167,264,o),
(123,212,o),
(123,150,cs),
(123,-42,ls),
(123,-72,o),
(110,-86,o),
(81,-86,cs),
(12,-86,l),
(12,-180,l)
);
}
);
};
layerId = "18203F29-5161-4D9B-8394-C173CC5E27D4";
shapes = (
{
closed = 1;
nodes = (
(127,-180,ls),
(204,-180,o),
(248,-136,o),
(248,-59,cs),
(248,213,ls),
(248,267,o),
(265,290,o),
(315,292,cs),
(341,293,o),
(356,314,o),
(356,340,cs),
(356,367,o),
(341,388,o),
(315,389,cs),
(265,391,o),
(248,414,o),
(248,468,cs),
(248,724,ls),
(248,801,o),
(204,845,o),
(127,845,cs),
(56,845,ls),
(26,845,o),
(4,825,o),
(4,798,cs),
(4,771,o),
(21,751,o),
(48,751,cs),
(83,751,ls),
(110,751,o),
(123,736,o),
(123,707,cs),
(123,453,ls),
(123,391,o),
(166,339,o),
(219,339,c),
(219,343,l),
(166,343,o),
(123,290,o),
(123,228,cs),
(123,-42,ls),
(123,-71,o),
(110,-86,o),
(83,-86,cs),
(48,-86,ls),
(21,-86,o),
(4,-106,o),
(4,-133,cs),
(4,-160,o),
(26,-180,o),
(56,-180,cs)
);
}
);
width = 391;
},
{
background = {
shapes = (
{
closed = 1;
nodes = (
(69,-180,ls),
(141,-180,o),
(187,-141,o),
(200,-59,cs),
(231,136,ls),
(239,188,o),
(258,210,o),
(306,214,cs),
(343,217,l),
(357,309,l),
(321,312,ls),
(272,316,o),
(263,338,o),
(271,390,cs),
(302,584,ls),
(313,655,o),
(271,705,o),
(176,705,cs),
(85,705,l),
(70,611,l),
(140,611,ls),
(167,611,o),
(179,600,o),
(174,567,cs),
(144,376,ls),
(133,303,o),
(178,260,o),
(221,260,c),
(220,264,l),
(177,264,o),
(119,223,o),
(108,150,cs),
(78,-42,ls),
(73,-75,o),
(54,-86,o),
(28,-86,cs),
(-40,-86,l),
(-55,-180,l)
);
}
);
};
layerId = "8FF16B21-C988-4EC9-A448-39B9B4A4BD78";
shapes = (
{
closed = 1;
nodes = (
(69,-180,ls),
(141,-180,o),
(187,-140,o),
(200,-58,cs),
(243,213,ls),
(252,270,o),
(274,289,o),
(327,291,cs),
(353,292,o),
(370,316,o),
(370,349,cs),
(370,371,o),
(358,386,o),
(336,389,cs),
(291,395,o),
(273,406,o),
(283,467,cs),
(324,724,ls),
(336,797,o),
(293,845,o),
(198,845,cs),
(145,845,ls),
(111,845,o),
(95,828,o),
(95,793,cs),
(95,768,o),
(112,751,o),
(134,751,cs),
(162,751,ls),
(189,751,o),
(201,740,o),
(196,708,cs),
(156,453,ls),
(144,379,o),
(190,337,o),
(233,337,c),
(232,341,l),
(189,341,o),
(131,300,o),
(120,227,cs),
(78,-42,ls),
(73,-73,o),
(56,-86,o),
(31,-86,cs),
(-2,-86,ls),
(-32,-86,o),
(-53,-104,o),
(-53,-134,cs),
(-53,-163,o),
(-38,-180,o),
(-2,-180,cs)
);
}
);
width = 391;
}
);
unicode = 125;
}
{
color = 6;
glyphname = asciitilde;
layers = (
{
background = {
shapes = (
{
closed = 1;
nodes = (
(476,224,o),
(516,254,o),
(544,317,c),
(509,332,l),
(489,286,o),
(458,263,o),
(417,263,cs),
(389,263,o),
(362,277,o),
(308,307,cs),
(251,339,o),
(216,350,o),
(181,350,cs),
(125,350,o),
(84,319,o),
(56,257,c),
(92,242,l),
(113,289,o),
(142,311,o),
(183,311,cs),
(206,311,o),
(230,303,o),
(287,270,cs),
(344,237,o),
(385,224,o),
(420,224,cs)
);
}
);
};
layerId = "F1F93986-3ED8-4AAE-84C4-CA3EEECDDFA0";
shapes = (
{
closed = 1;
nodes = (
(471,224,o),
(512,249,o),
(537,303,cs),
(548,327,o),
(515,343,o),
(501,318,cs),
(480,280,o),
(453,263,o),
(417,263,cs),
(389,263,o),
(362,277,o),
(308,307,cs),
(251,339,o),
(216,350,o),
(181,350,cs),
(130,350,o),
(88,325,o),
(63,271,cs),
(52,247,o),
(85,231,o),
(99,256,cs),
(120,294,o),
(147,311,o),
(183,311,cs),
(206,311,o),
(230,303,o),
(287,270,cs),
(344,237,o),
(385,224,o),
(420,224,cs)
);
}
);
width = 600;
},
{
background = {
shapes = (
{
closed = 1;
nodes = (
(464,193,o),
(526,243,o),
(544,309,c),
(445,377,l),
(433,339,o),
(414,322,o),
(386,322,cs),
(372,322,o),
(347,330,o),
(307,350,cs),
(263,372,o),
(229,381,o),
(200,381,cs),
(135,381,o),
(75,332,o),
(56,264,c),
(154,197,l),
(166,235,o),
(186,253,o),
(213,253,cs),
(230,253,o),
(256,243,o),
(296,223,cs),
(344,199,o),
(372,193,o),
(399,193,cs)
);
}
);
};
layerId = "4121B50C-FD42-45C5-8FBE-41E76D98F91E";
shapes = (
{
closed = 1;
nodes = (
(444,193,o),
(488,217,o),
(520,259,cs),
(569,324,o),
(484,396,o),
(426,338,cs),
(415,327,o),
(400,322,o),
(386,322,cs),
(370,322,o),
(342,332,o),
(307,350,cs),
(265,371,o),
(230,381,o),
(200,381,cs),
(155,381,o),
(111,357,o),
(79,315,cs),
(30,250,o),
(115,178,o),
(173,236,cs),
(184,247,o),
(199,253,o),
(213,253,cs),
(229,253,o),
(254,244,o),
(296,223,cs),
(340,201,o),
(369,193,o),
(399,193,cs)
);
}
);
width = 600;
},
{
background = {
guides = (
{
pos = (318,307);
},
{
pos = (291,270);
}
);
shapes = (
{
closed = 1;
nodes = (
(484,224,o),
(519,255,o),
(555,313,c),
(522,332,l),
(500,296,o),
(471,263,o),
(421,263,cs),
(388,263,o),
(359,281,o),
(322,303,cs),
(285,325,o),
(238,350,o),
(190,350,cs),
(130,350,o),
(95,319,o),
(59,261,c),
(92,242,l),
(114,278,o),
(143,311,o),
(193,311,cs),
(226,311,o),
(258,292,o),
(295,270,cs),
(332,248,o),
(376,224,o),
(424,224,cs)
);
}
);
};
layerId = "D8D4984A-F5A5-43C0-BF2B-5708C10C5E92";
shapes = (
{
closed = 1;
nodes = (
(476,224,o),
(514,248,o),
(547,301,cs),
(563,327,o),
(528,341,o),
(514,320,cs),
(494,290,o),
(467,263,o),
(421,263,cs),
(388,263,o),
(359,281,o),
(322,303,cs),
(285,325,o),
(240,350,o),
(192,350,cs),
(137,350,o),
(100,325,o),
(67,273,cs),
(51,247,o),
(86,233,o),
(100,254,cs),
(121,284,o),
(147,311,o),
(193,311,cs),
(226,311,o),
(258,292,o),
(295,270,cs),
(332,248,o),
(374,224,o),
(422,224,cs)
);
}
);
width = 600;
},
{
background = {
shapes = (
{
closed = 1;
nodes = (
(471,193,o),
(523,238,o),
(554,309,c),
(465,377,l),
(443,335,o),
(421,322,o),
(396,322,cs),
(377,322,o),
(351,334,o),
(321,346,cs),
(283,363,o),
(240,381,o),
(199,381,cs),
(139,381,o),
(89,337,o),
(59,264,c),
(148,197,l),
(167,238,o),
(189,253,o),
(214,253,cs),
(233,253,o),
(260,241,o),
(291,228,cs),
(328,211,o),
(371,193,o),
(411,193,cs)
);
}
);
};
layerId = "C92D7C27-2246-4784-91DF-7F4E0C5E615D";
shapes = (
{
closed = 1;
nodes = (
(460,193,o),
(502,221,o),
(533,268,cs),
(577,335,o),
(492,396,o),
(441,341,cs),
(429,328,o),
(412,322,o),
(397,322,cs),
(378,322,o),
(352,334,o),
(322,346,cs),
(283,361,o),
(241,381,o),
(200,381,cs),
(152,381,o),
(109,355,o),
(79,307,cs),
(36,239,o),
(120,179,o),
(171,234,cs),
(183,247,o),
(200,253,o),
(215,253,cs),
(234,253,o),
(261,241,o),
(292,228,cs),
(330,212,o),
(372,193,o),
(412,193,cs)
);
}
);
width = 600;
},
{
background = {
shapes = (
{
closed = 1;
nodes = (
(470,209,o),
(521,249,o),
(544,313,c),
(480,352,l),
(464,313,o),
(439,293,o),
(405,293,cs),
(384,293,o),
(355,304,o),
(308,329,cs),
(257,356,o),
(223,366,o),
(191,366,cs),
(130,366,o),
(80,326,o),
(56,261,c),
(123,223,l),
(137,262,o),
(161,282,o),
(195,282,cs),
(215,282,o),
(243,273,o),
(292,247,cs),
(345,219,o),
(379,209,o),
(410,209,cs)
);
}
);
};
layerId = "18203F29-5161-4D9B-8394-C173CC5E27D4";
shapes = (
{
closed = 1;
nodes = (
(457,209,o),
(501,234,o),
(530,282,cs),
(558,328,o),
(497,373,o),
(467,328,cs),
(447,298,o),
(425,293,o),
(402,293,cs),
(380,293,o),
(352,306,o),
(308,329,cs),
(258,355,o),
(223,366,o),
(191,366,cs),
(143,366,o),
(100,341,o),
(71,293,cs),
(43,247,o),
(104,202,o),
(134,247,cs),
(154,277,o),
(175,282,o),
(198,282,cs),
(218,282,o),
(242,274,o),
(292,247,cs),
(342,220,o),
(376,209,o),
(409,209,cs)
);
}
);
width = 600;
},
{
background = {
shapes = (
{
closed = 1;
nodes = (
(478,209,o),
(521,247,o),
(555,311,c),
(494,355,l),
(472,316,o),
(446,293,o),
(409,293,cs),
(383,293,o),
(355,308,o),
(322,325,cs),
(284,344,o),
(239,366,o),
(195,366,cs),
(135,366,o),
(92,328,o),
(59,263,c),
(120,220,l),
(141,258,o),
(166,282,o),
(204,282,cs),
(230,282,o),
(259,267,o),
(293,249,cs),
(330,230,o),
(374,209,o),
(418,209,cs)
);
}
);
};
layerId = "8FF16B21-C988-4EC9-A448-39B9B4A4BD78";
shapes = (
{
closed = 1;
nodes = (
(468,209,o),
(508,235,o),
(540,285,cs),
(570,331,o),
(508,370,o),
(478,331,cs),
(461,309,o),
(440,293,o),
(409,293,cs),
(383,293,o),
(356,308,o),
(322,325,cs),
(284,344,o),
(241,366,o),
(196,366,cs),
(145,366,o),
(105,340,o),
(73,290,cs),
(43,243,o),
(105,204,o),
(136,244,cs),
(153,266,o),
(174,282,o),
(204,282,cs),
(230,282,o),
(260,267,o),
(294,249,cs),
(331,230,o),
(373,209,o),
(417,209,cs)
);
}
);
width = 600;
}
);
unicode = 126;
}
{
color = 6;
glyphname = exclamdown;
kernLeft = exclamdown;
kernRight = exclamdown;
layers = (
{
background = {
shapes = (
{
closed = 1;
nodes = (
(132,-180,l),
(119,323,l),
(92,323,l),
(79,-180,l)
);
},
{
closed = 1;
nodes = (
(140,414,l),
(140,484,l),
(71,484,l),
(71,414,l)
);
}
);
};
layerId = "F1F93986-3ED8-4AAE-84C4-CA3EEECDDFA0";
shapes = (
{
closed = 1;
nodes = (
(122,-186,o),
(131,-176,o),
(131,-159,cs),
(120,310,ls),
(120,323,o),
(114,329,o),
(106,329,cs),
(98,329,o),
(91,323,o),
(91,310,cs),
(80,-159,ls),
(80,-176,o),
(89,-186,o),
(106,-186,cs)
);
},
{
closed = 1;
nodes = (
(128,411,o),
(143,427,o),
(143,449,cs),
(143,471,o),
(128,487,o),
(106,487,cs),
(84,487,o),
(68,471,o),
(68,449,cs),
(68,427,o),
(84,411,o),
(106,411,cs)
);
}
);
width = 211;
},
{
background = {
shapes = (
{
closed = 1;
nodes = (
(270,-180,l),
(205,239,l),
(80,239,l),
(15,-180,l)
);
},
{
closed = 1;
nodes = (
(248,287,l),
(248,494,l),
(37,494,l),
(37,287,l)
);
}
);
};
layerId = "4121B50C-FD42-45C5-8FBE-41E76D98F91E";
shapes = (
{
closed = 1;
nodes = (
(223,-190,o),
(265,-133,o),
(252,-53,cs),
(215,171,ls),
(207,218,o),
(184,245,o),
(143,245,cs),
(102,245,o),
(78,218,o),
(70,171,cs),
(33,-53,ls),
(20,-133,o),
(63,-190,o),
(143,-190,cs)
);
},
{
closed = 1;
nodes = (
(213,281,o),
(254,326,o),
(254,391,cs),
(254,456,o),
(213,500,o),
(143,500,cs),
(73,500,o),
(31,456,o),
(31,391,cs),
(31,326,o),
(73,281,o),
(143,281,cs)
);
}
);
width = 285;
},
{
background = {
shapes = (
{
closed = 1;
nodes = (
(65,-180,l),
(132,323,l),
(105,323,l),
(12,-180,l)
);
},
{
closed = 1;
nodes = (
(167,414,l),
(178,484,l),
(109,484,l),
(98,414,l)
);
}
);
};
layerId = "D8D4984A-F5A5-43C0-BF2B-5708C10C5E92";
shapes = (
{
closed = 1;
nodes = (
(56,-186,o),
(66,-177,o),
(68,-161,cs),
(131,312,ls),
(132,322,o),
(127,329,o),
(118,329,cs),
(110,329,o),
(104,321,o),
(103,314,cs),
(17,-157,ls),
(14,-176,o),
(23,-186,o),
(40,-186,cs)
);
},
{
closed = 1;
nodes = (
(161,411,o),
(176,427,o),
(176,449,cs),
(176,471,o),
(161,487,o),
(139,487,cs),
(117,487,o),
(101,471,o),
(101,449,cs),
(101,427,o),
(117,411,o),
(139,411,cs)
);
}
);
width = 211;
},
{
background = {
shapes = (
{
closed = 1;
nodes = (
(202,-180,l),
(202,231,l),
(77,231,l),
(-53,-180,l)
);
},
{
closed = 1;
nodes = (
(254,287,l),
(287,494,l),
(76,494,l),
(43,287,l)
);
}
);
};
layerId = "C92D7C27-2246-4784-91DF-7F4E0C5E615D";
shapes = (
{
closed = 1;
nodes = (
(162,-190,o),
(205,-144,o),
(204,-63,cs),
(202,166,ls),
(202,221,o),
(180,245,o),
(138,245,cs),
(98,245,o),
(76,226,o),
(62,183,cs),
(-11,-47,ls),
(-39,-134,o),
(2,-190,o),
(83,-190,cs)
);
},
{
closed = 1;
nodes = (
(238,281,o),
(279,326,o),
(279,391,cs),
(279,456,o),
(238,500,o),
(168,500,cs),
(98,500,o),
(56,456,o),
(56,391,cs),
(56,326,o),
(98,281,o),
(168,281,cs)
);
}
);
width = 285;
},
{
background = {
shapes = (
{
closed = 1;
nodes = (
(201,-180,l),
(162,280,l),
(86,280,l),
(47,-180,l)
);
},
{
closed = 1;
nodes = (
(194,350,l),
(194,489,l),
(54,489,l),
(54,350,l)
);
}
);
};
layerId = "18203F29-5161-4D9B-8394-C173CC5E27D4";
shapes = (
{
closed = 1;
nodes = (
(173,-188,o),
(198,-155,o),
(194,-106,cs),
(166,241,ls),
(164,271,o),
(149,287,o),
(125,287,cs),
(100,287,o),
(86,271,o),
(83,241,cs),
(53,-106,ls),
(49,-155,o),
(76,-188,o),
(125,-188,cs)
);
},
{
closed = 1;
nodes = (
(171,346,o),
(199,377,o),
(199,420,cs),
(199,464,o),
(171,494,o),
(125,494,cs),
(79,494,o),
(50,464,o),
(50,420,cs),
(50,377,o),
(79,346,o),
(125,346,cs)
);
}
);
width = 248;
},
{
background = {
shapes = (
{
closed = 1;
nodes = (
(134,-180,l),
(167,277,l),
(91,277,l),
(-21,-180,l)
);
},
{
closed = 1;
nodes = (
(211,351,l),
(233,489,l),
(93,489,l),
(71,351,l)
);
}
);
};
layerId = "8FF16B21-C988-4EC9-A448-39B9B4A4BD78";
shapes = (
{
closed = 1;
nodes = (
(109,-188,o),
(135,-162,o),
(139,-112,cs),
(164,239,ls),
(166,272,o),
(154,287,o),
(128,287,cs),
(104,287,o),
(90,274,o),
(84,249,cs),
(-2,-102,ls),
(-15,-156,o),
(13,-188,o),
(62,-188,cs)
);
},
{
closed = 1;
nodes = (
(200,346,o),
(228,377,o),
(228,420,cs),
(228,464,o),
(200,494,o),
(154,494,cs),
(108,494,o),
(79,464,o),
(79,420,cs),
(79,377,o),
(108,346,o),
(154,346,cs)
);
}
);
width = 248;
}
);
unicode = 161;
userData = {
com.typemytype.robofont.layerData = {
b = {
anchors = (
);
components = (
);
contours = (
);
lib = {
};
name = exclamdown;
unicodes = (
);
width = 785;
};
};
};
}
{
color = 6;
glyphname = cent;
layers = (
{
background = {
shapes = (
{
closed = 1;
nodes = (
(336,-115,l),
(336,8,l),
(325,-7,l),
(384,-7,o),
(451,18,o),
(488,59,c),
(468,91,l),
(429,51,o),
(377,33,o),
(322,33,cs),
(211,33,o),
(142,113,o),
(142,242,cs),
(142,368,o),
(213,451,o),
(323,451,cs),
(377,451,o),
(429,432,o),
(468,392,c),
(488,425,l),
(453,465,o),
(386,490,o),
(327,490,c),
(336,468,l),
(336,604,l),
(296,604,l),
(296,468,l),
(305,490,l),
(181,480,o),
(99,379,o),
(99,243,cs),
(99,102,o),
(184,-1,o),
(306,-6,c),
(296,8,l),
(296,-115,l)
);
}
);
};
layerId = "F1F93986-3ED8-4AAE-84C4-CA3EEECDDFA0";
shapes = (
{
closed = 1;
nodes = (
(328,-121,o),
(336,-112,o),
(336,-100,cs),
(336,8,l),
(325,-7,l),
(378,-7,o),
(438,13,o),
(477,48,c),
(496,62,o),
(481,98,o),
(448,73,cs),
(412,46,o),
(368,33,o),
(322,33,cs),
(211,33,o),
(142,113,o),
(142,242,cs),
(142,368,o),
(213,451,o),
(323,451,cs),
(368,451,o),
(412,438,o),
(447,410,cs),
(477,387,o),
(497,419,o),
(477,436,cs),
(440,470,o),
(380,490,o),
(327,490,c),
(336,468,l),
(336,589,ls),
(336,601,o),
(327,610,o),
(316,610,cs),
(305,610,o),
(296,601,o),
(296,589,cs),
(296,468,l),
(305,490,l),
(181,480,o),
(99,379,o),
(99,243,cs),
(99,102,o),
(184,-1,o),
(306,-6,c),
(296,8,l),
(296,-100,ls),
(296,-112,o),
(305,-121,o),
(316,-121,cs)
);
}
);
width = 600;
},
{
background = {
shapes = (
{
closed = 1;
nodes = (
(396,-115,l),
(396,30,l),
(351,-9,l),
(435,-5,o),
(503,21,o),
(548,55,c),
(497,195,l),
(463,172,o),
(415,153,o),
(374,153,cs),
(310,153,o),
(278,198,o),
(278,251,cs),
(278,304,o),
(311,344,o),
(374,344,cs),
(416,344,o),
(463,326,o),
(497,303,c),
(548,443,l),
(505,478,o),
(432,499,o),
(352,500,c),
(396,463,l),
(396,613,l),
(236,613,l),
(236,449,l),
(274,492,l),
(146,464,o),
(65,367,o),
(65,246,cs),
(65,119,o),
(141,28,o),
(274,-3,c),
(236,42,l),
(236,-115,l)
);
}
);
};
layerId = "4121B50C-FD42-45C5-8FBE-41E76D98F91E";
shapes = (
{
closed = 1;
nodes = (
(362,-125,o),
(396,-90,o),
(396,-44,cs),
(396,30,l),
(351,-9,l),
(401,-7,o),
(446,4,o),
(484,19,cs),
(574,54,o),
(540,198,o),
(438,166,cs),
(409,157,o),
(387,153,o),
(374,153,cs),
(310,153,o),
(278,198,o),
(278,251,cs),
(278,304,o),
(311,344,o),
(374,344,cs),
(395,344,o),
(417,340,o),
(438,332,cs),
(529,301,o),
(579,439,o),
(493,474,cs),
(453,490,o),
(404,499,o),
(352,500,c),
(396,463,l),
(396,542,ls),
(396,588,o),
(362,623,o),
(316,623,cs),
(270,623,o),
(236,588,o),
(236,542,cs),
(236,449,l),
(274,492,l),
(146,464,o),
(65,367,o),
(65,246,cs),
(65,119,o),
(141,28,o),
(274,-3,c),
(236,42,l),
(236,-44,ls),
(236,-90,o),
(270,-125,o),
(316,-125,cs)
);
}
);
width = 600;
},
{
background = {
shapes = (
{
closed = 1;
nodes = (
(273,-115,l),
(293,8,l),
(281,-5,l),
(330,-11,o),
(409,7,o),
(458,55,c),
(439,89,l),
(398,50,o),
(347,33,o),
(303,33,cs),
(186,33,o),
(141,100,o),
(141,202,cs),
(141,323,o),
(199,451,o),
(348,451,cs),
(406,451,o),
(450,433,o),
(487,394,c),
(508,426,l),
(477,462,o),
(421,487,o),
(360,490,c),
(365,468,l),
(387,604,l),
(347,604,l),
(325,468,l),
(338,490,l),
(166,482,o),
(98,338,o),
(98,202,cs),
(98,93,o),
(147,13,o),
(258,-3,c),
(253,8,l),
(233,-115,l)
);
}
);
};
layerId = "D8D4984A-F5A5-43C0-BF2B-5708C10C5E92";
shapes = (
{
closed = 1;
nodes = (
(265,-121,o),
(274,-114,o),
(276,-101,cs),
(293,8,l),
(281,-5,l),
(327,-11,o),
(398,5,o),
(448,46,cs),
(467,62,o),
(447,94,o),
(420,73,cs),
(383,45,o),
(340,33,o),
(303,33,cs),
(186,33,o),
(141,100,o),
(141,202,cs),
(141,323,o),
(199,451,o),
(348,451,cs),
(397,451,o),
(436,438,o),
(469,411,cs),
(496,389,o),
(517,418,o),
(498,436,cs),
(466,467,o),
(415,487,o),
(360,490,c),
(365,468,l),
(383,584,ls),
(386,602,o),
(377,610,o),
(366,610,cs),
(354,610,o),
(346,603,o),
(344,590,cs),
(325,468,l),
(338,490,l),
(166,482,o),
(98,338,o),
(98,202,cs),
(98,93,o),
(147,13,o),
(258,-3,c),
(253,8,l),
(236,-97,ls),
(233,-115,o),
(242,-121,o),
(253,-121,cs)
);
}
);
width = 600;
},
{
background = {
shapes = (
{
closed = 1;
nodes = (
(340,-115,l),
(363,30,l),
(324,-1,l),
(395,-5,o),
(484,17,o),
(515,41,c),
(476,184,l),
(446,165,o),
(408,153,o),
(370,153,cs),
(304,153,o),
(278,187,o),
(278,226,cs),
(278,280,o),
(306,344,o),
(392,344,cs),
(435,344,o),
(479,330,o),
(504,312,c),
(559,454,l),
(520,479,o),
(463,496,o),
(401,497,c),
(431,463,l),
(455,613,l),
(295,613,l),
(269,449,l),
(311,494,l),
(147,470,o),
(65,351,o),
(65,223,cs),
(65,119,o),
(122,39,o),
(234,10,c),
(205,42,l),
(180,-115,l)
);
}
);
};
layerId = "C92D7C27-2246-4784-91DF-7F4E0C5E615D";
shapes = (
{
closed = 1;
nodes = (
(312,-125,o),
(342,-102,o),
(349,-58,cs),
(363,30,l),
(324,-1,l),
(363,-3,o),
(408,2,o),
(446,12,cs),
(548,38,o),
(510,187,o),
(428,162,cs),
(408,156,o),
(383,153,o),
(370,153,cs),
(304,153,o),
(278,187,o),
(278,226,cs),
(278,280,o),
(306,344,o),
(392,344,cs),
(412,344,o),
(432,341,o),
(451,336,cs),
(544,310,o),
(592,454,o),
(488,485,cs),
(462,493,o),
(432,497,o),
(401,497,c),
(431,463,l),
(444,545,ls),
(453,599,o),
(414,623,o),
(372,623,cs),
(323,623,o),
(292,596,o),
(286,558,cs),
(269,449,l),
(311,494,l),
(147,470,o),
(65,351,o),
(65,223,cs),
(65,119,o),
(122,39,o),
(234,10,c),
(205,42,l),
(191,-43,ls),
(182,-99,o),
(214,-125,o),
(262,-125,cs)
);
}
);
width = 600;
},
{
background = {
shapes = (
{
closed = 1;
nodes = (
(371,-115,l),
(371,19,l),
(338,-8,l),
(410,-6,o),
(477,20,o),
(518,57,c),
(483,143,l),
(446,112,o),
(396,93,o),
(348,93,cs),
(261,93,o),
(210,156,o),
(210,247,cs),
(210,336,o),
(262,398,o),
(349,398,cs),
(397,398,o),
(446,379,o),
(483,348,c),
(518,434,l),
(479,472,o),
(409,495,o),
(340,495,c),
(371,466,l),
(371,609,l),
(271,609,l),
(271,459,l),
(290,491,l),
(164,472,o),
(82,373,o),
(82,245,cs),
(82,111,o),
(163,14,o),
(290,-5,c),
(271,25,l),
(271,-115,l)
);
}
);
};
layerId = "18203F29-5161-4D9B-8394-C173CC5E27D4";
shapes = (
{
closed = 1;
nodes = (
(350,-123,o),
(371,-101,o),
(371,-72,cs),
(371,19,l),
(338,-8,l),
(390,-7,o),
(448,10,o),
(487,34,cs),
(538,65,o),
(510,154,o),
(447,119,cs),
(413,100,o),
(378,93,o),
(348,93,cs),
(261,93,o),
(210,156,o),
(210,247,cs),
(210,336,o),
(262,398,o),
(349,398,cs),
(382,398,o),
(419,388,o),
(447,372,cs),
(504,339,o),
(542,423,o),
(491,455,cs),
(450,481,o),
(392,495,o),
(340,495,c),
(371,466,l),
(371,566,ls),
(371,595,o),
(350,617,o),
(321,617,cs),
(293,617,o),
(271,595,o),
(271,566,cs),
(271,459,l),
(290,491,l),
(164,472,o),
(82,373,o),
(82,245,cs),
(82,111,o),
(163,14,o),
(290,-5,c),
(271,25,l),
(271,-72,ls),
(271,-101,o),
(293,-123,o),
(321,-123,cs)
);
}
);
width = 600;
},
{
background = {
shapes = (
{
closed = 1;
nodes = (
(306,-115,l),
(327,19,l),
(303,-3,l),
(363,-8,o),
(447,12,o),
(487,48,c),
(458,137,l),
(422,108,o),
(378,93,o),
(337,93,cs),
(245,93,o),
(210,144,o),
(210,214,cs),
(210,302,o),
(253,398,o),
(370,398,cs),
(421,398,o),
(465,382,o),
(496,353,c),
(534,440,l),
(499,471,o),
(442,492,o),
(381,494,c),
(398,466,l),
(421,609,l),
(321,609,l),
(297,459,l),
(325,492,l),
(157,476,o),
(82,345,o),
(82,213,cs),
(82,106,o),
(135,26,o),
(246,4,c),
(228,25,l),
(206,-115,l)
);
}
);
};
layerId = "8FF16B21-C988-4EC9-A448-39B9B4A4BD78";
shapes = (
{
closed = 1;
nodes = (
(289,-123,o),
(308,-108,o),
(313,-80,cs),
(328,19,l),
(303,-3,l),
(345,-7,o),
(405,2,o),
(453,26,cs),
(511,55,o),
(477,144,o),
(424,115,cs),
(395,99,o),
(362,93,o),
(337,93,cs),
(245,93,o),
(210,144,o),
(210,214,cs),
(210,302,o),
(253,398,o),
(370,398,cs),
(405,398,o),
(434,391,o),
(463,377,cs),
(521,349,o),
(563,425,o),
(506,460,cs),
(477,478,o),
(426,493,o),
(381,494,c),
(398,466,l),
(414,565,ls),
(420,601,o),
(396,617,o),
(369,617,cs),
(339,617,o),
(319,600,o),
(315,574,cs),
(297,459,l),
(325,492,l),
(157,476,o),
(82,345,o),
(82,213,cs),
(82,106,o),
(135,26,o),
(246,4,c),
(229,25,l),
(214,-70,ls),
(208,-107,o),
(228,-123,o),
(258,-123,cs)
);
}
);
width = 600;
}
);
unicode = 162;
userData = {
com.typemytype.robofont.layerData = {
b = {
anchors = (
);
components = (
);
contours = (
);
lib = {
};
name = cent;
unicodes = (
);
width = 1046;
};
};
};
}
